ISO-10303-21;
HEADER;
FILE_DESCRIPTION(('FreeCAD Model'),'2;1');
FILE_NAME('Open CASCADE Shape Model','2024-10-18T14:54:09',('Author'),(
    ''),'Open CASCADE STEP processor 7.6','FreeCAD','Unknown');
FILE_SCHEMA(('AUTOMOTIVE_DESIGN { 1 0 10303 214 1 1 1 1 }'));
ENDSEC;
DATA;
#1 = APPLICATION_PROTOCOL_DEFINITION('international standard',
  'automotive_design',2000,#2);
#2 = APPLICATION_CONTEXT(
  'core data for automotive mechanical design processes');
#3 = SHAPE_DEFINITION_REPRESENTATION(#4,#10);
#4 = PRODUCT_DEFINITION_SHAPE('','',#5);
#5 = PRODUCT_DEFINITION('design','',#6,#9);
#6 = PRODUCT_DEFINITION_FORMATION('','',#7);
#7 = PRODUCT('Unnamed','Unnamed','',(#8));
#8 = PRODUCT_CONTEXT('',#2,'mechanical');
#9 = PRODUCT_DEFINITION_CONTEXT('part definition',#2,'design');
#10 = SHAPE_REPRESENTATION('',(#11,#15,#19),#23);
#11 = AXIS2_PLACEMENT_3D('',#12,#13,#14);
#12 = CARTESIAN_POINT('',(0.,0.,0.));
#13 = DIRECTION('',(0.,0.,1.));
#14 = DIRECTION('',(1.,0.,-0.));
#15 = AXIS2_PLACEMENT_3D('',#16,#17,#18);
#16 = CARTESIAN_POINT('',(-1.396076222081E-17,16.,-5.24313066176E-17));
#17 = DIRECTION('',(2.144786455101E-16,-3.573717537938E-18,-1.));
#18 = DIRECTION('',(2.22044604925E-16,-1.,3.573717537938E-18));
#19 = AXIS2_PLACEMENT_3D('',#20,#21,#22);
#20 = CARTESIAN_POINT('',(0.,0.,0.));
#21 = DIRECTION('',(0.,0.,1.));
#22 = DIRECTION('',(1.,0.,0.));
#23 = ( GEOMETRIC_REPRESENTATION_CONTEXT(3) 
GLOBAL_UNCERTAINTY_ASSIGNED_CONTEXT((#27)) GLOBAL_UNIT_ASSIGNED_CONTEXT(
(#24,#25,#26)) REPRESENTATION_CONTEXT('Context #1',
  '3D Context with UNIT and UNCERTAINTY') );
#24 = ( LENGTH_UNIT() NAMED_UNIT(*) SI_UNIT(.MILLI.,.METRE.) );
#25 = ( NAMED_UNIT(*) PLANE_ANGLE_UNIT() SI_UNIT($,.RADIAN.) );
#26 = ( NAMED_UNIT(*) SI_UNIT($,.STERADIAN.) SOLID_ANGLE_UNIT() );
#27 = UNCERTAINTY_MEASURE_WITH_UNIT(LENGTH_MEASURE(1.E-07),#24,
  'distance_accuracy_value','confusion accuracy');
#28 = PRODUCT_RELATED_PRODUCT_CATEGORY('part',$,(#7));
#29 = SHAPE_DEFINITION_REPRESENTATION(#30,#36);
#30 = PRODUCT_DEFINITION_SHAPE('','',#31);
#31 = PRODUCT_DEFINITION('design','',#32,#35);
#32 = PRODUCT_DEFINITION_FORMATION('','',#33);
#33 = PRODUCT('Stud','Stud','',(#34));
#34 = PRODUCT_CONTEXT('',#2,'mechanical');
#35 = PRODUCT_DEFINITION_CONTEXT('part definition',#2,'design');
#36 = ADVANCED_BREP_SHAPE_REPRESENTATION('',(#11,#37),#340);
#37 = MANIFOLD_SOLID_BREP('',#38);
#38 = CLOSED_SHELL('',(#39,#81,#107,#116,#158,#184,#204,#221,#246,#258,
    #283,#303,#328));
#39 = ADVANCED_FACE('',(#40),#76,.T.);
#40 = FACE_BOUND('',#41,.T.);
#41 = EDGE_LOOP('',(#42,#53,#61,#68,#69));
#42 = ORIENTED_EDGE('',*,*,#43,.T.);
#43 = EDGE_CURVE('',#44,#46,#48,.T.);
#44 = VERTEX_POINT('',#45);
#45 = CARTESIAN_POINT('',(23.5,4.,-1.388448883519E-15));
#46 = VERTEX_POINT('',#47);
#47 = CARTESIAN_POINT('',(23.5,-4.,-1.388448883519E-15));
#48 = CIRCLE('',#49,4.);
#49 = AXIS2_PLACEMENT_3D('',#50,#51,#52);
#50 = CARTESIAN_POINT('',(23.5,1.665334536938E-16,-1.878307603178E-15));
#51 = DIRECTION('',(1.,-1.532972193945E-33,1.972152263053E-31));
#52 = DIRECTION('',(-1.532972193945E-33,-1.,-4.534881872228E-64));
#53 = ORIENTED_EDGE('',*,*,#54,.T.);
#54 = EDGE_CURVE('',#46,#55,#57,.T.);
#55 = VERTEX_POINT('',#56);
#56 = CARTESIAN_POINT('',(24.5,-3.,-1.510913563434E-15));
#57 = LINE('',#58,#59);
#58 = CARTESIAN_POINT('',(24.,-3.5,-1.449681223476E-15));
#59 = VECTOR('',#60,1.);
#60 = DIRECTION('',(0.707106781187,0.707106781187,-8.659560562349E-17));
#61 = ORIENTED_EDGE('',*,*,#62,.T.);
#62 = EDGE_CURVE('',#55,#55,#63,.T.);
#63 = CIRCLE('',#64,3.);
#64 = AXIS2_PLACEMENT_3D('',#65,#66,#67);
#65 = CARTESIAN_POINT('',(24.5,1.665334536938E-16,-1.878307603178E-15));
#66 = DIRECTION('',(-1.,1.532972193945E-33,-1.972152263053E-31));
#67 = DIRECTION('',(-1.532972193945E-33,-1.,-4.534881872228E-64));
#68 = ORIENTED_EDGE('',*,*,#54,.F.);
#69 = ORIENTED_EDGE('',*,*,#70,.T.);
#70 = EDGE_CURVE('',#46,#44,#71,.T.);
#71 = CIRCLE('',#72,4.);
#72 = AXIS2_PLACEMENT_3D('',#73,#74,#75);
#73 = CARTESIAN_POINT('',(23.5,1.665334536938E-16,-1.878307603178E-15));
#74 = DIRECTION('',(1.,-1.532972193945E-33,1.972152263053E-31));
#75 = DIRECTION('',(-1.532972193945E-33,-1.,-4.534881872228E-64));
#76 = CONICAL_SURFACE('',#77,3.5,0.785398163397);
#77 = AXIS2_PLACEMENT_3D('',#78,#79,#80);
#78 = CARTESIAN_POINT('',(24.,1.665334536938E-16,-1.878307603178E-15));
#79 = DIRECTION('',(-1.,1.532972193945E-33,-1.972152263053E-31));
#80 = DIRECTION('',(1.532972193945E-33,1.,4.534881872228E-64));
#81 = ADVANCED_FACE('',(#82),#102,.T.);
#82 = FACE_BOUND('',#83,.T.);
#83 = EDGE_LOOP('',(#84,#85,#93,#100,#101));
#84 = ORIENTED_EDGE('',*,*,#43,.F.);
#85 = ORIENTED_EDGE('',*,*,#86,.T.);
#86 = EDGE_CURVE('',#44,#87,#89,.T.);
#87 = VERTEX_POINT('',#88);
#88 = CARTESIAN_POINT('',(22.5,4.,-1.878307603178E-15));
#89 = LINE('',#90,#91);
#90 = CARTESIAN_POINT('',(23.5,4.,-1.388448883519E-15));
#91 = VECTOR('',#92,1.);
#92 = DIRECTION('',(-1.,1.532972193945E-33,-1.972152263053E-31));
#93 = ORIENTED_EDGE('',*,*,#94,.T.);
#94 = EDGE_CURVE('',#87,#87,#95,.T.);
#95 = CIRCLE('',#96,4.);
#96 = AXIS2_PLACEMENT_3D('',#97,#98,#99);
#97 = CARTESIAN_POINT('',(22.5,1.665334536938E-16,-1.878307603178E-15));
#98 = DIRECTION('',(1.,-1.532972193945E-33,1.972152263053E-31));
#99 = DIRECTION('',(1.532972193945E-33,1.,4.534881872228E-64));
#100 = ORIENTED_EDGE('',*,*,#86,.F.);
#101 = ORIENTED_EDGE('',*,*,#70,.F.);
#102 = CYLINDRICAL_SURFACE('',#103,4.);
#103 = AXIS2_PLACEMENT_3D('',#104,#105,#106);
#104 = CARTESIAN_POINT('',(23.5,1.665334536938E-16,-1.878307603178E-15)
  );
#105 = DIRECTION('',(1.,-1.532972193945E-33,1.972152263053E-31));
#106 = DIRECTION('',(-1.532972193945E-33,-1.,-4.534881872228E-64));
#107 = ADVANCED_FACE('',(#108),#111,.T.);
#108 = FACE_BOUND('',#109,.T.);
#109 = EDGE_LOOP('',(#110));
#110 = ORIENTED_EDGE('',*,*,#62,.F.);
#111 = PLANE('',#112);
#112 = AXIS2_PLACEMENT_3D('',#113,#114,#115);
#113 = CARTESIAN_POINT('',(24.5,2.,-1.878307603178E-15));
#114 = DIRECTION('',(1.,-1.532972193945E-33,1.972152263053E-31));
#115 = DIRECTION('',(-1.972152263053E-31,-1.511627290743E-64,1.));
#116 = ADVANCED_FACE('',(#117),#153,.T.);
#117 = FACE_BOUND('',#118,.T.);
#118 = EDGE_LOOP('',(#119,#130,#138,#145,#146));
#119 = ORIENTED_EDGE('',*,*,#120,.T.);
#120 = EDGE_CURVE('',#121,#123,#125,.T.);
#121 = VERTEX_POINT('',#122);
#122 = CARTESIAN_POINT('',(9.5,8.,-8.9859016386E-16));
#123 = VERTEX_POINT('',#124);
#124 = CARTESIAN_POINT('',(9.5,-8.,-8.9859016386E-16));
#125 = CIRCLE('',#126,8.);
#126 = AXIS2_PLACEMENT_3D('',#127,#128,#129);
#127 = CARTESIAN_POINT('',(9.5,1.665334536938E-16,-1.878307603178E-15));
#128 = DIRECTION('',(1.,-1.532972193945E-33,1.972152263053E-31));
#129 = DIRECTION('',(-1.532972193945E-33,-1.,-4.534881872228E-64));
#130 = ORIENTED_EDGE('',*,*,#131,.T.);
#131 = EDGE_CURVE('',#123,#132,#134,.T.);
#132 = VERTEX_POINT('',#133);
#133 = CARTESIAN_POINT('',(10.5,-7.,-1.021054843775E-15));
#134 = LINE('',#135,#136);
#135 = CARTESIAN_POINT('',(10.,-7.5,-9.598225038174E-16));
#136 = VECTOR('',#137,1.);
#137 = DIRECTION('',(0.707106781187,0.707106781187,-8.659560562349E-17)
  );
#138 = ORIENTED_EDGE('',*,*,#139,.T.);
#139 = EDGE_CURVE('',#132,#132,#140,.T.);
#140 = CIRCLE('',#141,7.);
#141 = AXIS2_PLACEMENT_3D('',#142,#143,#144);
#142 = CARTESIAN_POINT('',(10.5,1.665334536938E-16,-1.878307603178E-15)
  );
#143 = DIRECTION('',(-1.,1.532972193945E-33,-1.972152263053E-31));
#144 = DIRECTION('',(-1.532972193945E-33,-1.,-4.534881872228E-64));
#145 = ORIENTED_EDGE('',*,*,#131,.F.);
#146 = ORIENTED_EDGE('',*,*,#147,.T.);
#147 = EDGE_CURVE('',#123,#121,#148,.T.);
#148 = CIRCLE('',#149,8.);
#149 = AXIS2_PLACEMENT_3D('',#150,#151,#152);
#150 = CARTESIAN_POINT('',(9.5,1.665334536938E-16,-1.878307603178E-15));
#151 = DIRECTION('',(1.,-1.532972193945E-33,1.972152263053E-31));
#152 = DIRECTION('',(-1.532972193945E-33,-1.,-4.534881872228E-64));
#153 = CONICAL_SURFACE('',#154,7.5,0.785398163397);
#154 = AXIS2_PLACEMENT_3D('',#155,#156,#157);
#155 = CARTESIAN_POINT('',(10.,1.665334536938E-16,-1.878307603178E-15));
#156 = DIRECTION('',(-1.,1.532972193945E-33,-1.972152263053E-31));
#157 = DIRECTION('',(1.532972193945E-33,1.,4.534881872228E-64));
#158 = ADVANCED_FACE('',(#159),#179,.T.);
#159 = FACE_BOUND('',#160,.T.);
#160 = EDGE_LOOP('',(#161,#162,#170,#177,#178));
#161 = ORIENTED_EDGE('',*,*,#120,.F.);
#162 = ORIENTED_EDGE('',*,*,#163,.T.);
#163 = EDGE_CURVE('',#121,#164,#166,.T.);
#164 = VERTEX_POINT('',#165);
#165 = CARTESIAN_POINT('',(5.5,8.,-1.878307603178E-15));
#166 = LINE('',#167,#168);
#167 = CARTESIAN_POINT('',(8.,8.,-8.9859016386E-16));
#168 = VECTOR('',#169,1.);
#169 = DIRECTION('',(-1.,1.532972193945E-33,-1.972152263053E-31));
#170 = ORIENTED_EDGE('',*,*,#171,.T.);
#171 = EDGE_CURVE('',#164,#164,#172,.T.);
#172 = CIRCLE('',#173,8.);
#173 = AXIS2_PLACEMENT_3D('',#174,#175,#176);
#174 = CARTESIAN_POINT('',(5.5,1.665334536938E-16,-1.878307603178E-15));
#175 = DIRECTION('',(1.,-1.532972193945E-33,1.972152263053E-31));
#176 = DIRECTION('',(1.532972193945E-33,1.,4.534881872228E-64));
#177 = ORIENTED_EDGE('',*,*,#163,.F.);
#178 = ORIENTED_EDGE('',*,*,#147,.F.);
#179 = CYLINDRICAL_SURFACE('',#180,8.);
#180 = AXIS2_PLACEMENT_3D('',#181,#182,#183);
#181 = CARTESIAN_POINT('',(8.,1.665334536938E-16,-1.878307603178E-15));
#182 = DIRECTION('',(1.,-1.532972193945E-33,1.972152263053E-31));
#183 = DIRECTION('',(-1.532972193945E-33,-1.,-4.534881872228E-64));
#184 = ADVANCED_FACE('',(#185,#188),#199,.T.);
#185 = FACE_BOUND('',#186,.T.);
#186 = EDGE_LOOP('',(#187));
#187 = ORIENTED_EDGE('',*,*,#139,.F.);
#188 = FACE_BOUND('',#189,.T.);
#189 = EDGE_LOOP('',(#190));
#190 = ORIENTED_EDGE('',*,*,#191,.F.);
#191 = EDGE_CURVE('',#192,#192,#194,.T.);
#192 = VERTEX_POINT('',#193);
#193 = CARTESIAN_POINT('',(10.5,4.,-1.878307603178E-15));
#194 = CIRCLE('',#195,4.);
#195 = AXIS2_PLACEMENT_3D('',#196,#197,#198);
#196 = CARTESIAN_POINT('',(10.5,1.665334536938E-16,-1.878307603178E-15)
  );
#197 = DIRECTION('',(1.,-1.532972193945E-33,1.972152263053E-31));
#198 = DIRECTION('',(1.532972193945E-33,1.,4.534881872228E-64));
#199 = PLANE('',#200);
#200 = AXIS2_PLACEMENT_3D('',#201,#202,#203);
#201 = CARTESIAN_POINT('',(10.5,6.,-1.878307603178E-15));
#202 = DIRECTION('',(1.,-1.532972193945E-33,1.972152263053E-31));
#203 = DIRECTION('',(-1.972152263053E-31,-1.511627290743E-64,1.));
#204 = ADVANCED_FACE('',(#205),#216,.T.);
#205 = FACE_BOUND('',#206,.T.);
#206 = EDGE_LOOP('',(#207));
#207 = ORIENTED_EDGE('',*,*,#208,.F.);
#208 = EDGE_CURVE('',#209,#209,#211,.T.);
#209 = VERTEX_POINT('',#210);
#210 = CARTESIAN_POINT('',(1.5,3.9,-1.878307603178E-15));
#211 = CIRCLE('',#212,3.9);
#212 = AXIS2_PLACEMENT_3D('',#213,#214,#215);
#213 = CARTESIAN_POINT('',(1.5,1.665334536938E-16,-1.878307603178E-15));
#214 = DIRECTION('',(1.,-1.532972193945E-33,1.972152263053E-31));
#215 = DIRECTION('',(1.532972193945E-33,1.,4.534881872228E-64));
#216 = PLANE('',#217);
#217 = AXIS2_PLACEMENT_3D('',#218,#219,#220);
#218 = CARTESIAN_POINT('',(1.5,1.95,-1.878307603178E-15));
#219 = DIRECTION('',(-1.,1.532972193945E-33,-1.972152263053E-31));
#220 = DIRECTION('',(1.972152263053E-31,1.511627290743E-64,-1.));
#221 = ADVANCED_FACE('',(#222),#241,.T.);
#222 = FACE_BOUND('',#223,.T.);
#223 = EDGE_LOOP('',(#224,#233,#239,#240));
#224 = ORIENTED_EDGE('',*,*,#225,.F.);
#225 = EDGE_CURVE('',#226,#226,#228,.T.);
#226 = VERTEX_POINT('',#227);
#227 = CARTESIAN_POINT('',(5.5,3.9,-1.878307603178E-15));
#228 = CIRCLE('',#229,3.9);
#229 = AXIS2_PLACEMENT_3D('',#230,#231,#232);
#230 = CARTESIAN_POINT('',(5.5,1.665334536938E-16,-1.878307603178E-15));
#231 = DIRECTION('',(1.,-1.532972193945E-33,1.972152263053E-31));
#232 = DIRECTION('',(1.532972193945E-33,1.,4.534881872228E-64));
#233 = ORIENTED_EDGE('',*,*,#234,.T.);
#234 = EDGE_CURVE('',#226,#209,#235,.T.);
#235 = LINE('',#236,#237);
#236 = CARTESIAN_POINT('',(3.5,3.9,-1.40069535151E-15));
#237 = VECTOR('',#238,1.);
#238 = DIRECTION('',(-1.,1.532972193945E-33,-1.972152263053E-31));
#239 = ORIENTED_EDGE('',*,*,#208,.T.);
#240 = ORIENTED_EDGE('',*,*,#234,.F.);
#241 = CYLINDRICAL_SURFACE('',#242,3.9);
#242 = AXIS2_PLACEMENT_3D('',#243,#244,#245);
#243 = CARTESIAN_POINT('',(3.5,1.665334536938E-16,-1.878307603178E-15));
#244 = DIRECTION('',(1.,-1.532972193945E-33,1.972152263053E-31));
#245 = DIRECTION('',(-1.532972193945E-33,-1.,-4.534881872228E-64));
#246 = ADVANCED_FACE('',(#247,#250),#253,.T.);
#247 = FACE_BOUND('',#248,.T.);
#248 = EDGE_LOOP('',(#249));
#249 = ORIENTED_EDGE('',*,*,#171,.F.);
#250 = FACE_BOUND('',#251,.T.);
#251 = EDGE_LOOP('',(#252));
#252 = ORIENTED_EDGE('',*,*,#225,.T.);
#253 = PLANE('',#254);
#254 = AXIS2_PLACEMENT_3D('',#255,#256,#257);
#255 = CARTESIAN_POINT('',(5.5,5.95,-1.878307603178E-15));
#256 = DIRECTION('',(-1.,1.532972193945E-33,-1.972152263053E-31));
#257 = DIRECTION('',(1.972152263053E-31,1.511627290743E-64,-1.));
#258 = ADVANCED_FACE('',(#259),#278,.T.);
#259 = FACE_BOUND('',#260,.T.);
#260 = EDGE_LOOP('',(#261,#270,#276,#277));
#261 = ORIENTED_EDGE('',*,*,#262,.F.);
#262 = EDGE_CURVE('',#263,#263,#265,.T.);
#263 = VERTEX_POINT('',#264);
#264 = CARTESIAN_POINT('',(21.5,4.,-1.878307603178E-15));
#265 = CIRCLE('',#266,4.);
#266 = AXIS2_PLACEMENT_3D('',#267,#268,#269);
#267 = CARTESIAN_POINT('',(21.5,1.665334536938E-16,-1.878307603178E-15)
  );
#268 = DIRECTION('',(1.,-1.532972193945E-33,1.972152263053E-31));
#269 = DIRECTION('',(1.532972193945E-33,1.,4.534881872228E-64));
#270 = ORIENTED_EDGE('',*,*,#271,.T.);
#271 = EDGE_CURVE('',#263,#192,#272,.T.);
#272 = LINE('',#273,#274);
#273 = CARTESIAN_POINT('',(16.,4.,-1.388448883519E-15));
#274 = VECTOR('',#275,1.);
#275 = DIRECTION('',(-1.,1.532972193945E-33,-1.972152263053E-31));
#276 = ORIENTED_EDGE('',*,*,#191,.T.);
#277 = ORIENTED_EDGE('',*,*,#271,.F.);
#278 = CYLINDRICAL_SURFACE('',#279,4.);
#279 = AXIS2_PLACEMENT_3D('',#280,#281,#282);
#280 = CARTESIAN_POINT('',(16.,1.665334536938E-16,-1.878307603178E-15));
#281 = DIRECTION('',(1.,-1.532972193945E-33,1.972152263053E-31));
#282 = DIRECTION('',(-1.532972193945E-33,-1.,-4.534881872228E-64));
#283 = ADVANCED_FACE('',(#284,#287),#298,.T.);
#284 = FACE_BOUND('',#285,.T.);
#285 = EDGE_LOOP('',(#286));
#286 = ORIENTED_EDGE('',*,*,#262,.T.);
#287 = FACE_BOUND('',#288,.T.);
#288 = EDGE_LOOP('',(#289));
#289 = ORIENTED_EDGE('',*,*,#290,.F.);
#290 = EDGE_CURVE('',#291,#291,#293,.T.);
#291 = VERTEX_POINT('',#292);
#292 = CARTESIAN_POINT('',(21.5,3.5,-1.878307603178E-15));
#293 = CIRCLE('',#294,3.5);
#294 = AXIS2_PLACEMENT_3D('',#295,#296,#297);
#295 = CARTESIAN_POINT('',(21.5,1.665334536938E-16,-1.878307603178E-15)
  );
#296 = DIRECTION('',(1.,-1.532972193945E-33,1.972152263053E-31));
#297 = DIRECTION('',(1.532972193945E-33,1.,4.534881872228E-64));
#298 = PLANE('',#299);
#299 = AXIS2_PLACEMENT_3D('',#300,#301,#302);
#300 = CARTESIAN_POINT('',(21.5,3.75,-1.878307603178E-15));
#301 = DIRECTION('',(1.,-1.532972193945E-33,1.972152263053E-31));
#302 = DIRECTION('',(-1.972152263053E-31,-1.511627290743E-64,1.));
#303 = ADVANCED_FACE('',(#304),#323,.T.);
#304 = FACE_BOUND('',#305,.T.);
#305 = EDGE_LOOP('',(#306,#315,#321,#322));
#306 = ORIENTED_EDGE('',*,*,#307,.F.);
#307 = EDGE_CURVE('',#308,#308,#310,.T.);
#308 = VERTEX_POINT('',#309);
#309 = CARTESIAN_POINT('',(22.5,3.5,-1.878307603178E-15));
#310 = CIRCLE('',#311,3.5);
#311 = AXIS2_PLACEMENT_3D('',#312,#313,#314);
#312 = CARTESIAN_POINT('',(22.5,1.665334536938E-16,-1.878307603178E-15)
  );
#313 = DIRECTION('',(1.,-1.532972193945E-33,1.972152263053E-31));
#314 = DIRECTION('',(1.532972193945E-33,1.,4.534881872228E-64));
#315 = ORIENTED_EDGE('',*,*,#316,.T.);
#316 = EDGE_CURVE('',#308,#291,#317,.T.);
#317 = LINE('',#318,#319);
#318 = CARTESIAN_POINT('',(22.,3.5,-1.449681223476E-15));
#319 = VECTOR('',#320,1.);
#320 = DIRECTION('',(-1.,1.532972193945E-33,-1.972152263053E-31));
#321 = ORIENTED_EDGE('',*,*,#290,.T.);
#322 = ORIENTED_EDGE('',*,*,#316,.F.);
#323 = CYLINDRICAL_SURFACE('',#324,3.5);
#324 = AXIS2_PLACEMENT_3D('',#325,#326,#327);
#325 = CARTESIAN_POINT('',(22.,1.665334536938E-16,-1.878307603178E-15));
#326 = DIRECTION('',(1.,-1.532972193945E-33,1.972152263053E-31));
#327 = DIRECTION('',(-1.532972193945E-33,-1.,-4.534881872228E-64));
#328 = ADVANCED_FACE('',(#329,#332),#335,.T.);
#329 = FACE_BOUND('',#330,.T.);
#330 = EDGE_LOOP('',(#331));
#331 = ORIENTED_EDGE('',*,*,#94,.F.);
#332 = FACE_BOUND('',#333,.T.);
#333 = EDGE_LOOP('',(#334));
#334 = ORIENTED_EDGE('',*,*,#307,.T.);
#335 = PLANE('',#336);
#336 = AXIS2_PLACEMENT_3D('',#337,#338,#339);
#337 = CARTESIAN_POINT('',(22.5,3.75,-1.878307603178E-15));
#338 = DIRECTION('',(-1.,1.532972193945E-33,-1.972152263053E-31));
#339 = DIRECTION('',(1.972152263053E-31,1.511627290743E-64,-1.));
#340 = ( GEOMETRIC_REPRESENTATION_CONTEXT(3) 
GLOBAL_UNCERTAINTY_ASSIGNED_CONTEXT((#344)) GLOBAL_UNIT_ASSIGNED_CONTEXT
((#341,#342,#343)) REPRESENTATION_CONTEXT('Context #1',
  '3D Context with UNIT and UNCERTAINTY') );
#341 = ( LENGTH_UNIT() NAMED_UNIT(*) SI_UNIT(.MILLI.,.METRE.) );
#342 = ( NAMED_UNIT(*) PLANE_ANGLE_UNIT() SI_UNIT($,.RADIAN.) );
#343 = ( NAMED_UNIT(*) SI_UNIT($,.STERADIAN.) SOLID_ANGLE_UNIT() );
#344 = UNCERTAINTY_MEASURE_WITH_UNIT(LENGTH_MEASURE(1.E-07),#341,
  'distance_accuracy_value','confusion accuracy');
#345 = CONTEXT_DEPENDENT_SHAPE_REPRESENTATION(#346,#348);
#346 = ( REPRESENTATION_RELATIONSHIP('','',#36,#10) 
REPRESENTATION_RELATIONSHIP_WITH_TRANSFORMATION(#347) 
SHAPE_REPRESENTATION_RELATIONSHIP() );
#347 = ITEM_DEFINED_TRANSFORMATION('','',#11,#15);
#348 = PRODUCT_DEFINITION_SHAPE('Placement','Placement of an item',#349
  );
#349 = NEXT_ASSEMBLY_USAGE_OCCURRENCE('1','Stud','',#5,#31,$);
#350 = PRODUCT_RELATED_PRODUCT_CATEGORY('part',$,(#33));
#351 = SHAPE_DEFINITION_REPRESENTATION(#352,#358);
#352 = PRODUCT_DEFINITION_SHAPE('','',#353);
#353 = PRODUCT_DEFINITION('design','',#354,#357);
#354 = PRODUCT_DEFINITION_FORMATION('','',#355);
#355 = PRODUCT('(Unsaved)','(Unsaved)','',(#356));
#356 = PRODUCT_CONTEXT('',#2,'mechanical');
#357 = PRODUCT_DEFINITION_CONTEXT('part definition',#2,'design');
#358 = SHAPE_REPRESENTATION('',(#11,#359,#363,#367),#371);
#359 = AXIS2_PLACEMENT_3D('',#360,#361,#362);
#360 = CARTESIAN_POINT('',(1.679315044524E-15,-4.05,3.976351989933));
#361 = DIRECTION('',(0.,-1.,1.110223024625E-15));
#362 = DIRECTION('',(1.,0.,0.));
#363 = AXIS2_PLACEMENT_3D('',#364,#365,#366);
#364 = CARTESIAN_POINT('',(-1.396076222081E-17,16.,-5.24313066176E-17));
#365 = DIRECTION('',(2.144786455101E-16,-3.573717537938E-18,-1.));
#366 = DIRECTION('',(2.22044604925E-16,-1.,3.573717537938E-18));
#367 = AXIS2_PLACEMENT_3D('',#368,#369,#370);
#368 = CARTESIAN_POINT('',(7.033570701952E-15,14.,-37.));
#369 = DIRECTION('',(-2.144786455101E-16,3.573717537938E-18,1.));
#370 = DIRECTION('',(-2.22044604925E-16,1.,-3.573717537938E-18));
#371 = ( GEOMETRIC_REPRESENTATION_CONTEXT(3) 
GLOBAL_UNCERTAINTY_ASSIGNED_CONTEXT((#375)) GLOBAL_UNIT_ASSIGNED_CONTEXT
((#372,#373,#374)) REPRESENTATION_CONTEXT('Context #1',
  '3D Context with UNIT and UNCERTAINTY') );
#372 = ( LENGTH_UNIT() NAMED_UNIT(*) SI_UNIT(.MILLI.,.METRE.) );
#373 = ( NAMED_UNIT(*) PLANE_ANGLE_UNIT() SI_UNIT($,.RADIAN.) );
#374 = ( NAMED_UNIT(*) SI_UNIT($,.STERADIAN.) SOLID_ANGLE_UNIT() );
#375 = UNCERTAINTY_MEASURE_WITH_UNIT(LENGTH_MEASURE(1.E-07),#372,
  'distance_accuracy_value','confusion accuracy');
#376 = CONTEXT_DEPENDENT_SHAPE_REPRESENTATION(#377,#379);
#377 = ( REPRESENTATION_RELATIONSHIP('','',#358,#10) 
REPRESENTATION_RELATIONSHIP_WITH_TRANSFORMATION(#378) 
SHAPE_REPRESENTATION_RELATIONSHIP() );
#378 = ITEM_DEFINED_TRANSFORMATION('','',#11,#19);
#379 = PRODUCT_DEFINITION_SHAPE('Placement','Placement of an item',#380
  );
#380 = NEXT_ASSEMBLY_USAGE_OCCURRENCE('5','(Unsaved)','',#5,#353,$);
#381 = PRODUCT_RELATED_PRODUCT_CATEGORY('part',$,(#355));
#382 = SHAPE_DEFINITION_REPRESENTATION(#383,#389);
#383 = PRODUCT_DEFINITION_SHAPE('','',#384);
#384 = PRODUCT_DEFINITION('design','',#385,#388);
#385 = PRODUCT_DEFINITION_FORMATION('','',#386);
#386 = PRODUCT('Clip','Clip','',(#387));
#387 = PRODUCT_CONTEXT('',#2,'mechanical');
#388 = PRODUCT_DEFINITION_CONTEXT('part definition',#2,'design');
#389 = ADVANCED_BREP_SHAPE_REPRESENTATION('',(#11,#390),#1096);
#390 = MANIFOLD_SOLID_BREP('',#391);
#391 = CLOSED_SHELL('',(#392,#434,#467,#498,#531,#564,#595,#628,#661,
    #694,#725,#758,#789,#822,#855,#888,#919,#952,#985,#1016,#1040,#1068)
  );
#392 = ADVANCED_FACE('',(#393),#429,.T.);
#393 = FACE_BOUND('',#394,.T.);
#394 = EDGE_LOOP('',(#395,#406,#414,#423));
#395 = ORIENTED_EDGE('',*,*,#396,.T.);
#396 = EDGE_CURVE('',#397,#399,#401,.T.);
#397 = VERTEX_POINT('',#398);
#398 = CARTESIAN_POINT('',(-5.947659817273,-7.944707152717,2.4));
#399 = VERTEX_POINT('',#400);
#400 = CARTESIAN_POINT('',(5.947659817273,-7.944707152717,2.4));
#401 = CIRCLE('',#402,7.15);
#402 = AXIS2_PLACEMENT_3D('',#403,#404,#405);
#403 = CARTESIAN_POINT('',(5.327213576291E-16,-3.976351989933,2.4));
#404 = DIRECTION('',(0.,0.,-1.));
#405 = DIRECTION('',(0.831840533884,-0.555014708082,0.));
#406 = ORIENTED_EDGE('',*,*,#407,.F.);
#407 = EDGE_CURVE('',#408,#399,#410,.T.);
#408 = VERTEX_POINT('',#409);
#409 = CARTESIAN_POINT('',(5.947659817273,-7.944707152717,1.5));
#410 = LINE('',#411,#412);
#411 = CARTESIAN_POINT('',(5.947659817273,-7.944707152717,1.5));
#412 = VECTOR('',#413,1.);
#413 = DIRECTION('',(0.,0.,1.));
#414 = ORIENTED_EDGE('',*,*,#415,.T.);
#415 = EDGE_CURVE('',#408,#416,#418,.T.);
#416 = VERTEX_POINT('',#417);
#417 = CARTESIAN_POINT('',(-5.947659817273,-7.944707152717,1.5));
#418 = CIRCLE('',#419,7.15);
#419 = AXIS2_PLACEMENT_3D('',#420,#421,#422);
#420 = CARTESIAN_POINT('',(5.327213576291E-16,-3.976351989933,1.5));
#421 = DIRECTION('',(0.,0.,1.));
#422 = DIRECTION('',(0.831840533884,-0.555014708082,0.));
#423 = ORIENTED_EDGE('',*,*,#424,.T.);
#424 = EDGE_CURVE('',#416,#397,#425,.T.);
#425 = LINE('',#426,#427);
#426 = CARTESIAN_POINT('',(-5.947659817273,-7.944707152717,1.5));
#427 = VECTOR('',#428,1.);
#428 = DIRECTION('',(0.,0.,1.));
#429 = CYLINDRICAL_SURFACE('',#430,7.15);
#430 = AXIS2_PLACEMENT_3D('',#431,#432,#433);
#431 = CARTESIAN_POINT('',(5.327213576291E-16,-3.976351989933,1.5));
#432 = DIRECTION('',(0.,0.,1.));
#433 = DIRECTION('',(-0.831840533884,0.555014708082,0.));
#434 = ADVANCED_FACE('',(#435),#462,.T.);
#435 = FACE_BOUND('',#436,.T.);
#436 = EDGE_LOOP('',(#437,#446,#454,#461));
#437 = ORIENTED_EDGE('',*,*,#438,.T.);
#438 = EDGE_CURVE('',#399,#439,#441,.T.);
#439 = VERTEX_POINT('',#440);
#440 = CARTESIAN_POINT('',(4.091140338625,-7.73077786733,2.4));
#441 = CIRCLE('',#442,1.05);
#442 = AXIS2_PLACEMENT_3D('',#443,#444,#445);
#443 = CARTESIAN_POINT('',(5.074227256694,-7.361941709231,2.4));
#444 = DIRECTION('',(0.,0.,-1.));
#445 = DIRECTION('',(-0.936273255304,-0.351272531522,-0.));
#446 = ORIENTED_EDGE('',*,*,#447,.F.);
#447 = EDGE_CURVE('',#448,#439,#450,.T.);
#448 = VERTEX_POINT('',#449);
#449 = CARTESIAN_POINT('',(4.091140338625,-7.73077786733,1.5));
#450 = LINE('',#451,#452);
#451 = CARTESIAN_POINT('',(4.091140338625,-7.73077786733,1.5));
#452 = VECTOR('',#453,1.);
#453 = DIRECTION('',(0.,0.,1.));
#454 = ORIENTED_EDGE('',*,*,#455,.T.);
#455 = EDGE_CURVE('',#448,#408,#456,.T.);
#456 = CIRCLE('',#457,1.05);
#457 = AXIS2_PLACEMENT_3D('',#458,#459,#460);
#458 = CARTESIAN_POINT('',(5.074227256694,-7.361941709231,1.5));
#459 = DIRECTION('',(0.,0.,1.));
#460 = DIRECTION('',(-0.936273255304,-0.351272531522,0.));
#461 = ORIENTED_EDGE('',*,*,#407,.T.);
#462 = CYLINDRICAL_SURFACE('',#463,1.05);
#463 = AXIS2_PLACEMENT_3D('',#464,#465,#466);
#464 = CARTESIAN_POINT('',(5.074227256694,-7.361941709231,1.5));
#465 = DIRECTION('',(0.,0.,1.));
#466 = DIRECTION('',(0.936273255304,0.351272531522,-0.));
#467 = ADVANCED_FACE('',(#468),#493,.T.);
#468 = FACE_BOUND('',#469,.T.);
#469 = EDGE_LOOP('',(#470,#478,#486,#492));
#470 = ORIENTED_EDGE('',*,*,#471,.T.);
#471 = EDGE_CURVE('',#439,#472,#474,.T.);
#472 = VERTEX_POINT('',#473);
#473 = CARTESIAN_POINT('',(3.207802986469,-5.376351989933,2.4));
#474 = LINE('',#475,#476);
#475 = CARTESIAN_POINT('',(3.207802986469,-5.376351989933,2.4));
#476 = VECTOR('',#477,1.);
#477 = DIRECTION('',(-0.351272531522,0.936273255304,0.));
#478 = ORIENTED_EDGE('',*,*,#479,.F.);
#479 = EDGE_CURVE('',#480,#472,#482,.T.);
#480 = VERTEX_POINT('',#481);
#481 = CARTESIAN_POINT('',(3.207802986469,-5.376351989933,1.5));
#482 = LINE('',#483,#484);
#483 = CARTESIAN_POINT('',(3.207802986469,-5.376351989933,1.5));
#484 = VECTOR('',#485,1.);
#485 = DIRECTION('',(0.,0.,1.));
#486 = ORIENTED_EDGE('',*,*,#487,.T.);
#487 = EDGE_CURVE('',#480,#448,#488,.T.);
#488 = LINE('',#489,#490);
#489 = CARTESIAN_POINT('',(3.207802986469,-5.376351989933,1.5));
#490 = VECTOR('',#491,1.);
#491 = DIRECTION('',(0.351272531522,-0.936273255304,0.));
#492 = ORIENTED_EDGE('',*,*,#447,.T.);
#493 = PLANE('',#494);
#494 = AXIS2_PLACEMENT_3D('',#495,#496,#497);
#495 = CARTESIAN_POINT('',(4.091140338625,-7.73077786733,1.5));
#496 = DIRECTION('',(-0.936273255304,-0.351272531522,0.));
#497 = DIRECTION('',(-0.,0.,-1.));
#498 = ADVANCED_FACE('',(#499),#526,.F.);
#499 = FACE_BOUND('',#500,.F.);
#500 = EDGE_LOOP('',(#501,#502,#511,#519));
#501 = ORIENTED_EDGE('',*,*,#479,.F.);
#502 = ORIENTED_EDGE('',*,*,#503,.F.);
#503 = EDGE_CURVE('',#504,#480,#506,.T.);
#504 = VERTEX_POINT('',#505);
#505 = CARTESIAN_POINT('',(3.315068029663,-2.853710480499,1.5));
#506 = CIRCLE('',#507,3.5);
#507 = AXIS2_PLACEMENT_3D('',#508,#509,#510);
#508 = CARTESIAN_POINT('',(5.327213576291E-16,-3.976351989933,1.5));
#509 = DIRECTION('',(0.,0.,-1.));
#510 = DIRECTION('',(-0.916515138991,0.4,0.));
#511 = ORIENTED_EDGE('',*,*,#512,.T.);
#512 = EDGE_CURVE('',#504,#513,#515,.T.);
#513 = VERTEX_POINT('',#514);
#514 = CARTESIAN_POINT('',(3.315068029663,-2.853710480499,2.4));
#515 = LINE('',#516,#517);
#516 = CARTESIAN_POINT('',(3.315068029663,-2.853710480499,1.5));
#517 = VECTOR('',#518,1.);
#518 = DIRECTION('',(0.,0.,1.));
#519 = ORIENTED_EDGE('',*,*,#520,.F.);
#520 = EDGE_CURVE('',#472,#513,#521,.T.);
#521 = CIRCLE('',#522,3.5);
#522 = AXIS2_PLACEMENT_3D('',#523,#524,#525);
#523 = CARTESIAN_POINT('',(5.327213576291E-16,-3.976351989933,2.4));
#524 = DIRECTION('',(0.,0.,1.));
#525 = DIRECTION('',(-0.916515138991,0.4,0.));
#526 = CYLINDRICAL_SURFACE('',#527,3.5);
#527 = AXIS2_PLACEMENT_3D('',#528,#529,#530);
#528 = CARTESIAN_POINT('',(5.327213576291E-16,-3.976351989933,1.5));
#529 = DIRECTION('',(0.,0.,1.));
#530 = DIRECTION('',(0.916515138991,-0.4,0.));
#531 = ADVANCED_FACE('',(#532),#559,.T.);
#532 = FACE_BOUND('',#533,.T.);
#533 = EDGE_LOOP('',(#534,#543,#551,#558));
#534 = ORIENTED_EDGE('',*,*,#535,.T.);
#535 = EDGE_CURVE('',#513,#536,#538,.T.);
#536 = VERTEX_POINT('',#537);
#537 = CARTESIAN_POINT('',(3.513972111443,-2.576351989933,2.4));
#538 = CIRCLE('',#539,0.21);
#539 = AXIS2_PLACEMENT_3D('',#540,#541,#542);
#540 = CARTESIAN_POINT('',(3.513972111443,-2.786351989933,2.4));
#541 = DIRECTION('',(0.,0.,-1.));
#542 = DIRECTION('',(0.,1.,0.));
#543 = ORIENTED_EDGE('',*,*,#544,.F.);
#544 = EDGE_CURVE('',#545,#536,#547,.T.);
#545 = VERTEX_POINT('',#546);
#546 = CARTESIAN_POINT('',(3.513972111443,-2.576351989933,1.5));
#547 = LINE('',#548,#549);
#548 = CARTESIAN_POINT('',(3.513972111443,-2.576351989933,1.5));
#549 = VECTOR('',#550,1.);
#550 = DIRECTION('',(0.,0.,1.));
#551 = ORIENTED_EDGE('',*,*,#552,.T.);
#552 = EDGE_CURVE('',#545,#504,#553,.T.);
#553 = CIRCLE('',#554,0.21);
#554 = AXIS2_PLACEMENT_3D('',#555,#556,#557);
#555 = CARTESIAN_POINT('',(3.513972111443,-2.786351989933,1.5));
#556 = DIRECTION('',(0.,-0.,1.));
#557 = DIRECTION('',(0.,1.,0.));
#558 = ORIENTED_EDGE('',*,*,#512,.T.);
#559 = CYLINDRICAL_SURFACE('',#560,0.21);
#560 = AXIS2_PLACEMENT_3D('',#561,#562,#563);
#561 = CARTESIAN_POINT('',(3.513972111443,-2.786351989933,1.5));
#562 = DIRECTION('',(0.,0.,1.));
#563 = DIRECTION('',(0.,-1.,0.));
#564 = ADVANCED_FACE('',(#565),#590,.T.);
#565 = FACE_BOUND('',#566,.T.);
#566 = EDGE_LOOP('',(#567,#575,#583,#589));
#567 = ORIENTED_EDGE('',*,*,#568,.T.);
#568 = EDGE_CURVE('',#536,#569,#571,.T.);
#569 = VERTEX_POINT('',#570);
#570 = CARTESIAN_POINT('',(4.2,-2.576351989933,2.4));
#571 = LINE('',#572,#573);
#572 = CARTESIAN_POINT('',(4.2,-2.576351989933,2.4));
#573 = VECTOR('',#574,1.);
#574 = DIRECTION('',(1.,0.,0.));
#575 = ORIENTED_EDGE('',*,*,#576,.F.);
#576 = EDGE_CURVE('',#577,#569,#579,.T.);
#577 = VERTEX_POINT('',#578);
#578 = CARTESIAN_POINT('',(4.2,-2.576351989933,1.5));
#579 = LINE('',#580,#581);
#580 = CARTESIAN_POINT('',(4.2,-2.576351989933,1.5));
#581 = VECTOR('',#582,1.);
#582 = DIRECTION('',(0.,0.,1.));
#583 = ORIENTED_EDGE('',*,*,#584,.T.);
#584 = EDGE_CURVE('',#577,#545,#585,.T.);
#585 = LINE('',#586,#587);
#586 = CARTESIAN_POINT('',(4.2,-2.576351989933,1.5));
#587 = VECTOR('',#588,1.);
#588 = DIRECTION('',(-1.,0.,0.));
#589 = ORIENTED_EDGE('',*,*,#544,.T.);
#590 = PLANE('',#591);
#591 = AXIS2_PLACEMENT_3D('',#592,#593,#594);
#592 = CARTESIAN_POINT('',(3.513972111443,-2.576351989933,1.5));
#593 = DIRECTION('',(0.,1.,0.));
#594 = DIRECTION('',(0.,0.,-1.));
#595 = ADVANCED_FACE('',(#596),#623,.F.);
#596 = FACE_BOUND('',#597,.F.);
#597 = EDGE_LOOP('',(#598,#599,#608,#616));
#598 = ORIENTED_EDGE('',*,*,#576,.F.);
#599 = ORIENTED_EDGE('',*,*,#600,.F.);
#600 = EDGE_CURVE('',#601,#577,#603,.T.);
#601 = VERTEX_POINT('',#602);
#602 = CARTESIAN_POINT('',(4.941176470588,-1.341057872286,1.5));
#603 = CIRCLE('',#604,0.84);
#604 = AXIS2_PLACEMENT_3D('',#605,#606,#607);
#605 = CARTESIAN_POINT('',(4.2,-1.736351989933,1.5));
#606 = DIRECTION('',(0.,0.,-1.));
#607 = DIRECTION('',(0.,1.,0.));
#608 = ORIENTED_EDGE('',*,*,#609,.T.);
#609 = EDGE_CURVE('',#601,#610,#612,.T.);
#610 = VERTEX_POINT('',#611);
#611 = CARTESIAN_POINT('',(4.941176470588,-1.341057872286,2.4));
#612 = LINE('',#613,#614);
#613 = CARTESIAN_POINT('',(4.941176470588,-1.341057872286,1.5));
#614 = VECTOR('',#615,1.);
#615 = DIRECTION('',(0.,0.,1.));
#616 = ORIENTED_EDGE('',*,*,#617,.F.);
#617 = EDGE_CURVE('',#569,#610,#618,.T.);
#618 = CIRCLE('',#619,0.84);
#619 = AXIS2_PLACEMENT_3D('',#620,#621,#622);
#620 = CARTESIAN_POINT('',(4.2,-1.736351989933,2.4));
#621 = DIRECTION('',(0.,-0.,1.));
#622 = DIRECTION('',(0.,1.,0.));
#623 = CYLINDRICAL_SURFACE('',#624,0.84);
#624 = AXIS2_PLACEMENT_3D('',#625,#626,#627);
#625 = CARTESIAN_POINT('',(4.2,-1.736351989933,1.5));
#626 = DIRECTION('',(0.,0.,1.));
#627 = DIRECTION('',(0.,-1.,0.));
#628 = ADVANCED_FACE('',(#629),#656,.F.);
#629 = FACE_BOUND('',#630,.F.);
#630 = EDGE_LOOP('',(#631,#632,#641,#649));
#631 = ORIENTED_EDGE('',*,*,#609,.F.);
#632 = ORIENTED_EDGE('',*,*,#633,.F.);
#633 = EDGE_CURVE('',#634,#601,#636,.T.);
#634 = VERTEX_POINT('',#635);
#635 = CARTESIAN_POINT('',(1.4,1.445824694757,1.5));
#636 = CIRCLE('',#637,5.6);
#637 = AXIS2_PLACEMENT_3D('',#638,#639,#640);
#638 = CARTESIAN_POINT('',(5.327213576291E-16,-3.976351989933,1.5));
#639 = DIRECTION('',(0.,0.,-1.));
#640 = DIRECTION('',(-0.882352941176,-0.470588235294,-0.));
#641 = ORIENTED_EDGE('',*,*,#642,.T.);
#642 = EDGE_CURVE('',#634,#643,#645,.T.);
#643 = VERTEX_POINT('',#644);
#644 = CARTESIAN_POINT('',(1.4,1.445824694757,2.4));
#645 = LINE('',#646,#647);
#646 = CARTESIAN_POINT('',(1.4,1.445824694757,1.5));
#647 = VECTOR('',#648,1.);
#648 = DIRECTION('',(0.,0.,1.));
#649 = ORIENTED_EDGE('',*,*,#650,.F.);
#650 = EDGE_CURVE('',#610,#643,#651,.T.);
#651 = CIRCLE('',#652,5.6);
#652 = AXIS2_PLACEMENT_3D('',#653,#654,#655);
#653 = CARTESIAN_POINT('',(5.327213576291E-16,-3.976351989933,2.4));
#654 = DIRECTION('',(0.,0.,1.));
#655 = DIRECTION('',(-0.882352941176,-0.470588235294,0.));
#656 = CYLINDRICAL_SURFACE('',#657,5.6);
#657 = AXIS2_PLACEMENT_3D('',#658,#659,#660);
#658 = CARTESIAN_POINT('',(5.327213576291E-16,-3.976351989933,1.5));
#659 = DIRECTION('',(0.,0.,1.));
#660 = DIRECTION('',(0.882352941176,0.470588235294,-0.));
#661 = ADVANCED_FACE('',(#662),#689,.F.);
#662 = FACE_BOUND('',#663,.F.);
#663 = EDGE_LOOP('',(#664,#665,#674,#682));
#664 = ORIENTED_EDGE('',*,*,#642,.F.);
#665 = ORIENTED_EDGE('',*,*,#666,.F.);
#666 = EDGE_CURVE('',#667,#634,#669,.T.);
#667 = VERTEX_POINT('',#668);
#668 = CARTESIAN_POINT('',(0.7,0.903607026288,1.5));
#669 = CIRCLE('',#670,0.56);
#670 = AXIS2_PLACEMENT_3D('',#671,#672,#673);
#671 = CARTESIAN_POINT('',(1.26,0.903607026288,1.5));
#672 = DIRECTION('',(0.,0.,-1.));
#673 = DIRECTION('',(-0.25,-0.968245836552,-0.));
#674 = ORIENTED_EDGE('',*,*,#675,.T.);
#675 = EDGE_CURVE('',#667,#676,#678,.T.);
#676 = VERTEX_POINT('',#677);
#677 = CARTESIAN_POINT('',(0.7,0.903607026288,2.4));
#678 = LINE('',#679,#680);
#679 = CARTESIAN_POINT('',(0.7,0.903607026288,1.5));
#680 = VECTOR('',#681,1.);
#681 = DIRECTION('',(0.,0.,1.));
#682 = ORIENTED_EDGE('',*,*,#683,.F.);
#683 = EDGE_CURVE('',#643,#676,#684,.T.);
#684 = CIRCLE('',#685,0.56);
#685 = AXIS2_PLACEMENT_3D('',#686,#687,#688);
#686 = CARTESIAN_POINT('',(1.26,0.903607026288,2.4));
#687 = DIRECTION('',(0.,0.,1.));
#688 = DIRECTION('',(-0.25,-0.968245836552,0.));
#689 = CYLINDRICAL_SURFACE('',#690,0.56);
#690 = AXIS2_PLACEMENT_3D('',#691,#692,#693);
#691 = CARTESIAN_POINT('',(1.26,0.903607026288,1.5));
#692 = DIRECTION('',(0.,0.,1.));
#693 = DIRECTION('',(0.25,0.968245836552,-0.));
#694 = ADVANCED_FACE('',(#695),#720,.T.);
#695 = FACE_BOUND('',#696,.T.);
#696 = EDGE_LOOP('',(#697,#705,#713,#719));
#697 = ORIENTED_EDGE('',*,*,#698,.T.);
#698 = EDGE_CURVE('',#676,#699,#701,.T.);
#699 = VERTEX_POINT('',#700);
#700 = CARTESIAN_POINT('',(0.7,0.223648010067,2.4));
#701 = LINE('',#702,#703);
#702 = CARTESIAN_POINT('',(0.7,0.223648010067,2.4));
#703 = VECTOR('',#704,1.);
#704 = DIRECTION('',(-4.081948316513E-16,-1.,0.));
#705 = ORIENTED_EDGE('',*,*,#706,.F.);
#706 = EDGE_CURVE('',#707,#699,#709,.T.);
#707 = VERTEX_POINT('',#708);
#708 = CARTESIAN_POINT('',(0.7,0.223648010067,1.5));
#709 = LINE('',#710,#711);
#710 = CARTESIAN_POINT('',(0.7,0.223648010067,1.5));
#711 = VECTOR('',#712,1.);
#712 = DIRECTION('',(0.,0.,1.));
#713 = ORIENTED_EDGE('',*,*,#714,.T.);
#714 = EDGE_CURVE('',#707,#667,#715,.T.);
#715 = LINE('',#716,#717);
#716 = CARTESIAN_POINT('',(0.7,0.223648010067,1.5));
#717 = VECTOR('',#718,1.);
#718 = DIRECTION('',(4.081948316513E-16,1.,0.));
#719 = ORIENTED_EDGE('',*,*,#675,.T.);
#720 = PLANE('',#721);
#721 = AXIS2_PLACEMENT_3D('',#722,#723,#724);
#722 = CARTESIAN_POINT('',(0.7,0.903607026288,1.5));
#723 = DIRECTION('',(1.,-4.081948316513E-16,0.));
#724 = DIRECTION('',(0.,0.,1.));
#725 = ADVANCED_FACE('',(#726),#753,.T.);
#726 = FACE_BOUND('',#727,.T.);
#727 = EDGE_LOOP('',(#728,#737,#745,#752));
#728 = ORIENTED_EDGE('',*,*,#729,.T.);
#729 = EDGE_CURVE('',#699,#730,#732,.T.);
#730 = VERTEX_POINT('',#731);
#731 = CARTESIAN_POINT('',(-0.7,0.223648010067,2.4));
#732 = CIRCLE('',#733,0.7);
#733 = AXIS2_PLACEMENT_3D('',#734,#735,#736);
#734 = CARTESIAN_POINT('',(-4.985603031244E-31,0.223648010067,2.4));
#735 = DIRECTION('',(0.,0.,-1.));
#736 = DIRECTION('',(-1.,-3.484935554418E-16,-0.));
#737 = ORIENTED_EDGE('',*,*,#738,.F.);
#738 = EDGE_CURVE('',#739,#730,#741,.T.);
#739 = VERTEX_POINT('',#740);
#740 = CARTESIAN_POINT('',(-0.7,0.223648010067,1.5));
#741 = LINE('',#742,#743);
#742 = CARTESIAN_POINT('',(-0.7,0.223648010067,1.5));
#743 = VECTOR('',#744,1.);
#744 = DIRECTION('',(0.,0.,1.));
#745 = ORIENTED_EDGE('',*,*,#746,.T.);
#746 = EDGE_CURVE('',#739,#707,#747,.T.);
#747 = CIRCLE('',#748,0.7);
#748 = AXIS2_PLACEMENT_3D('',#749,#750,#751);
#749 = CARTESIAN_POINT('',(-4.985603031244E-31,0.223648010067,1.5));
#750 = DIRECTION('',(0.,0.,1.));
#751 = DIRECTION('',(-1.,-3.484935554418E-16,0.));
#752 = ORIENTED_EDGE('',*,*,#706,.T.);
#753 = CYLINDRICAL_SURFACE('',#754,0.7);
#754 = AXIS2_PLACEMENT_3D('',#755,#756,#757);
#755 = CARTESIAN_POINT('',(-4.985603031244E-31,0.223648010067,1.5));
#756 = DIRECTION('',(0.,0.,1.));
#757 = DIRECTION('',(1.,3.484935554418E-16,-0.));
#758 = ADVANCED_FACE('',(#759),#784,.T.);
#759 = FACE_BOUND('',#760,.T.);
#760 = EDGE_LOOP('',(#761,#769,#777,#783));
#761 = ORIENTED_EDGE('',*,*,#762,.T.);
#762 = EDGE_CURVE('',#730,#763,#765,.T.);
#763 = VERTEX_POINT('',#764);
#764 = CARTESIAN_POINT('',(-0.7,0.903607026288,2.4));
#765 = LINE('',#766,#767);
#766 = CARTESIAN_POINT('',(-0.7,0.903607026288,2.4));
#767 = VECTOR('',#768,1.);
#768 = DIRECTION('',(-4.081948316513E-16,1.,0.));
#769 = ORIENTED_EDGE('',*,*,#770,.F.);
#770 = EDGE_CURVE('',#771,#763,#773,.T.);
#771 = VERTEX_POINT('',#772);
#772 = CARTESIAN_POINT('',(-0.7,0.903607026288,1.5));
#773 = LINE('',#774,#775);
#774 = CARTESIAN_POINT('',(-0.7,0.903607026288,1.5));
#775 = VECTOR('',#776,1.);
#776 = DIRECTION('',(0.,0.,1.));
#777 = ORIENTED_EDGE('',*,*,#778,.T.);
#778 = EDGE_CURVE('',#771,#739,#779,.T.);
#779 = LINE('',#780,#781);
#780 = CARTESIAN_POINT('',(-0.7,0.903607026288,1.5));
#781 = VECTOR('',#782,1.);
#782 = DIRECTION('',(4.081948316513E-16,-1.,0.));
#783 = ORIENTED_EDGE('',*,*,#738,.T.);
#784 = PLANE('',#785);
#785 = AXIS2_PLACEMENT_3D('',#786,#787,#788);
#786 = CARTESIAN_POINT('',(-0.7,0.223648010067,1.5));
#787 = DIRECTION('',(-1.,-4.081948316513E-16,0.));
#788 = DIRECTION('',(-0.,0.,-1.));
#789 = ADVANCED_FACE('',(#790),#817,.F.);
#790 = FACE_BOUND('',#791,.F.);
#791 = EDGE_LOOP('',(#792,#793,#802,#810));
#792 = ORIENTED_EDGE('',*,*,#770,.F.);
#793 = ORIENTED_EDGE('',*,*,#794,.F.);
#794 = EDGE_CURVE('',#795,#771,#797,.T.);
#795 = VERTEX_POINT('',#796);
#796 = CARTESIAN_POINT('',(-1.4,1.445824694757,1.5));
#797 = CIRCLE('',#798,0.56);
#798 = AXIS2_PLACEMENT_3D('',#799,#800,#801);
#799 = CARTESIAN_POINT('',(-1.26,0.903607026288,1.5));
#800 = DIRECTION('',(0.,0.,-1.));
#801 = DIRECTION('',(-1.,-1.93607530801E-16,-0.));
#802 = ORIENTED_EDGE('',*,*,#803,.T.);
#803 = EDGE_CURVE('',#795,#804,#806,.T.);
#804 = VERTEX_POINT('',#805);
#805 = CARTESIAN_POINT('',(-1.4,1.445824694757,2.4));
#806 = LINE('',#807,#808);
#807 = CARTESIAN_POINT('',(-1.4,1.445824694757,1.5));
#808 = VECTOR('',#809,1.);
#809 = DIRECTION('',(0.,0.,1.));
#810 = ORIENTED_EDGE('',*,*,#811,.F.);
#811 = EDGE_CURVE('',#763,#804,#812,.T.);
#812 = CIRCLE('',#813,0.56);
#813 = AXIS2_PLACEMENT_3D('',#814,#815,#816);
#814 = CARTESIAN_POINT('',(-1.26,0.903607026288,2.4));
#815 = DIRECTION('',(0.,0.,1.));
#816 = DIRECTION('',(-1.,-1.93607530801E-16,0.));
#817 = CYLINDRICAL_SURFACE('',#818,0.56);
#818 = AXIS2_PLACEMENT_3D('',#819,#820,#821);
#819 = CARTESIAN_POINT('',(-1.26,0.903607026288,1.5));
#820 = DIRECTION('',(0.,0.,1.));
#821 = DIRECTION('',(1.,1.93607530801E-16,-0.));
#822 = ADVANCED_FACE('',(#823),#850,.F.);
#823 = FACE_BOUND('',#824,.F.);
#824 = EDGE_LOOP('',(#825,#826,#835,#843));
#825 = ORIENTED_EDGE('',*,*,#803,.F.);
#826 = ORIENTED_EDGE('',*,*,#827,.F.);
#827 = EDGE_CURVE('',#828,#795,#830,.T.);
#828 = VERTEX_POINT('',#829);
#829 = CARTESIAN_POINT('',(-4.941176470588,-1.341057872286,1.5));
#830 = CIRCLE('',#831,5.6);
#831 = AXIS2_PLACEMENT_3D('',#832,#833,#834);
#832 = CARTESIAN_POINT('',(5.327213576291E-16,-3.976351989933,1.5));
#833 = DIRECTION('',(0.,0.,-1.));
#834 = DIRECTION('',(0.25,-0.968245836552,0.));
#835 = ORIENTED_EDGE('',*,*,#836,.T.);
#836 = EDGE_CURVE('',#828,#837,#839,.T.);
#837 = VERTEX_POINT('',#838);
#838 = CARTESIAN_POINT('',(-4.941176470588,-1.341057872286,2.4));
#839 = LINE('',#840,#841);
#840 = CARTESIAN_POINT('',(-4.941176470588,-1.341057872286,1.5));
#841 = VECTOR('',#842,1.);
#842 = DIRECTION('',(0.,0.,1.));
#843 = ORIENTED_EDGE('',*,*,#844,.F.);
#844 = EDGE_CURVE('',#804,#837,#845,.T.);
#845 = CIRCLE('',#846,5.6);
#846 = AXIS2_PLACEMENT_3D('',#847,#848,#849);
#847 = CARTESIAN_POINT('',(5.327213576291E-16,-3.976351989933,2.4));
#848 = DIRECTION('',(0.,0.,1.));
#849 = DIRECTION('',(0.25,-0.968245836552,0.));
#850 = CYLINDRICAL_SURFACE('',#851,5.6);
#851 = AXIS2_PLACEMENT_3D('',#852,#853,#854);
#852 = CARTESIAN_POINT('',(5.327213576291E-16,-3.976351989933,1.5));
#853 = DIRECTION('',(0.,0.,1.));
#854 = DIRECTION('',(-0.25,0.968245836552,0.));
#855 = ADVANCED_FACE('',(#856),#883,.F.);
#856 = FACE_BOUND('',#857,.F.);
#857 = EDGE_LOOP('',(#858,#859,#868,#876));
#858 = ORIENTED_EDGE('',*,*,#836,.F.);
#859 = ORIENTED_EDGE('',*,*,#860,.F.);
#860 = EDGE_CURVE('',#861,#828,#863,.T.);
#861 = VERTEX_POINT('',#862);
#862 = CARTESIAN_POINT('',(-4.2,-2.576351989933,1.5));
#863 = CIRCLE('',#864,0.84);
#864 = AXIS2_PLACEMENT_3D('',#865,#866,#867);
#865 = CARTESIAN_POINT('',(-4.2,-1.736351989933,1.5));
#866 = DIRECTION('',(0.,0.,-1.));
#867 = DIRECTION('',(0.882352941176,-0.470588235294,0.));
#868 = ORIENTED_EDGE('',*,*,#869,.T.);
#869 = EDGE_CURVE('',#861,#870,#872,.T.);
#870 = VERTEX_POINT('',#871);
#871 = CARTESIAN_POINT('',(-4.2,-2.576351989933,2.4));
#872 = LINE('',#873,#874);
#873 = CARTESIAN_POINT('',(-4.2,-2.576351989933,1.5));
#874 = VECTOR('',#875,1.);
#875 = DIRECTION('',(0.,0.,1.));
#876 = ORIENTED_EDGE('',*,*,#877,.F.);
#877 = EDGE_CURVE('',#837,#870,#878,.T.);
#878 = CIRCLE('',#879,0.84);
#879 = AXIS2_PLACEMENT_3D('',#880,#881,#882);
#880 = CARTESIAN_POINT('',(-4.2,-1.736351989933,2.4));
#881 = DIRECTION('',(0.,0.,1.));
#882 = DIRECTION('',(0.882352941176,-0.470588235294,0.));
#883 = CYLINDRICAL_SURFACE('',#884,0.84);
#884 = AXIS2_PLACEMENT_3D('',#885,#886,#887);
#885 = CARTESIAN_POINT('',(-4.2,-1.736351989933,1.5));
#886 = DIRECTION('',(0.,0.,1.));
#887 = DIRECTION('',(-0.882352941176,0.470588235294,0.));
#888 = ADVANCED_FACE('',(#889),#914,.T.);
#889 = FACE_BOUND('',#890,.T.);
#890 = EDGE_LOOP('',(#891,#899,#907,#913));
#891 = ORIENTED_EDGE('',*,*,#892,.T.);
#892 = EDGE_CURVE('',#870,#893,#895,.T.);
#893 = VERTEX_POINT('',#894);
#894 = CARTESIAN_POINT('',(-3.513972111443,-2.576351989933,2.4));
#895 = LINE('',#896,#897);
#896 = CARTESIAN_POINT('',(-3.513972111443,-2.576351989933,2.4));
#897 = VECTOR('',#898,1.);
#898 = DIRECTION('',(1.,0.,0.));
#899 = ORIENTED_EDGE('',*,*,#900,.F.);
#900 = EDGE_CURVE('',#901,#893,#903,.T.);
#901 = VERTEX_POINT('',#902);
#902 = CARTESIAN_POINT('',(-3.513972111443,-2.576351989933,1.5));
#903 = LINE('',#904,#905);
#904 = CARTESIAN_POINT('',(-3.513972111443,-2.576351989933,1.5));
#905 = VECTOR('',#906,1.);
#906 = DIRECTION('',(0.,0.,1.));
#907 = ORIENTED_EDGE('',*,*,#908,.T.);
#908 = EDGE_CURVE('',#901,#861,#909,.T.);
#909 = LINE('',#910,#911);
#910 = CARTESIAN_POINT('',(-3.513972111443,-2.576351989933,1.5));
#911 = VECTOR('',#912,1.);
#912 = DIRECTION('',(-1.,0.,0.));
#913 = ORIENTED_EDGE('',*,*,#869,.T.);
#914 = PLANE('',#915);
#915 = AXIS2_PLACEMENT_3D('',#916,#917,#918);
#916 = CARTESIAN_POINT('',(-4.2,-2.576351989933,1.5));
#917 = DIRECTION('',(0.,1.,0.));
#918 = DIRECTION('',(0.,0.,-1.));
#919 = ADVANCED_FACE('',(#920),#947,.T.);
#920 = FACE_BOUND('',#921,.T.);
#921 = EDGE_LOOP('',(#922,#931,#939,#946));
#922 = ORIENTED_EDGE('',*,*,#923,.T.);
#923 = EDGE_CURVE('',#893,#924,#926,.T.);
#924 = VERTEX_POINT('',#925);
#925 = CARTESIAN_POINT('',(-3.315068029663,-2.853710480499,2.4));
#926 = CIRCLE('',#927,0.21);
#927 = AXIS2_PLACEMENT_3D('',#928,#929,#930);
#928 = CARTESIAN_POINT('',(-3.513972111443,-2.786351989933,2.4));
#929 = DIRECTION('',(0.,0.,-1.));
#930 = DIRECTION('',(0.94716229419,-0.320754716981,0.));
#931 = ORIENTED_EDGE('',*,*,#932,.F.);
#932 = EDGE_CURVE('',#933,#924,#935,.T.);
#933 = VERTEX_POINT('',#934);
#934 = CARTESIAN_POINT('',(-3.315068029663,-2.853710480499,1.5));
#935 = LINE('',#936,#937);
#936 = CARTESIAN_POINT('',(-3.315068029663,-2.853710480499,1.5));
#937 = VECTOR('',#938,1.);
#938 = DIRECTION('',(0.,0.,1.));
#939 = ORIENTED_EDGE('',*,*,#940,.T.);
#940 = EDGE_CURVE('',#933,#901,#941,.T.);
#941 = CIRCLE('',#942,0.21);
#942 = AXIS2_PLACEMENT_3D('',#943,#944,#945);
#943 = CARTESIAN_POINT('',(-3.513972111443,-2.786351989933,1.5));
#944 = DIRECTION('',(0.,0.,1.));
#945 = DIRECTION('',(0.94716229419,-0.320754716981,0.));
#946 = ORIENTED_EDGE('',*,*,#900,.T.);
#947 = CYLINDRICAL_SURFACE('',#948,0.21);
#948 = AXIS2_PLACEMENT_3D('',#949,#950,#951);
#949 = CARTESIAN_POINT('',(-3.513972111443,-2.786351989933,1.5));
#950 = DIRECTION('',(0.,0.,1.));
#951 = DIRECTION('',(-0.94716229419,0.320754716981,0.));
#952 = ADVANCED_FACE('',(#953),#980,.F.);
#953 = FACE_BOUND('',#954,.F.);
#954 = EDGE_LOOP('',(#955,#956,#965,#973));
#955 = ORIENTED_EDGE('',*,*,#932,.F.);
#956 = ORIENTED_EDGE('',*,*,#957,.F.);
#957 = EDGE_CURVE('',#958,#933,#960,.T.);
#958 = VERTEX_POINT('',#959);
#959 = CARTESIAN_POINT('',(-3.207802986469,-5.376351989933,1.5));
#960 = CIRCLE('',#961,3.5);
#961 = AXIS2_PLACEMENT_3D('',#962,#963,#964);
#962 = CARTESIAN_POINT('',(5.327213576291E-16,-3.976351989933,1.5));
#963 = DIRECTION('',(0.,0.,-1.));
#964 = DIRECTION('',(0.94716229419,-0.320754716981,0.));
#965 = ORIENTED_EDGE('',*,*,#966,.T.);
#966 = EDGE_CURVE('',#958,#967,#969,.T.);
#967 = VERTEX_POINT('',#968);
#968 = CARTESIAN_POINT('',(-3.207802986469,-5.376351989933,2.4));
#969 = LINE('',#970,#971);
#970 = CARTESIAN_POINT('',(-3.207802986469,-5.376351989933,1.5));
#971 = VECTOR('',#972,1.);
#972 = DIRECTION('',(0.,0.,1.));
#973 = ORIENTED_EDGE('',*,*,#974,.F.);
#974 = EDGE_CURVE('',#924,#967,#975,.T.);
#975 = CIRCLE('',#976,3.5);
#976 = AXIS2_PLACEMENT_3D('',#977,#978,#979);
#977 = CARTESIAN_POINT('',(5.327213576291E-16,-3.976351989933,2.4));
#978 = DIRECTION('',(0.,0.,1.));
#979 = DIRECTION('',(0.94716229419,-0.320754716981,0.));
#980 = CYLINDRICAL_SURFACE('',#981,3.5);
#981 = AXIS2_PLACEMENT_3D('',#982,#983,#984);
#982 = CARTESIAN_POINT('',(5.327213576291E-16,-3.976351989933,1.5));
#983 = DIRECTION('',(0.,0.,1.));
#984 = DIRECTION('',(-0.94716229419,0.320754716981,0.));
#985 = ADVANCED_FACE('',(#986),#1011,.T.);
#986 = FACE_BOUND('',#987,.T.);
#987 = EDGE_LOOP('',(#988,#996,#1004,#1010));
#988 = ORIENTED_EDGE('',*,*,#989,.T.);
#989 = EDGE_CURVE('',#967,#990,#992,.T.);
#990 = VERTEX_POINT('',#991);
#991 = CARTESIAN_POINT('',(-4.091140338625,-7.73077786733,2.4));
#992 = LINE('',#993,#994);
#993 = CARTESIAN_POINT('',(-4.091140338625,-7.73077786733,2.4));
#994 = VECTOR('',#995,1.);
#995 = DIRECTION('',(-0.351272531522,-0.936273255304,0.));
#996 = ORIENTED_EDGE('',*,*,#997,.F.);
#997 = EDGE_CURVE('',#998,#990,#1000,.T.);
#998 = VERTEX_POINT('',#999);
#999 = CARTESIAN_POINT('',(-4.091140338625,-7.73077786733,1.5));
#1000 = LINE('',#1001,#1002);
#1001 = CARTESIAN_POINT('',(-4.091140338625,-7.73077786733,1.5));
#1002 = VECTOR('',#1003,1.);
#1003 = DIRECTION('',(0.,0.,1.));
#1004 = ORIENTED_EDGE('',*,*,#1005,.T.);
#1005 = EDGE_CURVE('',#998,#958,#1006,.T.);
#1006 = LINE('',#1007,#1008);
#1007 = CARTESIAN_POINT('',(-4.091140338625,-7.73077786733,1.5));
#1008 = VECTOR('',#1009,1.);
#1009 = DIRECTION('',(0.351272531522,0.936273255304,0.));
#1010 = ORIENTED_EDGE('',*,*,#966,.T.);
#1011 = PLANE('',#1012);
#1012 = AXIS2_PLACEMENT_3D('',#1013,#1014,#1015);
#1013 = CARTESIAN_POINT('',(-3.207802986469,-5.376351989933,1.5));
#1014 = DIRECTION('',(0.936273255304,-0.351272531522,0.));
#1015 = DIRECTION('',(0.,0.,1.));
#1016 = ADVANCED_FACE('',(#1017),#1035,.T.);
#1017 = FACE_BOUND('',#1018,.T.);
#1018 = EDGE_LOOP('',(#1019,#1026,#1027,#1034));
#1019 = ORIENTED_EDGE('',*,*,#1020,.T.);
#1020 = EDGE_CURVE('',#990,#397,#1021,.T.);
#1021 = CIRCLE('',#1022,1.05);
#1022 = AXIS2_PLACEMENT_3D('',#1023,#1024,#1025);
#1023 = CARTESIAN_POINT('',(-5.074227256694,-7.361941709231,2.4));
#1024 = DIRECTION('',(0.,0.,-1.));
#1025 = DIRECTION('',(-0.831840533884,-0.555014708082,-0.));
#1026 = ORIENTED_EDGE('',*,*,#424,.F.);
#1027 = ORIENTED_EDGE('',*,*,#1028,.T.);
#1028 = EDGE_CURVE('',#416,#998,#1029,.T.);
#1029 = CIRCLE('',#1030,1.05);
#1030 = AXIS2_PLACEMENT_3D('',#1031,#1032,#1033);
#1031 = CARTESIAN_POINT('',(-5.074227256694,-7.361941709231,1.5));
#1032 = DIRECTION('',(0.,0.,1.));
#1033 = DIRECTION('',(-0.831840533884,-0.555014708082,0.));
#1034 = ORIENTED_EDGE('',*,*,#997,.T.);
#1035 = CYLINDRICAL_SURFACE('',#1036,1.05);
#1036 = AXIS2_PLACEMENT_3D('',#1037,#1038,#1039);
#1037 = CARTESIAN_POINT('',(-5.074227256694,-7.361941709231,1.5));
#1038 = DIRECTION('',(0.,0.,1.));
#1039 = DIRECTION('',(0.831840533884,0.555014708082,-0.));
#1040 = ADVANCED_FACE('',(#1041),#1063,.F.);
#1041 = FACE_BOUND('',#1042,.T.);
#1042 = EDGE_LOOP('',(#1043,#1044,#1045,#1046,#1047,#1048,#1049,#1050,
    #1051,#1052,#1053,#1054,#1055,#1056,#1057,#1058,#1059,#1060,#1061,
    #1062));
#1043 = ORIENTED_EDGE('',*,*,#415,.F.);
#1044 = ORIENTED_EDGE('',*,*,#455,.F.);
#1045 = ORIENTED_EDGE('',*,*,#487,.F.);
#1046 = ORIENTED_EDGE('',*,*,#503,.F.);
#1047 = ORIENTED_EDGE('',*,*,#552,.F.);
#1048 = ORIENTED_EDGE('',*,*,#584,.F.);
#1049 = ORIENTED_EDGE('',*,*,#600,.F.);
#1050 = ORIENTED_EDGE('',*,*,#633,.F.);
#1051 = ORIENTED_EDGE('',*,*,#666,.F.);
#1052 = ORIENTED_EDGE('',*,*,#714,.F.);
#1053 = ORIENTED_EDGE('',*,*,#746,.F.);
#1054 = ORIENTED_EDGE('',*,*,#778,.F.);
#1055 = ORIENTED_EDGE('',*,*,#794,.F.);
#1056 = ORIENTED_EDGE('',*,*,#827,.F.);
#1057 = ORIENTED_EDGE('',*,*,#860,.F.);
#1058 = ORIENTED_EDGE('',*,*,#908,.F.);
#1059 = ORIENTED_EDGE('',*,*,#940,.F.);
#1060 = ORIENTED_EDGE('',*,*,#957,.F.);
#1061 = ORIENTED_EDGE('',*,*,#1005,.F.);
#1062 = ORIENTED_EDGE('',*,*,#1028,.F.);
#1063 = PLANE('',#1064);
#1064 = AXIS2_PLACEMENT_3D('',#1065,#1066,#1067);
#1065 = CARTESIAN_POINT('',(4.51028103754E-16,-2.124601762821,1.5));
#1066 = DIRECTION('',(0.,0.,1.));
#1067 = DIRECTION('',(-1.,0.,0.));
#1068 = ADVANCED_FACE('',(#1069),#1091,.T.);
#1069 = FACE_BOUND('',#1070,.T.);
#1070 = EDGE_LOOP('',(#1071,#1072,#1073,#1074,#1075,#1076,#1077,#1078,
    #1079,#1080,#1081,#1082,#1083,#1084,#1085,#1086,#1087,#1088,#1089,
    #1090));
#1071 = ORIENTED_EDGE('',*,*,#396,.F.);
#1072 = ORIENTED_EDGE('',*,*,#1020,.F.);
#1073 = ORIENTED_EDGE('',*,*,#989,.F.);
#1074 = ORIENTED_EDGE('',*,*,#974,.F.);
#1075 = ORIENTED_EDGE('',*,*,#923,.F.);
#1076 = ORIENTED_EDGE('',*,*,#892,.F.);
#1077 = ORIENTED_EDGE('',*,*,#877,.F.);
#1078 = ORIENTED_EDGE('',*,*,#844,.F.);
#1079 = ORIENTED_EDGE('',*,*,#811,.F.);
#1080 = ORIENTED_EDGE('',*,*,#762,.F.);
#1081 = ORIENTED_EDGE('',*,*,#729,.F.);
#1082 = ORIENTED_EDGE('',*,*,#698,.F.);
#1083 = ORIENTED_EDGE('',*,*,#683,.F.);
#1084 = ORIENTED_EDGE('',*,*,#650,.F.);
#1085 = ORIENTED_EDGE('',*,*,#617,.F.);
#1086 = ORIENTED_EDGE('',*,*,#568,.F.);
#1087 = ORIENTED_EDGE('',*,*,#535,.F.);
#1088 = ORIENTED_EDGE('',*,*,#520,.F.);
#1089 = ORIENTED_EDGE('',*,*,#471,.F.);
#1090 = ORIENTED_EDGE('',*,*,#438,.F.);
#1091 = PLANE('',#1092);
#1092 = AXIS2_PLACEMENT_3D('',#1093,#1094,#1095);
#1093 = CARTESIAN_POINT('',(4.163336342344E-16,-2.124601762821,2.4));
#1094 = DIRECTION('',(0.,0.,1.));
#1095 = DIRECTION('',(-1.,0.,0.));
#1096 = ( GEOMETRIC_REPRESENTATION_CONTEXT(3) 
GLOBAL_UNCERTAINTY_ASSIGNED_CONTEXT((#1100)) 
GLOBAL_UNIT_ASSIGNED_CONTEXT((#1097,#1098,#1099)) REPRESENTATION_CONTEXT
('Context #1','3D Context with UNIT and UNCERTAINTY') );
#1097 = ( LENGTH_UNIT() NAMED_UNIT(*) SI_UNIT(.MILLI.,.METRE.) );
#1098 = ( NAMED_UNIT(*) PLANE_ANGLE_UNIT() SI_UNIT($,.RADIAN.) );
#1099 = ( NAMED_UNIT(*) SI_UNIT($,.STERADIAN.) SOLID_ANGLE_UNIT() );
#1100 = UNCERTAINTY_MEASURE_WITH_UNIT(LENGTH_MEASURE(1.E-07),#1097,
  'distance_accuracy_value','confusion accuracy');
#1101 = CONTEXT_DEPENDENT_SHAPE_REPRESENTATION(#1102,#1104);
#1102 = ( REPRESENTATION_RELATIONSHIP('','',#389,#358) 
REPRESENTATION_RELATIONSHIP_WITH_TRANSFORMATION(#1103) 
SHAPE_REPRESENTATION_RELATIONSHIP() );
#1103 = ITEM_DEFINED_TRANSFORMATION('','',#11,#359);
#1104 = PRODUCT_DEFINITION_SHAPE('Placement','Placement of an item',
  #1105);
#1105 = NEXT_ASSEMBLY_USAGE_OCCURRENCE('2','Clip','',#353,#384,$);
#1106 = PRODUCT_RELATED_PRODUCT_CATEGORY('part',$,(#386));
#1107 = CONTEXT_DEPENDENT_SHAPE_REPRESENTATION(#1108,#1110);
#1108 = ( REPRESENTATION_RELATIONSHIP('','',#36,#358) 
REPRESENTATION_RELATIONSHIP_WITH_TRANSFORMATION(#1109) 
SHAPE_REPRESENTATION_RELATIONSHIP() );
#1109 = ITEM_DEFINED_TRANSFORMATION('','',#11,#363);
#1110 = PRODUCT_DEFINITION_SHAPE('Placement','Placement of an item',
  #1111);
#1111 = NEXT_ASSEMBLY_USAGE_OCCURRENCE('3','Stud','',#353,#31,$);
#1112 = SHAPE_DEFINITION_REPRESENTATION(#1113,#1119);
#1113 = PRODUCT_DEFINITION_SHAPE('','',#1114);
#1114 = PRODUCT_DEFINITION('design','',#1115,#1118);
#1115 = PRODUCT_DEFINITION_FORMATION('','',#1116);
#1116 = PRODUCT('Bracket','Bracket','',(#1117));
#1117 = PRODUCT_CONTEXT('',#2,'mechanical');
#1118 = PRODUCT_DEFINITION_CONTEXT('part definition',#2,'design');
#1119 = ADVANCED_BREP_SHAPE_REPRESENTATION('',(#11,#1120),#1731);
#1120 = MANIFOLD_SOLID_BREP('',#1121);
#1121 = CLOSED_SHELL('',(#1122,#1230,#1263,#1296,#1329,#1362,#1395,#1494
    ,#1527,#1549,#1574,#1604,#1624,#1644,#1661,#1678,#1695,#1707,#1719)
  );
#1122 = ADVANCED_FACE('',(#1123),#1225,.T.);
#1123 = FACE_BOUND('',#1124,.T.);
#1124 = EDGE_LOOP('',(#1125,#1135,#1144,#1152,#1161,#1169,#1177,#1185,
    #1194,#1202,#1211,#1219));
#1125 = ORIENTED_EDGE('',*,*,#1126,.T.);
#1126 = EDGE_CURVE('',#1127,#1129,#1131,.T.);
#1127 = VERTEX_POINT('',#1128);
#1128 = CARTESIAN_POINT('',(-0.5,7.849598988165,43.195465739151));
#1129 = VERTEX_POINT('',#1130);
#1130 = CARTESIAN_POINT('',(-0.5,20.71530463376,26.894733192202));
#1131 = LINE('',#1132,#1133);
#1132 = CARTESIAN_POINT('',(-0.5,19.003231837056,29.063913921868));
#1133 = VECTOR('',#1134,1.);
#1134 = DIRECTION('',(1.409700847328E-31,0.619546573915,-0.784959898817)
  );
#1135 = ORIENTED_EDGE('',*,*,#1136,.T.);
#1136 = EDGE_CURVE('',#1129,#1137,#1139,.T.);
#1137 = VERTEX_POINT('',#1138);
#1138 = CARTESIAN_POINT('',(-0.260912525629,21.165519681919,
    26.324314803129));
#1139 = ELLIPSE('',#1140,1.019160343358,0.8);
#1140 = AXIS2_PLACEMENT_3D('',#1141,#1142,#1143);
#1141 = CARTESIAN_POINT('',(0.3,20.71530463376,26.894733192202));
#1142 = DIRECTION('',(1.725633230171E-31,-0.784959898817,-0.619546573915
    ));
#1143 = DIRECTION('',(3.00418230745E-16,0.619546573915,-0.784959898817)
  );
#1144 = ORIENTED_EDGE('',*,*,#1145,.T.);
#1145 = EDGE_CURVE('',#1137,#1146,#1148,.T.);
#1146 = VERTEX_POINT('',#1147);
#1147 = CARTESIAN_POINT('',(0.364334496738,21.650785545677,
    25.709487348096));
#1148 = LINE('',#1149,#1150);
#1149 = CARTESIAN_POINT('',(-4.390443513806,17.960513739934,
    30.385028308537));
#1150 = VECTOR('',#1151,1.);
#1151 = DIRECTION('',(0.623866809859,0.484194655114,-0.613470243382));
#1152 = ORIENTED_EDGE('',*,*,#1153,.T.);
#1153 = EDGE_CURVE('',#1146,#1154,#1156,.T.);
#1154 = VERTEX_POINT('',#1155);
#1155 = CARTESIAN_POINT('',(1.5,23.789307024431,23.));
#1156 = ELLIPSE('',#1157,4.84101163095,3.8);
#1157 = AXIS2_PLACEMENT_3D('',#1158,#1159,#1160);
#1158 = CARTESIAN_POINT('',(-2.3,23.789307024431,23.));
#1159 = DIRECTION('',(-1.233873394796E-31,0.784959898817,0.619546573915)
  );
#1160 = DIRECTION('',(-1.53856296415E-31,-0.619546573915,0.784959898817)
  );
#1161 = ORIENTED_EDGE('',*,*,#1162,.T.);
#1162 = EDGE_CURVE('',#1154,#1163,#1165,.T.);
#1163 = VERTEX_POINT('',#1164);
#1164 = CARTESIAN_POINT('',(1.5,32.994719291716,11.336826017406));
#1165 = LINE('',#1166,#1167);
#1166 = CARTESIAN_POINT('',(1.5,26.674917469023,19.343957697486));
#1167 = VECTOR('',#1168,1.);
#1168 = DIRECTION('',(1.53856296415E-31,0.619546573915,-0.784959898817)
  );
#1169 = ORIENTED_EDGE('',*,*,#1170,.F.);
#1170 = EDGE_CURVE('',#1171,#1163,#1173,.T.);
#1171 = VERTEX_POINT('',#1172);
#1172 = CARTESIAN_POINT('',(-1.5,32.994719291716,11.336826017406));
#1173 = LINE('',#1174,#1175);
#1174 = CARTESIAN_POINT('',(-1.5,32.994719291716,11.336826017406));
#1175 = VECTOR('',#1176,1.);
#1176 = DIRECTION('',(1.,1.532972193945E-33,1.972152263053E-31));
#1177 = ORIENTED_EDGE('',*,*,#1178,.T.);
#1178 = EDGE_CURVE('',#1171,#1179,#1181,.T.);
#1179 = VERTEX_POINT('',#1180);
#1180 = CARTESIAN_POINT('',(-1.5,23.789307024431,23.));
#1181 = LINE('',#1182,#1183);
#1182 = CARTESIAN_POINT('',(-1.5,26.674917469023,19.343957697486));
#1183 = VECTOR('',#1184,1.);
#1184 = DIRECTION('',(-1.53856296415E-31,-0.619546573915,0.784959898817)
  );
#1185 = ORIENTED_EDGE('',*,*,#1186,.T.);
#1186 = EDGE_CURVE('',#1179,#1187,#1189,.T.);
#1187 = VERTEX_POINT('',#1188);
#1188 = CARTESIAN_POINT('',(-1.739087474371,23.339091976272,
    23.570418389073));
#1189 = ELLIPSE('',#1190,1.019160343358,0.8);
#1190 = AXIS2_PLACEMENT_3D('',#1191,#1192,#1193);
#1191 = CARTESIAN_POINT('',(-2.3,23.789307024431,23.));
#1192 = DIRECTION('',(1.233873394796E-31,-0.784959898817,-0.619546573915
    ));
#1193 = DIRECTION('',(-1.53856296415E-31,-0.619546573915,0.784959898817)
  );
#1194 = ORIENTED_EDGE('',*,*,#1195,.T.);
#1195 = EDGE_CURVE('',#1187,#1196,#1198,.T.);
#1196 = VERTEX_POINT('',#1197);
#1197 = CARTESIAN_POINT('',(-2.364334496738,22.853826112514,
    24.185245844106));
#1198 = LINE('',#1199,#1200);
#1199 = CARTESIAN_POINT('',(3.770899685775,27.615495674194,
    18.152253628986));
#1200 = VECTOR('',#1201,1.);
#1201 = DIRECTION('',(-0.623866809859,-0.484194655114,0.613470243382));
#1202 = ORIENTED_EDGE('',*,*,#1203,.T.);
#1203 = EDGE_CURVE('',#1196,#1204,#1206,.T.);
#1204 = VERTEX_POINT('',#1205);
#1205 = CARTESIAN_POINT('',(-3.5,20.71530463376,26.894733192202));
#1206 = ELLIPSE('',#1207,4.84101163095,3.8);
#1207 = AXIS2_PLACEMENT_3D('',#1208,#1209,#1210);
#1208 = CARTESIAN_POINT('',(0.3,20.71530463376,26.894733192202));
#1209 = DIRECTION('',(-1.725633230171E-31,0.784959898817,0.619546573915)
  );
#1210 = DIRECTION('',(3.00418230745E-16,0.619546573915,-0.784959898817)
  );
#1211 = ORIENTED_EDGE('',*,*,#1212,.T.);
#1212 = EDGE_CURVE('',#1204,#1213,#1215,.T.);
#1213 = VERTEX_POINT('',#1214);
#1214 = CARTESIAN_POINT('',(-3.5,7.849598988165,43.195465739151));
#1215 = LINE('',#1216,#1217);
#1216 = CARTESIAN_POINT('',(-3.5,19.003231837056,29.063913921868));
#1217 = VECTOR('',#1218,1.);
#1218 = DIRECTION('',(-1.407864184292E-31,-0.619546573915,0.784959898817
    ));
#1219 = ORIENTED_EDGE('',*,*,#1220,.T.);
#1220 = EDGE_CURVE('',#1213,#1127,#1221,.T.);
#1221 = LINE('',#1222,#1223);
#1222 = CARTESIAN_POINT('',(-1.5,7.849598988165,43.195465739151));
#1223 = VECTOR('',#1224,1.);
#1224 = DIRECTION('',(1.,1.532972193945E-33,1.972152263053E-31));
#1225 = PLANE('',#1226);
#1226 = AXIS2_PLACEMENT_3D('',#1227,#1228,#1229);
#1227 = CARTESIAN_POINT('',(-1.5,32.994719291716,11.336826017406));
#1228 = DIRECTION('',(-1.233873394796E-31,0.784959898817,0.619546573915)
  );
#1229 = DIRECTION('',(-1.,-1.53297219397E-33,-1.972152263053E-31));
#1230 = ADVANCED_FACE('',(#1231),#1258,.T.);
#1231 = FACE_BOUND('',#1232,.T.);
#1232 = EDGE_LOOP('',(#1233,#1242,#1250,#1257));
#1233 = ORIENTED_EDGE('',*,*,#1234,.T.);
#1234 = EDGE_CURVE('',#1163,#1235,#1237,.T.);
#1235 = VERTEX_POINT('',#1236);
#1236 = CARTESIAN_POINT('',(1.5,27.5,4.440892098501E-15));
#1237 = CIRCLE('',#1238,7.);
#1238 = AXIS2_PLACEMENT_3D('',#1239,#1240,#1241);
#1239 = CARTESIAN_POINT('',(1.5,27.5,7.));
#1240 = DIRECTION('',(-1.,-1.532972193945E-33,-1.972152263053E-31));
#1241 = DIRECTION('',(1.972152263053E-31,-1.511627290743E-64,-1.));
#1242 = ORIENTED_EDGE('',*,*,#1243,.T.);
#1243 = EDGE_CURVE('',#1235,#1244,#1246,.T.);
#1244 = VERTEX_POINT('',#1245);
#1245 = CARTESIAN_POINT('',(-1.5,27.5,4.440892098501E-15));
#1246 = LINE('',#1247,#1248);
#1247 = CARTESIAN_POINT('',(-1.5,27.5,4.440892098501E-15));
#1248 = VECTOR('',#1249,1.);
#1249 = DIRECTION('',(-1.,-1.532972193945E-33,-1.972152263053E-31));
#1250 = ORIENTED_EDGE('',*,*,#1251,.T.);
#1251 = EDGE_CURVE('',#1244,#1171,#1252,.T.);
#1252 = CIRCLE('',#1253,7.);
#1253 = AXIS2_PLACEMENT_3D('',#1254,#1255,#1256);
#1254 = CARTESIAN_POINT('',(-1.5,27.5,7.));
#1255 = DIRECTION('',(1.,1.532972193945E-33,1.972152263053E-31));
#1256 = DIRECTION('',(1.972152263053E-31,-1.511627290743E-64,-1.));
#1257 = ORIENTED_EDGE('',*,*,#1170,.T.);
#1258 = CYLINDRICAL_SURFACE('',#1259,7.);
#1259 = AXIS2_PLACEMENT_3D('',#1260,#1261,#1262);
#1260 = CARTESIAN_POINT('',(-1.5,27.5,7.));
#1261 = DIRECTION('',(-1.,-1.532972193945E-33,-1.972152263053E-31));
#1262 = DIRECTION('',(-1.972152263053E-31,1.511627290743E-64,1.));
#1263 = ADVANCED_FACE('',(#1264),#1291,.F.);
#1264 = FACE_BOUND('',#1265,.F.);
#1265 = EDGE_LOOP('',(#1266,#1276,#1283,#1284));
#1266 = ORIENTED_EDGE('',*,*,#1267,.T.);
#1267 = EDGE_CURVE('',#1268,#1270,#1272,.T.);
#1268 = VERTEX_POINT('',#1269);
#1269 = CARTESIAN_POINT('',(1.5,24.85,7.));
#1270 = VERTEX_POINT('',#1271);
#1271 = CARTESIAN_POINT('',(-1.5,24.85,7.));
#1272 = LINE('',#1273,#1274);
#1273 = CARTESIAN_POINT('',(-1.5,24.85,7.));
#1274 = VECTOR('',#1275,1.);
#1275 = DIRECTION('',(-1.,-1.532972193945E-33,-1.972152263053E-31));
#1276 = ORIENTED_EDGE('',*,*,#1277,.F.);
#1277 = EDGE_CURVE('',#1270,#1270,#1278,.T.);
#1278 = CIRCLE('',#1279,2.65);
#1279 = AXIS2_PLACEMENT_3D('',#1280,#1281,#1282);
#1280 = CARTESIAN_POINT('',(-1.5,27.5,7.));
#1281 = DIRECTION('',(-1.,-1.532972193945E-33,-1.972152263053E-31));
#1282 = DIRECTION('',(1.532972193945E-33,-1.,4.534881872228E-64));
#1283 = ORIENTED_EDGE('',*,*,#1267,.F.);
#1284 = ORIENTED_EDGE('',*,*,#1285,.F.);
#1285 = EDGE_CURVE('',#1268,#1268,#1286,.T.);
#1286 = CIRCLE('',#1287,2.65);
#1287 = AXIS2_PLACEMENT_3D('',#1288,#1289,#1290);
#1288 = CARTESIAN_POINT('',(1.5,27.5,7.));
#1289 = DIRECTION('',(1.,1.532972193945E-33,1.972152263053E-31));
#1290 = DIRECTION('',(1.532972193945E-33,-1.,4.534881872228E-64));
#1291 = CYLINDRICAL_SURFACE('',#1292,2.65);
#1292 = AXIS2_PLACEMENT_3D('',#1293,#1294,#1295);
#1293 = CARTESIAN_POINT('',(-1.5,27.5,7.));
#1294 = DIRECTION('',(-1.,-1.532972193945E-33,-1.972152263053E-31));
#1295 = DIRECTION('',(-1.532972193945E-33,1.,-4.534881872228E-64));
#1296 = ADVANCED_FACE('',(#1297),#1324,.F.);
#1297 = FACE_BOUND('',#1298,.F.);
#1298 = EDGE_LOOP('',(#1299,#1309,#1316,#1317));
#1299 = ORIENTED_EDGE('',*,*,#1300,.T.);
#1300 = EDGE_CURVE('',#1301,#1303,#1305,.T.);
#1301 = VERTEX_POINT('',#1302);
#1302 = CARTESIAN_POINT('',(1.5,-30.15,7.));
#1303 = VERTEX_POINT('',#1304);
#1304 = CARTESIAN_POINT('',(-1.5,-30.15,7.));
#1305 = LINE('',#1306,#1307);
#1306 = CARTESIAN_POINT('',(-1.5,-30.15,7.));
#1307 = VECTOR('',#1308,1.);
#1308 = DIRECTION('',(-1.,-1.532972193945E-33,-1.972152263053E-31));
#1309 = ORIENTED_EDGE('',*,*,#1310,.F.);
#1310 = EDGE_CURVE('',#1303,#1303,#1311,.T.);
#1311 = CIRCLE('',#1312,2.65);
#1312 = AXIS2_PLACEMENT_3D('',#1313,#1314,#1315);
#1313 = CARTESIAN_POINT('',(-1.5,-27.5,7.));
#1314 = DIRECTION('',(-1.,-1.532972193945E-33,-1.972152263053E-31));
#1315 = DIRECTION('',(1.532972193945E-33,-1.,4.534881872228E-64));
#1316 = ORIENTED_EDGE('',*,*,#1300,.F.);
#1317 = ORIENTED_EDGE('',*,*,#1318,.F.);
#1318 = EDGE_CURVE('',#1301,#1301,#1319,.T.);
#1319 = CIRCLE('',#1320,2.65);
#1320 = AXIS2_PLACEMENT_3D('',#1321,#1322,#1323);
#1321 = CARTESIAN_POINT('',(1.5,-27.5,7.));
#1322 = DIRECTION('',(1.,1.532972193945E-33,1.972152263053E-31));
#1323 = DIRECTION('',(1.532972193945E-33,-1.,4.534881872228E-64));
#1324 = CYLINDRICAL_SURFACE('',#1325,2.65);
#1325 = AXIS2_PLACEMENT_3D('',#1326,#1327,#1328);
#1326 = CARTESIAN_POINT('',(-1.5,-27.5,7.));
#1327 = DIRECTION('',(-1.,-1.532972193945E-33,-1.972152263053E-31));
#1328 = DIRECTION('',(-1.532972193945E-33,1.,-4.534881872228E-64));
#1329 = ADVANCED_FACE('',(#1330),#1357,.F.);
#1330 = FACE_BOUND('',#1331,.F.);
#1331 = EDGE_LOOP('',(#1332,#1342,#1349,#1350));
#1332 = ORIENTED_EDGE('',*,*,#1333,.T.);
#1333 = EDGE_CURVE('',#1334,#1336,#1338,.T.);
#1334 = VERTEX_POINT('',#1335);
#1335 = CARTESIAN_POINT('',(-0.5,-4.05,37.));
#1336 = VERTEX_POINT('',#1337);
#1337 = CARTESIAN_POINT('',(-3.5,-4.05,37.));
#1338 = LINE('',#1339,#1340);
#1339 = CARTESIAN_POINT('',(-1.5,-4.05,37.));
#1340 = VECTOR('',#1341,1.);
#1341 = DIRECTION('',(-1.,-1.532972193945E-33,-1.972152263053E-31));
#1342 = ORIENTED_EDGE('',*,*,#1343,.F.);
#1343 = EDGE_CURVE('',#1336,#1336,#1344,.T.);
#1344 = CIRCLE('',#1345,4.05);
#1345 = AXIS2_PLACEMENT_3D('',#1346,#1347,#1348);
#1346 = CARTESIAN_POINT('',(-3.5,-9.436895709314E-16,37.));
#1347 = DIRECTION('',(-1.,-5.208044803986E-34,-1.797659743809E-31));
#1348 = DIRECTION('',(5.208044803986E-34,-1.,2.715348719602E-64));
#1349 = ORIENTED_EDGE('',*,*,#1333,.F.);
#1350 = ORIENTED_EDGE('',*,*,#1351,.F.);
#1351 = EDGE_CURVE('',#1334,#1334,#1352,.T.);
#1352 = CIRCLE('',#1353,4.05);
#1353 = AXIS2_PLACEMENT_3D('',#1354,#1355,#1356);
#1354 = CARTESIAN_POINT('',(-0.5,-9.436895709314E-16,37.));
#1355 = DIRECTION('',(1.,8.099952556976E-34,1.8022820622E-31));
#1356 = DIRECTION('',(8.099952556976E-34,-1.,3.231873505041E-64));
#1357 = CYLINDRICAL_SURFACE('',#1358,4.05);
#1358 = AXIS2_PLACEMENT_3D('',#1359,#1360,#1361);
#1359 = CARTESIAN_POINT('',(-1.5,-9.436895709314E-16,37.));
#1360 = DIRECTION('',(-1.,-1.532972193945E-33,-1.972152263053E-31));
#1361 = DIRECTION('',(-1.532972193945E-33,1.,-4.534881872228E-64));
#1362 = ADVANCED_FACE('',(#1363),#1390,.T.);
#1363 = FACE_BOUND('',#1364,.T.);
#1364 = EDGE_LOOP('',(#1365,#1374,#1375,#1384));
#1365 = ORIENTED_EDGE('',*,*,#1366,.T.);
#1366 = EDGE_CURVE('',#1367,#1127,#1369,.T.);
#1367 = VERTEX_POINT('',#1368);
#1368 = CARTESIAN_POINT('',(-0.5,-7.849598988165,43.195465739151));
#1369 = CIRCLE('',#1370,10.);
#1370 = AXIS2_PLACEMENT_3D('',#1371,#1372,#1373);
#1371 = CARTESIAN_POINT('',(-0.5,-9.436895709314E-16,37.));
#1372 = DIRECTION('',(-1.,-8.099952556976E-34,-1.8022820622E-31));
#1373 = DIRECTION('',(-1.122955814804E-31,0.784959898817,0.619546573915)
  );
#1374 = ORIENTED_EDGE('',*,*,#1220,.F.);
#1375 = ORIENTED_EDGE('',*,*,#1376,.T.);
#1376 = EDGE_CURVE('',#1213,#1377,#1379,.T.);
#1377 = VERTEX_POINT('',#1378);
#1378 = CARTESIAN_POINT('',(-3.5,-7.849598988165,43.195465739151));
#1379 = CIRCLE('',#1380,10.);
#1380 = AXIS2_PLACEMENT_3D('',#1381,#1382,#1383);
#1381 = CARTESIAN_POINT('',(-3.5,-9.436895709314E-16,37.));
#1382 = DIRECTION('',(1.,5.208044803986E-34,1.797659743809E-31));
#1383 = DIRECTION('',(-1.117822041664E-31,0.784959898817,0.619546573915)
  );
#1384 = ORIENTED_EDGE('',*,*,#1385,.T.);
#1385 = EDGE_CURVE('',#1377,#1367,#1386,.T.);
#1386 = LINE('',#1387,#1388);
#1387 = CARTESIAN_POINT('',(-1.5,-7.849598988165,43.195465739151));
#1388 = VECTOR('',#1389,1.);
#1389 = DIRECTION('',(1.,1.532972193945E-33,1.972152263053E-31));
#1390 = CYLINDRICAL_SURFACE('',#1391,10.);
#1391 = AXIS2_PLACEMENT_3D('',#1392,#1393,#1394);
#1392 = CARTESIAN_POINT('',(-1.5,-9.436895709314E-16,37.));
#1393 = DIRECTION('',(-1.,-1.532972193945E-33,-1.972152263053E-31));
#1394 = DIRECTION('',(1.233873394795E-31,-0.784959898817,-0.619546573915
    ));
#1395 = ADVANCED_FACE('',(#1396),#1489,.T.);
#1396 = FACE_BOUND('',#1397,.T.);
#1397 = EDGE_LOOP('',(#1398,#1406,#1407,#1415,#1424,#1432,#1441,#1449,
    #1457,#1465,#1474,#1482));
#1398 = ORIENTED_EDGE('',*,*,#1399,.T.);
#1399 = EDGE_CURVE('',#1400,#1367,#1402,.T.);
#1400 = VERTEX_POINT('',#1401);
#1401 = CARTESIAN_POINT('',(-0.5,-20.71530463376,26.894733192202));
#1402 = LINE('',#1403,#1404);
#1403 = CARTESIAN_POINT('',(-0.5,-6.326295034415,45.1254780542));
#1404 = VECTOR('',#1405,1.);
#1405 = DIRECTION('',(-1.419737443039E-31,0.619546573915,0.784959898817)
  );
#1406 = ORIENTED_EDGE('',*,*,#1385,.F.);
#1407 = ORIENTED_EDGE('',*,*,#1408,.T.);
#1408 = EDGE_CURVE('',#1377,#1409,#1411,.T.);
#1409 = VERTEX_POINT('',#1410);
#1410 = CARTESIAN_POINT('',(-3.5,-20.71530463376,26.894733192202));
#1411 = LINE('',#1412,#1413);
#1412 = CARTESIAN_POINT('',(-3.5,-6.326295034415,45.1254780542));
#1413 = VECTOR('',#1414,1.);
#1414 = DIRECTION('',(1.414317436922E-31,-0.619546573915,-0.784959898817
    ));
#1415 = ORIENTED_EDGE('',*,*,#1416,.T.);
#1416 = EDGE_CURVE('',#1409,#1417,#1419,.T.);
#1417 = VERTEX_POINT('',#1418);
#1418 = CARTESIAN_POINT('',(-2.364334496738,-22.85382611251,
    24.185245844106));
#1419 = ELLIPSE('',#1420,4.84101163095,3.8);
#1420 = AXIS2_PLACEMENT_3D('',#1421,#1422,#1423);
#1421 = CARTESIAN_POINT('',(0.3,-20.71530463376,26.894733192202));
#1422 = DIRECTION('',(-1.479114197289E-31,-0.784959898817,0.619546573915
    ));
#1423 = DIRECTION('',(-3.00418230745E-16,-0.619546573915,-0.784959898817
    ));
#1424 = ORIENTED_EDGE('',*,*,#1425,.T.);
#1425 = EDGE_CURVE('',#1417,#1426,#1428,.T.);
#1426 = VERTEX_POINT('',#1427);
#1427 = CARTESIAN_POINT('',(-1.739087474371,-23.33909197627,
    23.570418389073));
#1428 = LINE('',#1429,#1430);
#1429 = CARTESIAN_POINT('',(-16.98035887551,-11.51005726411,
    38.557698250982));
#1430 = VECTOR('',#1431,1.);
#1431 = DIRECTION('',(0.623866809859,-0.484194655114,-0.613470243382));
#1432 = ORIENTED_EDGE('',*,*,#1433,.T.);
#1433 = EDGE_CURVE('',#1426,#1434,#1436,.T.);
#1434 = VERTEX_POINT('',#1435);
#1435 = CARTESIAN_POINT('',(-1.5,-23.78930702443,23.));
#1436 = ELLIPSE('',#1437,1.019160343358,0.8);
#1437 = AXIS2_PLACEMENT_3D('',#1438,#1439,#1440);
#1438 = CARTESIAN_POINT('',(-2.3,-23.78930702443,23.));
#1439 = DIRECTION('',(1.209806960831E-31,0.784959898817,-0.619546573915)
  );
#1440 = DIRECTION('',(-1.557557917563E-31,0.619546573915,0.784959898817)
  );
#1441 = ORIENTED_EDGE('',*,*,#1442,.T.);
#1442 = EDGE_CURVE('',#1434,#1443,#1445,.T.);
#1443 = VERTEX_POINT('',#1444);
#1444 = CARTESIAN_POINT('',(-1.5,-32.99471929171,11.336826017406));
#1445 = LINE('',#1446,#1447);
#1446 = CARTESIAN_POINT('',(-1.5,-13.99798066638,35.405521829818));
#1447 = VECTOR('',#1448,1.);
#1448 = DIRECTION('',(1.557557917563E-31,-0.619546573915,-0.784959898817
    ));
#1449 = ORIENTED_EDGE('',*,*,#1450,.T.);
#1450 = EDGE_CURVE('',#1443,#1451,#1453,.T.);
#1451 = VERTEX_POINT('',#1452);
#1452 = CARTESIAN_POINT('',(1.5,-32.99471929171,11.336826017406));
#1453 = LINE('',#1454,#1455);
#1454 = CARTESIAN_POINT('',(-1.5,-32.99471929171,11.336826017406));
#1455 = VECTOR('',#1456,1.);
#1456 = DIRECTION('',(1.,1.532972193945E-33,1.972152263053E-31));
#1457 = ORIENTED_EDGE('',*,*,#1458,.T.);
#1458 = EDGE_CURVE('',#1451,#1459,#1461,.T.);
#1459 = VERTEX_POINT('',#1460);
#1460 = CARTESIAN_POINT('',(1.5,-23.78930702443,23.));
#1461 = LINE('',#1462,#1463);
#1462 = CARTESIAN_POINT('',(1.5,-13.99798066638,35.405521829818));
#1463 = VECTOR('',#1464,1.);
#1464 = DIRECTION('',(-1.557557917563E-31,0.619546573915,0.784959898817)
  );
#1465 = ORIENTED_EDGE('',*,*,#1466,.T.);
#1466 = EDGE_CURVE('',#1459,#1467,#1469,.T.);
#1467 = VERTEX_POINT('',#1468);
#1468 = CARTESIAN_POINT('',(0.364334496738,-21.65078554567,
    25.709487348096));
#1469 = ELLIPSE('',#1470,4.84101163095,3.8);
#1470 = AXIS2_PLACEMENT_3D('',#1471,#1472,#1473);
#1471 = CARTESIAN_POINT('',(-2.3,-23.78930702443,23.));
#1472 = DIRECTION('',(-1.209806960831E-31,-0.784959898817,0.619546573915
    ));
#1473 = DIRECTION('',(-1.557557917563E-31,0.619546573915,0.784959898817)
  );
#1474 = ORIENTED_EDGE('',*,*,#1475,.T.);
#1475 = EDGE_CURVE('',#1467,#1476,#1478,.T.);
#1476 = VERTEX_POINT('',#1477);
#1477 = CARTESIAN_POINT('',(-0.260912525629,-21.16551968191,
    26.324314803129));
#1478 = LINE('',#1479,#1480);
#1479 = CARTESIAN_POINT('',(-3.592188241869,-18.5800545297,
    29.600075738185));
#1480 = VECTOR('',#1481,1.);
#1481 = DIRECTION('',(-0.623866809859,0.484194655114,0.613470243382));
#1482 = ORIENTED_EDGE('',*,*,#1483,.T.);
#1483 = EDGE_CURVE('',#1476,#1400,#1484,.T.);
#1484 = ELLIPSE('',#1485,1.019160343358,0.8);
#1485 = AXIS2_PLACEMENT_3D('',#1486,#1487,#1488);
#1486 = CARTESIAN_POINT('',(0.3,-20.71530463376,26.894733192202));
#1487 = DIRECTION('',(1.479114197289E-31,0.784959898817,-0.619546573915)
  );
#1488 = DIRECTION('',(-3.00418230745E-16,-0.619546573915,-0.784959898817
    ));
#1489 = PLANE('',#1490);
#1490 = AXIS2_PLACEMENT_3D('',#1491,#1492,#1493);
#1491 = CARTESIAN_POINT('',(-1.5,-7.849598988165,43.195465739151));
#1492 = DIRECTION('',(-1.209806960831E-31,-0.784959898817,0.619546573915
    ));
#1493 = DIRECTION('',(-1.,-1.532972193923E-33,-1.972152263053E-31));
#1494 = ADVANCED_FACE('',(#1495),#1522,.T.);
#1495 = FACE_BOUND('',#1496,.T.);
#1496 = EDGE_LOOP('',(#1497,#1506,#1507,#1516));
#1497 = ORIENTED_EDGE('',*,*,#1498,.T.);
#1498 = EDGE_CURVE('',#1499,#1451,#1501,.T.);
#1499 = VERTEX_POINT('',#1500);
#1500 = CARTESIAN_POINT('',(1.5,-27.5,4.440892098501E-15));
#1501 = CIRCLE('',#1502,7.);
#1502 = AXIS2_PLACEMENT_3D('',#1503,#1504,#1505);
#1503 = CARTESIAN_POINT('',(1.5,-27.5,7.));
#1504 = DIRECTION('',(-1.,-1.532972193945E-33,-1.972152263053E-31));
#1505 = DIRECTION('',(-1.20980696083E-31,-0.784959898817,0.619546573915)
  );
#1506 = ORIENTED_EDGE('',*,*,#1450,.F.);
#1507 = ORIENTED_EDGE('',*,*,#1508,.T.);
#1508 = EDGE_CURVE('',#1443,#1509,#1511,.T.);
#1509 = VERTEX_POINT('',#1510);
#1510 = CARTESIAN_POINT('',(-1.5,-27.5,4.440892098501E-15));
#1511 = CIRCLE('',#1512,7.);
#1512 = AXIS2_PLACEMENT_3D('',#1513,#1514,#1515);
#1513 = CARTESIAN_POINT('',(-1.5,-27.5,7.));
#1514 = DIRECTION('',(1.,1.532972193945E-33,1.972152263053E-31));
#1515 = DIRECTION('',(-1.20980696083E-31,-0.784959898817,0.619546573915)
  );
#1516 = ORIENTED_EDGE('',*,*,#1517,.F.);
#1517 = EDGE_CURVE('',#1499,#1509,#1518,.T.);
#1518 = LINE('',#1519,#1520);
#1519 = CARTESIAN_POINT('',(-1.5,-27.5,4.440892098501E-15));
#1520 = VECTOR('',#1521,1.);
#1521 = DIRECTION('',(-1.,-1.532972193945E-33,-1.972152263053E-31));
#1522 = CYLINDRICAL_SURFACE('',#1523,7.);
#1523 = AXIS2_PLACEMENT_3D('',#1524,#1525,#1526);
#1524 = CARTESIAN_POINT('',(-1.5,-27.5,7.));
#1525 = DIRECTION('',(-1.,-1.532972193945E-33,-1.972152263053E-31));
#1526 = DIRECTION('',(1.20980696083E-31,0.784959898817,-0.619546573915)
  );
#1527 = ADVANCED_FACE('',(#1528),#1544,.F.);
#1528 = FACE_BOUND('',#1529,.F.);
#1529 = EDGE_LOOP('',(#1530,#1536,#1537,#1543));
#1530 = ORIENTED_EDGE('',*,*,#1531,.T.);
#1531 = EDGE_CURVE('',#1187,#1426,#1532,.T.);
#1532 = LINE('',#1533,#1534);
#1533 = CARTESIAN_POINT('',(-1.739087474371,35.9413128828,
    23.570418389073));
#1534 = VECTOR('',#1535,1.);
#1535 = DIRECTION('',(1.775448744299E-16,-1.,-1.7458613859E-16));
#1536 = ORIENTED_EDGE('',*,*,#1433,.T.);
#1537 = ORIENTED_EDGE('',*,*,#1538,.F.);
#1538 = EDGE_CURVE('',#1179,#1434,#1539,.T.);
#1539 = LINE('',#1540,#1541);
#1540 = CARTESIAN_POINT('',(-1.5,35.9413128828,23.));
#1541 = VECTOR('',#1542,1.);
#1542 = DIRECTION('',(1.532972193945E-33,-1.,4.534881872228E-64));
#1543 = ORIENTED_EDGE('',*,*,#1186,.T.);
#1544 = CYLINDRICAL_SURFACE('',#1545,0.8);
#1545 = AXIS2_PLACEMENT_3D('',#1546,#1547,#1548);
#1546 = CARTESIAN_POINT('',(-2.3,0.271928945261,23.));
#1547 = DIRECTION('',(-1.532972193945E-33,1.,-4.534881872228E-64));
#1548 = DIRECTION('',(1.,1.532972193945E-33,1.972152263053E-31));
#1549 = ADVANCED_FACE('',(#1550,#1563,#1566),#1569,.F.);
#1550 = FACE_BOUND('',#1551,.T.);
#1551 = EDGE_LOOP('',(#1552,#1553,#1554,#1560,#1561,#1562));
#1552 = ORIENTED_EDGE('',*,*,#1178,.F.);
#1553 = ORIENTED_EDGE('',*,*,#1251,.F.);
#1554 = ORIENTED_EDGE('',*,*,#1555,.F.);
#1555 = EDGE_CURVE('',#1509,#1244,#1556,.T.);
#1556 = LINE('',#1557,#1558);
#1557 = CARTESIAN_POINT('',(-1.5,-35.39745499227,4.440892098501E-15));
#1558 = VECTOR('',#1559,1.);
#1559 = DIRECTION('',(-1.532972193945E-33,1.,-5.371098495979E-48));
#1560 = ORIENTED_EDGE('',*,*,#1508,.F.);
#1561 = ORIENTED_EDGE('',*,*,#1442,.F.);
#1562 = ORIENTED_EDGE('',*,*,#1538,.F.);
#1563 = FACE_BOUND('',#1564,.T.);
#1564 = EDGE_LOOP('',(#1565));
#1565 = ORIENTED_EDGE('',*,*,#1310,.F.);
#1566 = FACE_BOUND('',#1567,.T.);
#1567 = EDGE_LOOP('',(#1568));
#1568 = ORIENTED_EDGE('',*,*,#1277,.F.);
#1569 = PLANE('',#1570);
#1570 = AXIS2_PLACEMENT_3D('',#1571,#1572,#1573);
#1571 = CARTESIAN_POINT('',(-1.5,0.271928945261,11.5));
#1572 = DIRECTION('',(1.,1.532972193945E-33,1.972152263053E-31));
#1573 = DIRECTION('',(-1.972152263053E-31,1.511627290743E-64,1.));
#1574 = ADVANCED_FACE('',(#1575,#1593,#1596),#1599,.T.);
#1575 = FACE_BOUND('',#1576,.T.);
#1576 = EDGE_LOOP('',(#1577,#1578,#1584,#1585,#1586,#1592));
#1577 = ORIENTED_EDGE('',*,*,#1162,.F.);
#1578 = ORIENTED_EDGE('',*,*,#1579,.F.);
#1579 = EDGE_CURVE('',#1459,#1154,#1580,.T.);
#1580 = LINE('',#1581,#1582);
#1581 = CARTESIAN_POINT('',(1.5,35.9413128828,23.));
#1582 = VECTOR('',#1583,1.);
#1583 = DIRECTION('',(-1.532972193945E-33,1.,-4.534881872228E-64));
#1584 = ORIENTED_EDGE('',*,*,#1458,.F.);
#1585 = ORIENTED_EDGE('',*,*,#1498,.F.);
#1586 = ORIENTED_EDGE('',*,*,#1587,.F.);
#1587 = EDGE_CURVE('',#1235,#1499,#1588,.T.);
#1588 = LINE('',#1589,#1590);
#1589 = CARTESIAN_POINT('',(1.5,-35.39745499227,4.440892098501E-15));
#1590 = VECTOR('',#1591,1.);
#1591 = DIRECTION('',(1.532972193945E-33,-1.,5.371098495979E-48));
#1592 = ORIENTED_EDGE('',*,*,#1234,.F.);
#1593 = FACE_BOUND('',#1594,.T.);
#1594 = EDGE_LOOP('',(#1595));
#1595 = ORIENTED_EDGE('',*,*,#1285,.F.);
#1596 = FACE_BOUND('',#1597,.T.);
#1597 = EDGE_LOOP('',(#1598));
#1598 = ORIENTED_EDGE('',*,*,#1318,.F.);
#1599 = PLANE('',#1600);
#1600 = AXIS2_PLACEMENT_3D('',#1601,#1602,#1603);
#1601 = CARTESIAN_POINT('',(1.5,0.271928945261,11.5));
#1602 = DIRECTION('',(1.,1.532972193945E-33,1.972152263053E-31));
#1603 = DIRECTION('',(-1.972152263053E-31,1.511627290743E-64,1.));
#1604 = ADVANCED_FACE('',(#1605,#1616),#1619,.F.);
#1605 = FACE_BOUND('',#1606,.T.);
#1606 = EDGE_LOOP('',(#1607,#1608,#1614,#1615));
#1607 = ORIENTED_EDGE('',*,*,#1212,.F.);
#1608 = ORIENTED_EDGE('',*,*,#1609,.T.);
#1609 = EDGE_CURVE('',#1204,#1409,#1610,.T.);
#1610 = LINE('',#1611,#1612);
#1611 = CARTESIAN_POINT('',(-3.5,0.271928945261,26.894733192202));
#1612 = VECTOR('',#1613,1.);
#1613 = DIRECTION('',(5.208044803986E-34,-1.,-2.527194794288E-16));
#1614 = ORIENTED_EDGE('',*,*,#1408,.F.);
#1615 = ORIENTED_EDGE('',*,*,#1376,.F.);
#1616 = FACE_BOUND('',#1617,.T.);
#1617 = EDGE_LOOP('',(#1618));
#1618 = ORIENTED_EDGE('',*,*,#1343,.F.);
#1619 = PLANE('',#1620);
#1620 = AXIS2_PLACEMENT_3D('',#1621,#1622,#1623);
#1621 = CARTESIAN_POINT('',(-3.5,0.271928945261,43.05));
#1622 = DIRECTION('',(1.,5.208044803986E-34,1.797659743809E-31));
#1623 = DIRECTION('',(-1.797659743809E-31,1.602503776561E-64,1.));
#1624 = ADVANCED_FACE('',(#1625,#1636),#1639,.T.);
#1625 = FACE_BOUND('',#1626,.T.);
#1626 = EDGE_LOOP('',(#1627,#1628,#1629,#1630));
#1627 = ORIENTED_EDGE('',*,*,#1126,.F.);
#1628 = ORIENTED_EDGE('',*,*,#1366,.F.);
#1629 = ORIENTED_EDGE('',*,*,#1399,.F.);
#1630 = ORIENTED_EDGE('',*,*,#1631,.T.);
#1631 = EDGE_CURVE('',#1400,#1129,#1632,.T.);
#1632 = LINE('',#1633,#1634);
#1633 = CARTESIAN_POINT('',(-0.5,0.271928945261,26.894733192202));
#1634 = VECTOR('',#1635,1.);
#1635 = DIRECTION('',(-8.099952556976E-34,1.,2.527194794288E-16));
#1636 = FACE_BOUND('',#1637,.T.);
#1637 = EDGE_LOOP('',(#1638));
#1638 = ORIENTED_EDGE('',*,*,#1351,.F.);
#1639 = PLANE('',#1640);
#1640 = AXIS2_PLACEMENT_3D('',#1641,#1642,#1643);
#1641 = CARTESIAN_POINT('',(-0.5,0.271928945261,43.05));
#1642 = DIRECTION('',(1.,8.099952556976E-34,1.8022820622E-31));
#1643 = DIRECTION('',(-1.8022820622E-31,1.649221347518E-64,1.));
#1644 = ADVANCED_FACE('',(#1645),#1656,.T.);
#1645 = FACE_BOUND('',#1646,.T.);
#1646 = EDGE_LOOP('',(#1647,#1648,#1654,#1655));
#1647 = ORIENTED_EDGE('',*,*,#1153,.F.);
#1648 = ORIENTED_EDGE('',*,*,#1649,.F.);
#1649 = EDGE_CURVE('',#1467,#1146,#1650,.T.);
#1650 = LINE('',#1651,#1652);
#1651 = CARTESIAN_POINT('',(0.364334496738,-35.39745499227,
    25.709487348096));
#1652 = VECTOR('',#1653,1.);
#1653 = DIRECTION('',(-1.775448744299E-16,1.,1.7458613859E-16));
#1654 = ORIENTED_EDGE('',*,*,#1466,.F.);
#1655 = ORIENTED_EDGE('',*,*,#1579,.T.);
#1656 = CYLINDRICAL_SURFACE('',#1657,3.8);
#1657 = AXIS2_PLACEMENT_3D('',#1658,#1659,#1660);
#1658 = CARTESIAN_POINT('',(-2.3,0.271928945261,23.));
#1659 = DIRECTION('',(-1.532972193945E-33,1.,-4.534881872228E-64));
#1660 = DIRECTION('',(1.,1.532972193945E-33,1.972152263053E-31));
#1661 = ADVANCED_FACE('',(#1662),#1673,.T.);
#1662 = FACE_BOUND('',#1663,.T.);
#1663 = EDGE_LOOP('',(#1664,#1665,#1671,#1672));
#1664 = ORIENTED_EDGE('',*,*,#1145,.F.);
#1665 = ORIENTED_EDGE('',*,*,#1666,.F.);
#1666 = EDGE_CURVE('',#1476,#1137,#1667,.T.);
#1667 = LINE('',#1668,#1669);
#1668 = CARTESIAN_POINT('',(-0.260912525629,-35.39745499227,
    26.324314803129));
#1669 = VECTOR('',#1670,1.);
#1670 = DIRECTION('',(-1.775448744299E-16,1.,1.7458613859E-16));
#1671 = ORIENTED_EDGE('',*,*,#1475,.F.);
#1672 = ORIENTED_EDGE('',*,*,#1649,.T.);
#1673 = PLANE('',#1674);
#1674 = AXIS2_PLACEMENT_3D('',#1675,#1676,#1677);
#1675 = CARTESIAN_POINT('',(-0.260912525629,-35.39745499227,
    26.324314803129));
#1676 = DIRECTION('',(0.701140657036,-3.806146384779E-29,0.713022986341)
  );
#1677 = DIRECTION('',(-0.713022986341,-1.0930444117E-33,0.701140657036)
  );
#1678 = ADVANCED_FACE('',(#1679),#1690,.T.);
#1679 = FACE_BOUND('',#1680,.T.);
#1680 = EDGE_LOOP('',(#1681,#1682,#1683,#1684));
#1681 = ORIENTED_EDGE('',*,*,#1195,.F.);
#1682 = ORIENTED_EDGE('',*,*,#1531,.T.);
#1683 = ORIENTED_EDGE('',*,*,#1425,.F.);
#1684 = ORIENTED_EDGE('',*,*,#1685,.F.);
#1685 = EDGE_CURVE('',#1196,#1417,#1686,.T.);
#1686 = LINE('',#1687,#1688);
#1687 = CARTESIAN_POINT('',(-2.364334496738,35.9413128828,
    24.185245844106));
#1688 = VECTOR('',#1689,1.);
#1689 = DIRECTION('',(1.775448744299E-16,-1.,-1.7458613859E-16));
#1690 = PLANE('',#1691);
#1691 = AXIS2_PLACEMENT_3D('',#1692,#1693,#1694);
#1692 = CARTESIAN_POINT('',(-2.364334496738,35.9413128828,
    24.185245844106));
#1693 = DIRECTION('',(-0.701140657036,3.806146384779E-29,-0.713022986341
    ));
#1694 = DIRECTION('',(0.713022986341,1.0930444117E-33,-0.701140657036));
#1695 = ADVANCED_FACE('',(#1696),#1702,.T.);
#1696 = FACE_BOUND('',#1697,.T.);
#1697 = EDGE_LOOP('',(#1698,#1699,#1700,#1701));
#1698 = ORIENTED_EDGE('',*,*,#1203,.F.);
#1699 = ORIENTED_EDGE('',*,*,#1685,.T.);
#1700 = ORIENTED_EDGE('',*,*,#1416,.F.);
#1701 = ORIENTED_EDGE('',*,*,#1609,.F.);
#1702 = CYLINDRICAL_SURFACE('',#1703,3.8);
#1703 = AXIS2_PLACEMENT_3D('',#1704,#1705,#1706);
#1704 = CARTESIAN_POINT('',(0.3,0.271928945261,26.894733192202));
#1705 = DIRECTION('',(-4.849001566527E-16,-1.,-2.49003016496E-16));
#1706 = DIRECTION('',(1.,-4.849001566527E-16,1.972495034016E-31));
#1707 = ADVANCED_FACE('',(#1708),#1714,.F.);
#1708 = FACE_BOUND('',#1709,.F.);
#1709 = EDGE_LOOP('',(#1710,#1711,#1712,#1713));
#1710 = ORIENTED_EDGE('',*,*,#1666,.F.);
#1711 = ORIENTED_EDGE('',*,*,#1483,.T.);
#1712 = ORIENTED_EDGE('',*,*,#1631,.T.);
#1713 = ORIENTED_EDGE('',*,*,#1136,.T.);
#1714 = CYLINDRICAL_SURFACE('',#1715,0.8);
#1715 = AXIS2_PLACEMENT_3D('',#1716,#1717,#1718);
#1716 = CARTESIAN_POINT('',(0.3,0.271928945261,26.894733192202));
#1717 = DIRECTION('',(-4.849001566527E-16,-1.,-2.49003016496E-16));
#1718 = DIRECTION('',(1.,-4.849001566527E-16,1.945853296045E-31));
#1719 = ADVANCED_FACE('',(#1720),#1726,.T.);
#1720 = FACE_BOUND('',#1721,.T.);
#1721 = EDGE_LOOP('',(#1722,#1723,#1724,#1725));
#1722 = ORIENTED_EDGE('',*,*,#1243,.F.);
#1723 = ORIENTED_EDGE('',*,*,#1587,.T.);
#1724 = ORIENTED_EDGE('',*,*,#1517,.T.);
#1725 = ORIENTED_EDGE('',*,*,#1555,.T.);
#1726 = PLANE('',#1727);
#1727 = AXIS2_PLACEMENT_3D('',#1728,#1729,#1730);
#1728 = CARTESIAN_POINT('',(-1.5,35.9413128828,4.440892098501E-15));
#1729 = DIRECTION('',(1.972152263053E-31,-5.371098495979E-48,-1.));
#1730 = DIRECTION('',(1.,1.532972193945E-33,1.972152263053E-31));
#1731 = ( GEOMETRIC_REPRESENTATION_CONTEXT(3) 
GLOBAL_UNCERTAINTY_ASSIGNED_CONTEXT((#1735)) 
GLOBAL_UNIT_ASSIGNED_CONTEXT((#1732,#1733,#1734)) REPRESENTATION_CONTEXT
('Context #1','3D Context with UNIT and UNCERTAINTY') );
#1732 = ( LENGTH_UNIT() NAMED_UNIT(*) SI_UNIT(.MILLI.,.METRE.) );
#1733 = ( NAMED_UNIT(*) PLANE_ANGLE_UNIT() SI_UNIT($,.RADIAN.) );
#1734 = ( NAMED_UNIT(*) SI_UNIT($,.STERADIAN.) SOLID_ANGLE_UNIT() );
#1735 = UNCERTAINTY_MEASURE_WITH_UNIT(LENGTH_MEASURE(1.E-07),#1732,
  'distance_accuracy_value','confusion accuracy');
#1736 = CONTEXT_DEPENDENT_SHAPE_REPRESENTATION(#1737,#1739);
#1737 = ( REPRESENTATION_RELATIONSHIP('','',#1119,#358) 
REPRESENTATION_RELATIONSHIP_WITH_TRANSFORMATION(#1738) 
SHAPE_REPRESENTATION_RELATIONSHIP() );
#1738 = ITEM_DEFINED_TRANSFORMATION('','',#11,#367);
#1739 = PRODUCT_DEFINITION_SHAPE('Placement','Placement of an item',
  #1740);
#1740 = NEXT_ASSEMBLY_USAGE_OCCURRENCE('4','Bracket','',#353,#1114,$);
#1741 = PRODUCT_RELATED_PRODUCT_CATEGORY('part',$,(#1116));
#1742 = MECHANICAL_DESIGN_GEOMETRIC_PRESENTATION_REPRESENTATION('',(
    #1743),#340);
#1743 = STYLED_ITEM('color',(#1744),#37);
#1744 = PRESENTATION_STYLE_ASSIGNMENT((#1745,#1751));
#1745 = SURFACE_STYLE_USAGE(.BOTH.,#1746);
#1746 = SURFACE_SIDE_STYLE('',(#1747));
#1747 = SURFACE_STYLE_FILL_AREA(#1748);
#1748 = FILL_AREA_STYLE('',(#1749));
#1749 = FILL_AREA_STYLE_COLOUR('',#1750);
#1750 = DRAUGHTING_PRE_DEFINED_COLOUR('white');
#1751 = CURVE_STYLE('',#1752,POSITIVE_LENGTH_MEASURE(0.1),#1753);
#1752 = DRAUGHTING_PRE_DEFINED_CURVE_FONT('continuous');
#1753 = COLOUR_RGB('',9.803921802644E-02,9.803921802644E-02,
  9.803921802644E-02);
#1754 = MECHANICAL_DESIGN_GEOMETRIC_PRESENTATION_REPRESENTATION('',(
    #1755),#1096);
#1755 = STYLED_ITEM('color',(#1756),#390);
#1756 = PRESENTATION_STYLE_ASSIGNMENT((#1757,#1763));
#1757 = SURFACE_STYLE_USAGE(.BOTH.,#1758);
#1758 = SURFACE_SIDE_STYLE('',(#1759));
#1759 = SURFACE_STYLE_FILL_AREA(#1760);
#1760 = FILL_AREA_STYLE('',(#1761));
#1761 = FILL_AREA_STYLE_COLOUR('',#1762);
#1762 = COLOUR_RGB('',0.450980401079,0.392156863511,0.392156863511);
#1763 = CURVE_STYLE('',#1764,POSITIVE_LENGTH_MEASURE(0.1),#1753);
#1764 = DRAUGHTING_PRE_DEFINED_CURVE_FONT('continuous');
#1765 = MECHANICAL_DESIGN_GEOMETRIC_PRESENTATION_REPRESENTATION('',(
    #1766),#1731);
#1766 = STYLED_ITEM('color',(#1767),#1120);
#1767 = PRESENTATION_STYLE_ASSIGNMENT((#1768,#1773));
#1768 = SURFACE_STYLE_USAGE(.BOTH.,#1769);
#1769 = SURFACE_SIDE_STYLE('',(#1770));
#1770 = SURFACE_STYLE_FILL_AREA(#1771);
#1771 = FILL_AREA_STYLE('',(#1772));
#1772 = FILL_AREA_STYLE_COLOUR('',#1750);
#1773 = CURVE_STYLE('',#1774,POSITIVE_LENGTH_MEASURE(0.1),#1753);
#1774 = DRAUGHTING_PRE_DEFINED_CURVE_FONT('continuous');
ENDSEC;
END-ISO-10303-21;
