%TF.GenerationSoftware,KiCad,Pcbnew,9.0.1*%
%TF.CreationDate,2025-04-18T12:39:12-07:00*%
%TF.ProjectId,Greenhouse Board,47726565-6e68-46f7-9573-6520426f6172,rev?*%
%TF.SameCoordinates,Original*%
%TF.FileFunction,Copper,L1,Top*%
%TF.FilePolarity,Positive*%
%FSLAX46Y46*%
G04 Gerber Fmt 4.6, Leading zero omitted, Abs format (unit mm)*
G04 Created by KiCad (PCBNEW 9.0.1) date 2025-04-18 12:39:12*
%MOMM*%
%LPD*%
G01*
G04 APERTURE LIST*
G04 Aperture macros list*
%AMRoundRect*
0 Rectangle with rounded corners*
0 $1 Rounding radius*
0 $2 $3 $4 $5 $6 $7 $8 $9 X,Y pos of 4 corners*
0 Add a 4 corners polygon primitive as box body*
4,1,4,$2,$3,$4,$5,$6,$7,$8,$9,$2,$3,0*
0 Add four circle primitives for the rounded corners*
1,1,$1+$1,$2,$3*
1,1,$1+$1,$4,$5*
1,1,$1+$1,$6,$7*
1,1,$1+$1,$8,$9*
0 Add four rect primitives between the rounded corners*
20,1,$1+$1,$2,$3,$4,$5,0*
20,1,$1+$1,$4,$5,$6,$7,0*
20,1,$1+$1,$6,$7,$8,$9,0*
20,1,$1+$1,$8,$9,$2,$3,0*%
G04 Aperture macros list end*
%TA.AperFunction,ComponentPad*%
%ADD10R,1.358000X1.358000*%
%TD*%
%TA.AperFunction,ComponentPad*%
%ADD11C,1.358000*%
%TD*%
%TA.AperFunction,ComponentPad*%
%ADD12C,1.600000*%
%TD*%
%TA.AperFunction,SMDPad,CuDef*%
%ADD13RoundRect,0.250000X-0.350000X-0.450000X0.350000X-0.450000X0.350000X0.450000X-0.350000X0.450000X0*%
%TD*%
%TA.AperFunction,SMDPad,CuDef*%
%ADD14RoundRect,0.112500X0.112500X0.637500X-0.112500X0.637500X-0.112500X-0.637500X0.112500X-0.637500X0*%
%TD*%
%TA.AperFunction,SMDPad,CuDef*%
%ADD15RoundRect,0.250000X0.250000X0.475000X-0.250000X0.475000X-0.250000X-0.475000X0.250000X-0.475000X0*%
%TD*%
%TA.AperFunction,SMDPad,CuDef*%
%ADD16R,0.800100X0.355600*%
%TD*%
%TA.AperFunction,ComponentPad*%
%ADD17O,1.200000X2.000000*%
%TD*%
%TA.AperFunction,SMDPad,CuDef*%
%ADD18RoundRect,0.250000X0.350000X0.450000X-0.350000X0.450000X-0.350000X-0.450000X0.350000X-0.450000X0*%
%TD*%
%TA.AperFunction,ComponentPad*%
%ADD19C,1.803400*%
%TD*%
%TA.AperFunction,SMDPad,CuDef*%
%ADD20RoundRect,0.250000X-0.450000X0.350000X-0.450000X-0.350000X0.450000X-0.350000X0.450000X0.350000X0*%
%TD*%
%TA.AperFunction,SMDPad,CuDef*%
%ADD21R,2.800000X1.500000*%
%TD*%
%TA.AperFunction,SMDPad,CuDef*%
%ADD22R,3.000000X1.500000*%
%TD*%
%TA.AperFunction,SMDPad,CuDef*%
%ADD23RoundRect,0.250000X0.450000X-0.350000X0.450000X0.350000X-0.450000X0.350000X-0.450000X-0.350000X0*%
%TD*%
%TA.AperFunction,SMDPad,CuDef*%
%ADD24R,2.489200X2.260600*%
%TD*%
%TA.AperFunction,SMDPad,CuDef*%
%ADD25RoundRect,0.112500X0.637500X-0.112500X0.637500X0.112500X-0.637500X0.112500X-0.637500X-0.112500X0*%
%TD*%
%TA.AperFunction,ViaPad*%
%ADD26C,0.600000*%
%TD*%
%TA.AperFunction,Conductor*%
%ADD27C,0.200000*%
%TD*%
%TA.AperFunction,Conductor*%
%ADD28C,1.000000*%
%TD*%
%TA.AperFunction,Conductor*%
%ADD29C,0.500000*%
%TD*%
G04 APERTURE END LIST*
D10*
%TO.P,U1,1,D0*%
%TO.N,/window_close*%
X196138800Y-79908400D03*
D11*
%TO.P,U1,2,D1*%
%TO.N,/window_open*%
X193598800Y-79908400D03*
%TO.P,U1,3,D2*%
%TO.N,/fan_signal*%
X191058800Y-79908400D03*
%TO.P,U1,4,D3*%
%TO.N,/mist_control*%
X188518800Y-79908400D03*
%TO.P,U1,5,D4*%
%TO.N,/SDA*%
X185978800Y-79908400D03*
%TO.P,U1,6,D5*%
%TO.N,/SCL*%
X183438800Y-79908400D03*
%TO.P,U1,7,TX_D6*%
%TO.N,unconnected-(U1-TX_D6-Pad7)*%
X180898800Y-79908400D03*
%TO.P,U1,8,RX_D7*%
%TO.N,unconnected-(U1-RX_D7-Pad8)*%
X180898800Y-95148400D03*
%TO.P,U1,9,D8*%
%TO.N,/temp_bus*%
X183438800Y-95148400D03*
%TO.P,U1,10,D9*%
%TO.N,/DHT22_Sensor*%
X185978800Y-95148400D03*
%TO.P,U1,11,D10*%
%TO.N,unconnected-(U1-D10-Pad11)*%
X188518800Y-95148400D03*
%TO.P,U1,12,VCC_3V3*%
%TO.N,unconnected-(U1-VCC_3V3-Pad12)*%
X191058800Y-95148400D03*
%TO.P,U1,13,GND*%
%TO.N,GND*%
X193598800Y-95148400D03*
%TO.P,U1,14,VUSB*%
%TO.N,+5V*%
X196138800Y-95148400D03*
%TD*%
D12*
%TO.P,J5,1*%
%TO.N,+5V*%
X163195000Y-96735900D03*
%TO.P,J5,2*%
X161925000Y-94195900D03*
%TO.P,J5,3*%
%TO.N,/SCL*%
X160655000Y-96735900D03*
%TO.P,J5,4*%
%TO.N,GND*%
X159385000Y-94195900D03*
%TO.P,J5,5*%
%TO.N,/SDA*%
X158115000Y-96735900D03*
%TO.P,J5,6*%
%TO.N,GND*%
X156845000Y-94195900D03*
%TD*%
D13*
%TO.P,R1,1*%
%TO.N,/window_open*%
X106696000Y-87337900D03*
%TO.P,R1,2*%
%TO.N,Net-(Q2-G)*%
X108696000Y-87337900D03*
%TD*%
D14*
%TO.P,Q2,1,G*%
%TO.N,Net-(Q2-G)*%
X111902000Y-89055900D03*
%TO.P,Q2,2,S*%
%TO.N,GND*%
X110602000Y-89055900D03*
%TO.P,Q2,3,D*%
%TO.N,/red_wire*%
X111252000Y-91715900D03*
%TD*%
D15*
%TO.P,C3,1*%
%TO.N,+5V*%
X196130649Y-98241294D03*
%TO.P,C3,2*%
%TO.N,GND*%
X194230649Y-98241294D03*
%TD*%
D16*
%TO.P,D1,1,K*%
%TO.N,+12V*%
X140493750Y-91401900D03*
%TO.P,D1,2,A*%
%TO.N,/mist-*%
X137890250Y-91401900D03*
%TD*%
D17*
%TO.P,U2,1,GND*%
%TO.N,GND*%
X162560000Y-90131900D03*
X165100000Y-90131900D03*
%TO.P,U2,2,5V*%
%TO.N,+5V*%
X157480000Y-90131900D03*
X160020000Y-90131900D03*
%TO.P,U2,3,12V*%
%TO.N,+12V*%
X152400000Y-90131900D03*
X154940000Y-90131900D03*
%TD*%
D18*
%TO.P,R4,1*%
%TO.N,/window_close*%
X120888000Y-88607900D03*
%TO.P,R4,2*%
%TO.N,Net-(Q1-G)*%
X118888000Y-88607900D03*
%TD*%
D19*
%TO.P,J1,1,1*%
%TO.N,+12V*%
X122163100Y-82236500D03*
%TO.P,J1,2,2*%
X117163100Y-82236500D03*
%TO.P,J1,3,3*%
X112163100Y-82236500D03*
%TO.P,J1,4,4*%
X107163099Y-82236500D03*
%TD*%
D20*
%TO.P,R3,1*%
%TO.N,/window_close*%
X123952000Y-90147900D03*
%TO.P,R3,2*%
%TO.N,GND*%
X123952000Y-92147900D03*
%TD*%
D19*
%TO.P,J6,1,1*%
%TO.N,GND*%
X145636000Y-82236500D03*
%TO.P,J6,2,2*%
X140636000Y-82236500D03*
%TO.P,J6,3,3*%
X135636000Y-82236500D03*
%TO.P,J6,4,4*%
X130635999Y-82236500D03*
%TD*%
D21*
%TO.P,J9,1*%
%TO.N,GND*%
X181503835Y-111707255D03*
D22*
%TO.P,J9,2*%
%TO.N,+5V*%
X181203835Y-102807255D03*
D21*
%TO.P,J9,3*%
%TO.N,/temp_bus*%
X188103835Y-108307255D03*
%TD*%
%TO.P,J7,1*%
%TO.N,GND*%
X192570546Y-111707255D03*
D22*
%TO.P,J7,2*%
%TO.N,+5V*%
X192270546Y-102807255D03*
D21*
%TO.P,J7,3*%
%TO.N,/DHT22_Sensor*%
X199170546Y-108307255D03*
%TD*%
D12*
%TO.P,J4,1*%
%TO.N,+12V*%
X147187000Y-96735900D03*
%TO.P,J4,2*%
X145917000Y-94195900D03*
%TO.P,J4,3*%
X144647000Y-96735900D03*
%TO.P,J4,4*%
%TO.N,/mist-*%
X143377000Y-94195900D03*
%TO.P,J4,5*%
X142107000Y-96735900D03*
%TO.P,J4,6*%
X140837000Y-94195900D03*
%TD*%
%TO.P,J2,1*%
%TO.N,/green_wire*%
X115183000Y-96735900D03*
%TO.P,J2,2*%
X113913000Y-94195900D03*
%TO.P,J2,3*%
%TO.N,/red_wire*%
X112643000Y-96735900D03*
%TO.P,J2,4*%
X111373000Y-94195900D03*
%TO.P,J2,5*%
%TO.N,GND*%
X110103000Y-96735900D03*
%TO.P,J2,6*%
X108833000Y-94195900D03*
%TD*%
%TO.P,J3,1*%
%TO.N,+5V*%
X131185000Y-96735900D03*
%TO.P,J3,2*%
X129915000Y-94195900D03*
%TO.P,J3,3*%
%TO.N,/fan_signal*%
X128645000Y-96735900D03*
%TO.P,J3,4*%
X127375000Y-94195900D03*
%TO.P,J3,5*%
%TO.N,GND*%
X126105000Y-96735900D03*
%TO.P,J3,6*%
X124835000Y-94195900D03*
%TD*%
D14*
%TO.P,Q1,1,G*%
%TO.N,Net-(Q1-G)*%
X115966000Y-89055900D03*
%TO.P,Q1,2,S*%
%TO.N,GND*%
X114666000Y-89055900D03*
%TO.P,Q1,3,D*%
%TO.N,/green_wire*%
X115316000Y-91715900D03*
%TD*%
D23*
%TO.P,R5,1*%
%TO.N,/mist_control*%
X147828000Y-89607900D03*
%TO.P,R5,2*%
%TO.N,GND*%
X147828000Y-87607900D03*
%TD*%
D13*
%TO.P,R9,1*%
%TO.N,+5V*%
X181388000Y-98767900D03*
%TO.P,R9,2*%
%TO.N,/temp_bus*%
X183388000Y-98767900D03*
%TD*%
D16*
%TO.P,D3,1,K*%
%TO.N,+12V*%
X105378250Y-91655900D03*
%TO.P,D3,2,A*%
%TO.N,/red_wire*%
X107981750Y-91655900D03*
%TD*%
D24*
%TO.P,C2,1*%
%TO.N,+5V*%
X172466000Y-87109300D03*
%TO.P,C2,2*%
%TO.N,GND*%
X172466000Y-92646500D03*
%TD*%
D16*
%TO.P,D2,1,K*%
%TO.N,+12V*%
X120427750Y-91655900D03*
%TO.P,D2,2,A*%
%TO.N,/green_wire*%
X117824250Y-91655900D03*
%TD*%
D13*
%TO.P,R2,1*%
%TO.N,/window_open*%
X106712000Y-89623900D03*
%TO.P,R2,2*%
%TO.N,GND*%
X108712000Y-89623900D03*
%TD*%
D21*
%TO.P,J8,1*%
%TO.N,GND*%
X170438823Y-111707255D03*
D22*
%TO.P,J8,2*%
%TO.N,+5V*%
X170138823Y-102807255D03*
D21*
%TO.P,J8,3*%
%TO.N,/temp_bus*%
X177038823Y-108307255D03*
%TD*%
D18*
%TO.P,R6,1*%
%TO.N,/mist_control*%
X145272000Y-90893900D03*
%TO.P,R6,2*%
%TO.N,Net-(Q3-G)*%
X143272000Y-90893900D03*
%TD*%
D25*
%TO.P,Q3,1,G*%
%TO.N,Net-(Q3-G)*%
X140522000Y-89511900D03*
%TO.P,Q3,2,S*%
%TO.N,GND*%
X140522000Y-88211900D03*
%TO.P,Q3,3,D*%
%TO.N,/mist-*%
X137862000Y-88861900D03*
%TD*%
D26*
%TO.N,GND*%
X144373600Y-88671400D03*
%TO.N,+12V*%
X122148600Y-90297000D03*
%TO.N,GND*%
X171450000Y-109181900D03*
%TO.N,/fan_signal*%
X167640000Y-98259900D03*
X164846000Y-100037900D03*
X187960000Y-89877900D03*
%TO.N,/window_close*%
X152628600Y-86830900D03*
X159102568Y-86853322D03*
%TO.N,/window_open*%
X158445200Y-86229900D03*
X153365200Y-86229900D03*
%TO.N,/mist_control*%
X157429200Y-87591900D03*
X153263600Y-87591900D03*
%TD*%
D27*
%TO.N,/window_close*%
X159435800Y-86520090D02*
X159435800Y-86512400D01*
X159102568Y-86853322D02*
X159435800Y-86520090D01*
X163296600Y-82651600D02*
X193384846Y-82651600D01*
X159435800Y-86512400D02*
X163296600Y-82651600D01*
X193384846Y-82651600D02*
X196139546Y-79896900D01*
X125072700Y-86614000D02*
X123977400Y-87709300D01*
X152628600Y-86830900D02*
X152159700Y-86830900D01*
X152159700Y-86830900D02*
X151942800Y-86614000D01*
X123977400Y-87709300D02*
X123977400Y-90122500D01*
X151942800Y-86614000D02*
X125072700Y-86614000D01*
X123977400Y-90122500D02*
X123952000Y-90147900D01*
%TO.N,/window_open*%
X153365200Y-86229900D02*
X153266700Y-86131400D01*
X153266700Y-86131400D02*
X107902500Y-86131400D01*
X107902500Y-86131400D02*
X106696000Y-87337900D01*
%TO.N,GND*%
X144119600Y-88211900D02*
X144119600Y-88417400D01*
X144119600Y-88417400D02*
X144373600Y-88671400D01*
X140522000Y-88211900D02*
X144119600Y-88211900D01*
X144119600Y-88211900D02*
X147224000Y-88211900D01*
X147224000Y-88211900D02*
X147828000Y-87607900D01*
X108712000Y-89623900D02*
X110034000Y-89623900D01*
X110034000Y-89623900D02*
X110602000Y-89055900D01*
%TO.N,+12V*%
X120789700Y-91655900D02*
X122148600Y-90297000D01*
X120427750Y-91655900D02*
X120789700Y-91655900D01*
D28*
X124186400Y-80213200D02*
X126365000Y-80213200D01*
D27*
%TO.N,/window_open*%
X158445200Y-86229900D02*
X162506100Y-82169000D01*
X162506100Y-82169000D02*
X191327446Y-82169000D01*
X191327446Y-82169000D02*
X193599546Y-79896900D01*
%TO.N,/mist_control*%
X157429200Y-87591900D02*
X157454600Y-87566500D01*
X157454600Y-86131400D02*
X161874200Y-81711800D01*
X157454600Y-87566500D02*
X157454600Y-86131400D01*
X161874200Y-81711800D02*
X186704646Y-81711800D01*
X186704646Y-81711800D02*
X188519546Y-79896900D01*
%TO.N,/SCL*%
X160655000Y-96735900D02*
X160367950Y-96735900D01*
X160367950Y-96735900D02*
X157946000Y-94313950D01*
X156579000Y-86219600D02*
X161493200Y-81305400D01*
X157946000Y-94313950D02*
X157946000Y-92272106D01*
X182031046Y-81305400D02*
X183439546Y-79896900D01*
X157946000Y-92272106D02*
X156579000Y-90905106D01*
X156579000Y-90905106D02*
X156579000Y-86219600D01*
X161493200Y-81305400D02*
X182031046Y-81305400D01*
%TO.N,/SDA*%
X158115000Y-96735900D02*
X156983630Y-96735900D01*
X156178000Y-90627206D02*
X156178000Y-85909400D01*
X156983630Y-96735900D02*
X155744000Y-95496270D01*
X184797246Y-78714600D02*
X185979546Y-79896900D01*
X155744000Y-95496270D02*
X155744000Y-91061206D01*
X155744000Y-91061206D02*
X156178000Y-90627206D01*
X156178000Y-85909400D02*
X163372800Y-78714600D01*
X163372800Y-78714600D02*
X184797246Y-78714600D01*
%TO.N,/mist_control*%
X153263600Y-87591900D02*
X149844000Y-87591900D01*
X149844000Y-87591900D02*
X147828000Y-89607900D01*
D28*
%TO.N,+12V*%
X149377400Y-80213200D02*
X154940000Y-85775800D01*
X154940000Y-85775800D02*
X154940000Y-90131900D01*
X126365000Y-80213200D02*
X149377400Y-80213200D01*
X122163100Y-82236500D02*
X124186400Y-80213200D01*
D27*
%TO.N,/DHT22_Sensor*%
X199170546Y-108307255D02*
X194564000Y-103700709D01*
X194564000Y-103700709D02*
X194564000Y-101307900D01*
X194564000Y-101307900D02*
X189674500Y-96418400D01*
X187261046Y-96418400D02*
X185979546Y-95136900D01*
X189674500Y-96418400D02*
X187261046Y-96418400D01*
%TO.N,GND*%
X194230649Y-98241294D02*
X194230649Y-95768003D01*
X194230649Y-95768003D02*
X193599546Y-95136900D01*
X114666000Y-89093794D02*
X115679106Y-90106900D01*
D29*
X108833000Y-95465900D02*
X110103000Y-96735900D01*
X108833000Y-94195900D02*
X108833000Y-95465900D01*
D28*
X140636000Y-82236500D02*
X145636000Y-82236500D01*
D27*
X119412000Y-92147900D02*
X123952000Y-92147900D01*
D28*
X181503835Y-111707255D02*
X192570546Y-111707255D01*
X170438823Y-110193077D02*
X171450000Y-109181900D01*
D27*
X123952000Y-92147900D02*
X123952000Y-93312900D01*
X113615000Y-90106900D02*
X114666000Y-89055900D01*
X123952000Y-93312900D02*
X124835000Y-94195900D01*
D29*
X124835000Y-95465900D02*
X126105000Y-96735900D01*
D28*
X172466000Y-92986722D02*
X171378122Y-94074600D01*
D27*
X111615106Y-90106900D02*
X113615000Y-90106900D01*
D28*
X170438823Y-111707255D02*
X170438823Y-110193077D01*
X169042700Y-94074600D02*
X165100000Y-90131900D01*
X130635999Y-82236500D02*
X135636000Y-82236500D01*
X172466000Y-92646500D02*
X172466000Y-92986722D01*
X170438823Y-111707255D02*
X181503835Y-111707255D01*
D27*
X140522000Y-82350500D02*
X140636000Y-82236500D01*
X110602000Y-89093794D02*
X111615106Y-90106900D01*
X114666000Y-89055900D02*
X114666000Y-89093794D01*
X110602000Y-89055900D02*
X110602000Y-89093794D01*
D28*
X162560000Y-90131900D02*
X165100000Y-90131900D01*
X171378122Y-94074600D02*
X169042700Y-94074600D01*
X135636000Y-82236500D02*
X140636000Y-82236500D01*
D29*
X124835000Y-94195900D02*
X124835000Y-95465900D01*
D27*
X115679106Y-90106900D02*
X117371000Y-90106900D01*
X117371000Y-90106900D02*
X119412000Y-92147900D01*
D28*
%TO.N,+5V*%
X134233000Y-99783900D02*
X160147000Y-99783900D01*
X157480000Y-90131900D02*
X160020000Y-90131900D01*
X163195000Y-96735900D02*
X164067468Y-96735900D01*
X173553878Y-85681200D02*
X172466000Y-86769078D01*
X161925000Y-94195900D02*
X161925000Y-95465900D01*
X191269546Y-101806255D02*
X192270546Y-102807255D01*
X172466000Y-86769078D02*
X172466000Y-87109300D01*
X180202835Y-101806255D02*
X181203835Y-102807255D01*
X171378122Y-85681200D02*
X172466000Y-86769078D01*
X170138823Y-102807255D02*
X171139823Y-101806255D01*
D27*
X181388000Y-98767900D02*
X181388000Y-100989420D01*
D28*
X196139546Y-95136900D02*
X186683846Y-85681200D01*
X129915000Y-95465900D02*
X131185000Y-96735900D01*
X171139823Y-101806255D02*
X180202835Y-101806255D01*
X196139546Y-98232397D02*
X196130649Y-98241294D01*
X160020000Y-90131900D02*
X164470700Y-85681200D01*
X164470700Y-85681200D02*
X171378122Y-85681200D01*
X129915000Y-94195900D02*
X129915000Y-95465900D01*
X160147000Y-99783900D02*
X163195000Y-96735900D01*
X131185000Y-96735900D02*
X134233000Y-99783900D01*
X161925000Y-95465900D02*
X163195000Y-96735900D01*
X164067468Y-96735900D02*
X170138823Y-102807255D01*
D27*
X181388000Y-100989420D02*
X182204835Y-101806255D01*
D28*
X173553878Y-85681200D02*
X171378122Y-85681200D01*
X160020000Y-90131900D02*
X160020000Y-92290900D01*
X182204835Y-101806255D02*
X191269546Y-101806255D01*
X160020000Y-92290900D02*
X161925000Y-94195900D01*
X196139546Y-95136900D02*
X196139546Y-98232397D01*
X186683846Y-85681200D02*
X173553878Y-85681200D01*
X181203835Y-102807255D02*
X182204835Y-101806255D01*
D29*
%TO.N,/green_wire*%
X117824250Y-91655900D02*
X115376000Y-91655900D01*
X115316000Y-92792900D02*
X113913000Y-94195900D01*
X115316000Y-91715900D02*
X115316000Y-92792900D01*
X113913000Y-95465900D02*
X115183000Y-96735900D01*
X115376000Y-91655900D02*
X115316000Y-91715900D01*
X113913000Y-94195900D02*
X113913000Y-95465900D01*
%TO.N,/red_wire*%
X107981750Y-91655900D02*
X111192000Y-91655900D01*
X111252000Y-94074900D02*
X111373000Y-94195900D01*
X111192000Y-91655900D02*
X111252000Y-91715900D01*
X111373000Y-95465900D02*
X112643000Y-96735900D01*
X111252000Y-91715900D02*
X111252000Y-94074900D01*
X111373000Y-94195900D02*
X111373000Y-95465900D01*
%TO.N,/fan_signal*%
X128645000Y-96735900D02*
X127375000Y-95465900D01*
X167640000Y-98259900D02*
X172522300Y-98259900D01*
X132644000Y-100734900D02*
X164149000Y-100734900D01*
X172522300Y-98259900D02*
X180904300Y-89877900D01*
X128645000Y-96735900D02*
X132644000Y-100734900D01*
X127375000Y-95465900D02*
X127375000Y-94195900D01*
X180904300Y-89877900D02*
X187960000Y-89877900D01*
X164149000Y-100734900D02*
X164846000Y-100037900D01*
D27*
%TO.N,/window_close*%
X122412000Y-88607900D02*
X123952000Y-90147900D01*
X120888000Y-88607900D02*
X122412000Y-88607900D01*
%TO.N,/window_open*%
X106712000Y-89623900D02*
X106712000Y-87353900D01*
X106712000Y-87353900D02*
X106696000Y-87337900D01*
%TO.N,/temp_bus*%
X191083191Y-98767900D02*
X183388000Y-98767900D01*
X177038823Y-108307255D02*
X188103835Y-108307255D01*
X189703835Y-108307255D02*
X194071546Y-103939544D01*
X194071546Y-103939544D02*
X194071546Y-101756255D01*
X183388000Y-98767900D02*
X183388000Y-95188446D01*
X183388000Y-95188446D02*
X183439546Y-95136900D01*
X188103835Y-108307255D02*
X189703835Y-108307255D01*
X194071546Y-101756255D02*
X191083191Y-98767900D01*
%TO.N,/mist_control*%
X145272000Y-90893900D02*
X146542000Y-90893900D01*
X146542000Y-90893900D02*
X147828000Y-89607900D01*
%TO.N,+12V*%
X140493750Y-91401900D02*
X140986750Y-91894900D01*
D28*
X147187000Y-96735900D02*
X144647000Y-96735900D01*
X117163100Y-82236500D02*
X122163100Y-82236500D01*
D27*
X105378250Y-84021349D02*
X107163099Y-82236500D01*
X143616000Y-91894900D02*
X145917000Y-94195900D01*
D28*
X107163099Y-82236500D02*
X112163100Y-82236500D01*
X147187000Y-96735900D02*
X147187000Y-95344900D01*
X147187000Y-95344900D02*
X152400000Y-90131900D01*
X147187000Y-96735900D02*
X147187000Y-95465900D01*
X112163100Y-82236500D02*
X117163100Y-82236500D01*
D27*
X105378250Y-91655900D02*
X105378250Y-84021349D01*
D28*
X152400000Y-90131900D02*
X154940000Y-90131900D01*
X147187000Y-95465900D02*
X145917000Y-94195900D01*
D27*
X140986750Y-91894900D02*
X143616000Y-91894900D01*
%TO.N,/mist-*%
X138043000Y-91401900D02*
X140837000Y-94195900D01*
X143377000Y-94195900D02*
X140837000Y-94195900D01*
X143377000Y-95465900D02*
X142107000Y-96735900D01*
X137862000Y-91373650D02*
X137890250Y-91401900D01*
X137890250Y-91401900D02*
X138043000Y-91401900D01*
X143377000Y-94195900D02*
X143377000Y-95465900D01*
X137862000Y-88861900D02*
X137862000Y-91373650D01*
%TO.N,Net-(Q1-G)*%
X116414000Y-88607900D02*
X118888000Y-88607900D01*
X115966000Y-89055900D02*
X116414000Y-88607900D01*
%TO.N,Net-(Q2-G)*%
X111902000Y-88305901D02*
X111902000Y-89055900D01*
X110933999Y-87337900D02*
X111902000Y-88305901D01*
X108696000Y-87337900D02*
X110933999Y-87337900D01*
%TO.N,Net-(Q3-G)*%
X141890000Y-89511900D02*
X140522000Y-89511900D01*
X143272000Y-90893900D02*
X141890000Y-89511900D01*
%TD*%
M02*
