%TF.GenerationSoftware,KiCad,Pcbnew,9.0.1*%
%TF.CreationDate,2025-04-18T12:39:12-07:00*%
%TF.ProjectId,Greenhouse Board,47726565-6e68-46f7-9573-6520426f6172,rev?*%
%TF.SameCoordinates,Original*%
%TF.FileFunction,Soldermask,Top*%
%TF.FilePolarity,Negative*%
%FSLAX46Y46*%
G04 Gerber Fmt 4.6, Leading zero omitted, Abs format (unit mm)*
G04 Created by KiCad (PCBNEW 9.0.1) date 2025-04-18 12:39:12*
%MOMM*%
%LPD*%
G01*
G04 APERTURE LIST*
G04 Aperture macros list*
%AMRoundRect*
0 Rectangle with rounded corners*
0 $1 Rounding radius*
0 $2 $3 $4 $5 $6 $7 $8 $9 X,Y pos of 4 corners*
0 Add a 4 corners polygon primitive as box body*
4,1,4,$2,$3,$4,$5,$6,$7,$8,$9,$2,$3,0*
0 Add four circle primitives for the rounded corners*
1,1,$1+$1,$2,$3*
1,1,$1+$1,$4,$5*
1,1,$1+$1,$6,$7*
1,1,$1+$1,$8,$9*
0 Add four rect primitives between the rounded corners*
20,1,$1+$1,$2,$3,$4,$5,0*
20,1,$1+$1,$4,$5,$6,$7,0*
20,1,$1+$1,$6,$7,$8,$9,0*
20,1,$1+$1,$8,$9,$2,$3,0*%
G04 Aperture macros list end*
%ADD10RoundRect,0.102000X-0.679000X0.679000X-0.679000X-0.679000X0.679000X-0.679000X0.679000X0.679000X0*%
%ADD11C,1.562000*%
%ADD12C,3.200000*%
%ADD13C,3.250000*%
%ADD14C,1.600000*%
%ADD15RoundRect,0.250000X-0.350000X-0.450000X0.350000X-0.450000X0.350000X0.450000X-0.350000X0.450000X0*%
%ADD16RoundRect,0.112500X0.112500X0.637500X-0.112500X0.637500X-0.112500X-0.637500X0.112500X-0.637500X0*%
%ADD17RoundRect,0.250000X0.250000X0.475000X-0.250000X0.475000X-0.250000X-0.475000X0.250000X-0.475000X0*%
%ADD18R,0.800100X0.355600*%
%ADD19O,1.200000X2.000000*%
%ADD20RoundRect,0.250000X0.350000X0.450000X-0.350000X0.450000X-0.350000X-0.450000X0.350000X-0.450000X0*%
%ADD21C,1.803400*%
%ADD22RoundRect,0.250000X-0.450000X0.350000X-0.450000X-0.350000X0.450000X-0.350000X0.450000X0.350000X0*%
%ADD23C,1.500000*%
%ADD24RoundRect,0.102000X1.400000X-0.750000X1.400000X0.750000X-1.400000X0.750000X-1.400000X-0.750000X0*%
%ADD25RoundRect,0.102000X1.500000X-0.750000X1.500000X0.750000X-1.500000X0.750000X-1.500000X-0.750000X0*%
%ADD26RoundRect,0.250000X0.450000X-0.350000X0.450000X0.350000X-0.450000X0.350000X-0.450000X-0.350000X0*%
%ADD27R,2.489200X2.260600*%
%ADD28RoundRect,0.112500X0.637500X-0.112500X0.637500X0.112500X-0.637500X0.112500X-0.637500X-0.112500X0*%
G04 APERTURE END LIST*
D10*
%TO.C,U1*%
X196138800Y-79908400D03*
D11*
X193598800Y-79908400D03*
X191058800Y-79908400D03*
X188518800Y-79908400D03*
X185978800Y-79908400D03*
X183438800Y-79908400D03*
X180898800Y-79908400D03*
X180898800Y-95148400D03*
X183438800Y-95148400D03*
X185978800Y-95148400D03*
X188518800Y-95148400D03*
X191058800Y-95148400D03*
X193598800Y-95148400D03*
X196138800Y-95148400D03*
%TD*%
D12*
%TO.C,H4*%
X100076000Y-108966000D03*
%TD*%
%TO.C,H3*%
X100076000Y-82550000D03*
%TD*%
%TO.C,H2*%
X204724000Y-108966000D03*
%TD*%
%TO.C,H1*%
X204724000Y-82550000D03*
%TD*%
D13*
%TO.C,J5*%
X165100000Y-103085900D03*
X154940000Y-103085900D03*
D14*
X163195000Y-96735900D03*
X161925000Y-94195900D03*
X160655000Y-96735900D03*
X159385000Y-94195900D03*
X158115000Y-96735900D03*
X156845000Y-94195900D03*
%TD*%
D15*
%TO.C,R1*%
X106696000Y-87337900D03*
X108696000Y-87337900D03*
%TD*%
D16*
%TO.C,Q2*%
X111902000Y-89055900D03*
X110602000Y-89055900D03*
X111252000Y-91715900D03*
%TD*%
D17*
%TO.C,C3*%
X196130649Y-98241294D03*
X194230649Y-98241294D03*
%TD*%
D18*
%TO.C,D1*%
X140493750Y-91401900D03*
X137890250Y-91401900D03*
%TD*%
D19*
%TO.C,U2*%
X162560000Y-90131900D03*
X165100000Y-90131900D03*
X157480000Y-90131900D03*
X160020000Y-90131900D03*
X152400000Y-90131900D03*
X154940000Y-90131900D03*
%TD*%
D20*
%TO.C,R4*%
X120888000Y-88607900D03*
X118888000Y-88607900D03*
%TD*%
D21*
%TO.C,J1*%
X122163100Y-82236500D03*
X117163100Y-82236500D03*
X112163100Y-82236500D03*
X107163099Y-82236500D03*
%TD*%
D22*
%TO.C,R3*%
X123952000Y-90147900D03*
X123952000Y-92147900D03*
%TD*%
D21*
%TO.C,J6*%
X145636000Y-82236500D03*
X140636000Y-82236500D03*
X135636000Y-82236500D03*
X130635999Y-82236500D03*
%TD*%
D23*
%TO.C,J9*%
X184803835Y-103307255D03*
D24*
X181503835Y-111707255D03*
D25*
X181203835Y-102807255D03*
D24*
X188103835Y-108307255D03*
%TD*%
D23*
%TO.C,J7*%
X195870546Y-103307255D03*
D24*
X192570546Y-111707255D03*
D25*
X192270546Y-102807255D03*
D24*
X199170546Y-108307255D03*
%TD*%
D13*
%TO.C,J4*%
X149092000Y-103085900D03*
X138932000Y-103085900D03*
D14*
X147187000Y-96735900D03*
X145917000Y-94195900D03*
X144647000Y-96735900D03*
X143377000Y-94195900D03*
X142107000Y-96735900D03*
X140837000Y-94195900D03*
%TD*%
D13*
%TO.C,J2*%
X117088000Y-103085900D03*
X106928000Y-103085900D03*
D14*
X115183000Y-96735900D03*
X113913000Y-94195900D03*
X112643000Y-96735900D03*
X111373000Y-94195900D03*
X110103000Y-96735900D03*
X108833000Y-94195900D03*
%TD*%
D13*
%TO.C,J3*%
X133090000Y-103085900D03*
X122930000Y-103085900D03*
D14*
X131185000Y-96735900D03*
X129915000Y-94195900D03*
X128645000Y-96735900D03*
X127375000Y-94195900D03*
X126105000Y-96735900D03*
X124835000Y-94195900D03*
%TD*%
D16*
%TO.C,Q1*%
X115966000Y-89055900D03*
X114666000Y-89055900D03*
X115316000Y-91715900D03*
%TD*%
D26*
%TO.C,R5*%
X147828000Y-89607900D03*
X147828000Y-87607900D03*
%TD*%
D15*
%TO.C,R9*%
X181388000Y-98767900D03*
X183388000Y-98767900D03*
%TD*%
D18*
%TO.C,D3*%
X105378250Y-91655900D03*
X107981750Y-91655900D03*
%TD*%
D27*
%TO.C,C2*%
X172466000Y-87109300D03*
X172466000Y-92646500D03*
%TD*%
D18*
%TO.C,D2*%
X120427750Y-91655900D03*
X117824250Y-91655900D03*
%TD*%
D15*
%TO.C,R2*%
X106712000Y-89623900D03*
X108712000Y-89623900D03*
%TD*%
D23*
%TO.C,J8*%
X173738823Y-103307255D03*
D24*
X170438823Y-111707255D03*
D25*
X170138823Y-102807255D03*
D24*
X177038823Y-108307255D03*
%TD*%
D20*
%TO.C,R6*%
X145272000Y-90893900D03*
X143272000Y-90893900D03*
%TD*%
D28*
%TO.C,Q3*%
X140522000Y-89511900D03*
X140522000Y-88211900D03*
X137862000Y-88861900D03*
%TD*%
M02*
