%TF.GenerationSoftware,KiCad,Pcbnew,9.0.1*%
%TF.CreationDate,2025-04-18T12:39:12-07:00*%
%TF.ProjectId,Greenhouse Board,47726565-6e68-46f7-9573-6520426f6172,rev?*%
%TF.SameCoordinates,Original*%
%TF.FileFunction,Copper,L2,Bot*%
%TF.FilePolarity,Positive*%
%FSLAX46Y46*%
G04 Gerber Fmt 4.6, Leading zero omitted, Abs format (unit mm)*
G04 Created by KiCad (PCBNEW 9.0.1) date 2025-04-18 12:39:12*
%MOMM*%
%LPD*%
G01*
G04 APERTURE LIST*
%TA.AperFunction,ComponentPad*%
%ADD10R,1.358000X1.358000*%
%TD*%
%TA.AperFunction,ComponentPad*%
%ADD11C,1.358000*%
%TD*%
%TA.AperFunction,ComponentPad*%
%ADD12C,1.600000*%
%TD*%
%TA.AperFunction,ComponentPad*%
%ADD13O,1.200000X2.000000*%
%TD*%
%TA.AperFunction,ComponentPad*%
%ADD14C,1.803400*%
%TD*%
%TA.AperFunction,ViaPad*%
%ADD15C,0.600000*%
%TD*%
%TA.AperFunction,Conductor*%
%ADD16C,0.200000*%
%TD*%
%TA.AperFunction,Conductor*%
%ADD17C,0.500000*%
%TD*%
G04 APERTURE END LIST*
D10*
%TO.P,U1,1,D0*%
%TO.N,/window_close*%
X196138800Y-79908400D03*
D11*
%TO.P,U1,2,D1*%
%TO.N,/window_open*%
X193598800Y-79908400D03*
%TO.P,U1,3,D2*%
%TO.N,/fan_signal*%
X191058800Y-79908400D03*
%TO.P,U1,4,D3*%
%TO.N,/mist_control*%
X188518800Y-79908400D03*
%TO.P,U1,5,D4*%
%TO.N,/SDA*%
X185978800Y-79908400D03*
%TO.P,U1,6,D5*%
%TO.N,/SCL*%
X183438800Y-79908400D03*
%TO.P,U1,7,TX_D6*%
%TO.N,unconnected-(U1-TX_D6-Pad7)*%
X180898800Y-79908400D03*
%TO.P,U1,8,RX_D7*%
%TO.N,unconnected-(U1-RX_D7-Pad8)*%
X180898800Y-95148400D03*
%TO.P,U1,9,D8*%
%TO.N,/temp_bus*%
X183438800Y-95148400D03*
%TO.P,U1,10,D9*%
%TO.N,/DHT22_Sensor*%
X185978800Y-95148400D03*
%TO.P,U1,11,D10*%
%TO.N,unconnected-(U1-D10-Pad11)*%
X188518800Y-95148400D03*
%TO.P,U1,12,VCC_3V3*%
%TO.N,unconnected-(U1-VCC_3V3-Pad12)*%
X191058800Y-95148400D03*
%TO.P,U1,13,GND*%
%TO.N,GND*%
X193598800Y-95148400D03*
%TO.P,U1,14,VUSB*%
%TO.N,+5V*%
X196138800Y-95148400D03*
%TD*%
D12*
%TO.P,J5,1*%
%TO.N,+5V*%
X163195000Y-96735900D03*
%TO.P,J5,2*%
X161925000Y-94195900D03*
%TO.P,J5,3*%
%TO.N,/SCL*%
X160655000Y-96735900D03*
%TO.P,J5,4*%
%TO.N,GND*%
X159385000Y-94195900D03*
%TO.P,J5,5*%
%TO.N,/SDA*%
X158115000Y-96735900D03*
%TO.P,J5,6*%
%TO.N,GND*%
X156845000Y-94195900D03*
%TD*%
D13*
%TO.P,U2,1,GND*%
%TO.N,GND*%
X162560000Y-90131900D03*
X165100000Y-90131900D03*
%TO.P,U2,2,5V*%
%TO.N,+5V*%
X157480000Y-90131900D03*
X160020000Y-90131900D03*
%TO.P,U2,3,12V*%
%TO.N,+12V*%
X152400000Y-90131900D03*
X154940000Y-90131900D03*
%TD*%
D14*
%TO.P,J1,1,1*%
%TO.N,+12V*%
X122163100Y-82236500D03*
%TO.P,J1,2,2*%
X117163100Y-82236500D03*
%TO.P,J1,3,3*%
X112163100Y-82236500D03*
%TO.P,J1,4,4*%
X107163099Y-82236500D03*
%TD*%
%TO.P,J6,1,1*%
%TO.N,GND*%
X145636000Y-82236500D03*
%TO.P,J6,2,2*%
X140636000Y-82236500D03*
%TO.P,J6,3,3*%
X135636000Y-82236500D03*
%TO.P,J6,4,4*%
X130635999Y-82236500D03*
%TD*%
D12*
%TO.P,J4,1*%
%TO.N,+12V*%
X147187000Y-96735900D03*
%TO.P,J4,2*%
X145917000Y-94195900D03*
%TO.P,J4,3*%
X144647000Y-96735900D03*
%TO.P,J4,4*%
%TO.N,/mist-*%
X143377000Y-94195900D03*
%TO.P,J4,5*%
X142107000Y-96735900D03*
%TO.P,J4,6*%
X140837000Y-94195900D03*
%TD*%
%TO.P,J2,1*%
%TO.N,/green_wire*%
X115183000Y-96735900D03*
%TO.P,J2,2*%
X113913000Y-94195900D03*
%TO.P,J2,3*%
%TO.N,/red_wire*%
X112643000Y-96735900D03*
%TO.P,J2,4*%
X111373000Y-94195900D03*
%TO.P,J2,5*%
%TO.N,GND*%
X110103000Y-96735900D03*
%TO.P,J2,6*%
X108833000Y-94195900D03*
%TD*%
%TO.P,J3,1*%
%TO.N,+5V*%
X131185000Y-96735900D03*
%TO.P,J3,2*%
X129915000Y-94195900D03*
%TO.P,J3,3*%
%TO.N,/fan_signal*%
X128645000Y-96735900D03*
%TO.P,J3,4*%
X127375000Y-94195900D03*
%TO.P,J3,5*%
%TO.N,GND*%
X126105000Y-96735900D03*
%TO.P,J3,6*%
X124835000Y-94195900D03*
%TD*%
D15*
%TO.N,GND*%
X144373600Y-88671400D03*
%TO.N,+12V*%
X122148600Y-90297000D03*
%TO.N,GND*%
X171450000Y-109181900D03*
%TO.N,/fan_signal*%
X167640000Y-98259900D03*
X164846000Y-100037900D03*
X187960000Y-89877900D03*
%TO.N,/window_close*%
X152628600Y-86830900D03*
X159102568Y-86853322D03*
%TO.N,/window_open*%
X158445200Y-86229900D03*
X153365200Y-86229900D03*
%TO.N,/mist_control*%
X157429200Y-87591900D03*
X153263600Y-87591900D03*
%TD*%
D16*
%TO.N,/window_close*%
X159102568Y-86853322D02*
X159080146Y-86830900D01*
X159080146Y-86830900D02*
X152628600Y-86830900D01*
%TO.N,/window_open*%
X153365200Y-86229900D02*
X153457200Y-86321900D01*
X158353200Y-86321900D02*
X158445200Y-86229900D01*
X153457200Y-86321900D02*
X158353200Y-86321900D01*
%TO.N,+12V*%
X122148600Y-90297000D02*
X122163100Y-90282500D01*
X122163100Y-90282500D02*
X122163100Y-82236500D01*
%TO.N,/mist_control*%
X153263600Y-87591900D02*
X157429200Y-87591900D01*
D17*
%TO.N,/fan_signal*%
X187960000Y-89877900D02*
X191059546Y-86778354D01*
X191059546Y-86778354D02*
X191059546Y-79896900D01*
X164846000Y-100037900D02*
X166624000Y-98259900D01*
X166624000Y-98259900D02*
X167640000Y-98259900D01*
%TD*%
%TA.AperFunction,Conductor*%
%TO.N,GND*%
G36*
X110901535Y-95410137D02*
G01*
X110979284Y-95435400D01*
X111068465Y-95464377D01*
X111102389Y-95469750D01*
X111270648Y-95496400D01*
X111270649Y-95496400D01*
X111475351Y-95496400D01*
X111475352Y-95496400D01*
X111677534Y-95464377D01*
X111842932Y-95410635D01*
X111912768Y-95408640D01*
X111972601Y-95444720D01*
X112003430Y-95507421D01*
X111995466Y-95576835D01*
X111954131Y-95628885D01*
X111795787Y-95743928D01*
X111795782Y-95743932D01*
X111651028Y-95888686D01*
X111530713Y-96054288D01*
X111483203Y-96147530D01*
X111435228Y-96198326D01*
X111367407Y-96215120D01*
X111301272Y-96192582D01*
X111262234Y-96147528D01*
X111214861Y-96054552D01*
X111182474Y-96009977D01*
X111182474Y-96009976D01*
X110541055Y-96651396D01*
X110517674Y-96564136D01*
X110459089Y-96462664D01*
X110376236Y-96379811D01*
X110274764Y-96321226D01*
X110187501Y-96297844D01*
X110828922Y-95656424D01*
X110828921Y-95656423D01*
X110790333Y-95628387D01*
X110747667Y-95573058D01*
X110741688Y-95503444D01*
X110774293Y-95441649D01*
X110835132Y-95407292D01*
X110901535Y-95410137D01*
G37*
%TD.AperFunction*%
%TA.AperFunction,Conductor*%
G36*
X109912474Y-94921821D02*
G01*
X109944861Y-94877247D01*
X109944861Y-94877246D01*
X109992234Y-94784271D01*
X110040208Y-94733475D01*
X110108028Y-94716679D01*
X110174164Y-94739216D01*
X110213203Y-94784269D01*
X110260713Y-94877511D01*
X110381028Y-95043113D01*
X110381034Y-95043119D01*
X110525781Y-95187866D01*
X110685439Y-95303863D01*
X110728105Y-95359193D01*
X110734084Y-95428807D01*
X110701479Y-95490602D01*
X110640640Y-95524959D01*
X110574235Y-95522113D01*
X110407417Y-95467909D01*
X110205317Y-95435900D01*
X110000683Y-95435900D01*
X109798581Y-95467910D01*
X109798578Y-95467910D01*
X109630226Y-95522612D01*
X109560385Y-95524607D01*
X109500552Y-95488527D01*
X109469724Y-95425826D01*
X109477689Y-95356412D01*
X109519022Y-95304363D01*
X109558921Y-95275373D01*
X108917502Y-94633955D01*
X109004764Y-94610574D01*
X109106236Y-94551989D01*
X109189089Y-94469136D01*
X109247674Y-94367664D01*
X109271055Y-94280402D01*
X109912474Y-94921821D01*
G37*
%TD.AperFunction*%
%TA.AperFunction,Conductor*%
G36*
X126903535Y-95410137D02*
G01*
X126981284Y-95435400D01*
X127070465Y-95464377D01*
X127104389Y-95469750D01*
X127272648Y-95496400D01*
X127272649Y-95496400D01*
X127477351Y-95496400D01*
X127477352Y-95496400D01*
X127679534Y-95464377D01*
X127844932Y-95410635D01*
X127914768Y-95408640D01*
X127974601Y-95444720D01*
X128005430Y-95507421D01*
X127997466Y-95576835D01*
X127956131Y-95628885D01*
X127797787Y-95743928D01*
X127797782Y-95743932D01*
X127653028Y-95888686D01*
X127532713Y-96054288D01*
X127485203Y-96147530D01*
X127437228Y-96198326D01*
X127369407Y-96215120D01*
X127303272Y-96192582D01*
X127264234Y-96147528D01*
X127216861Y-96054552D01*
X127184474Y-96009977D01*
X127184474Y-96009976D01*
X126543055Y-96651396D01*
X126519674Y-96564136D01*
X126461089Y-96462664D01*
X126378236Y-96379811D01*
X126276764Y-96321226D01*
X126189501Y-96297844D01*
X126830922Y-95656424D01*
X126830921Y-95656423D01*
X126792333Y-95628387D01*
X126749667Y-95573058D01*
X126743688Y-95503444D01*
X126776293Y-95441649D01*
X126837132Y-95407292D01*
X126903535Y-95410137D01*
G37*
%TD.AperFunction*%
%TA.AperFunction,Conductor*%
G36*
X125914474Y-94921821D02*
G01*
X125946861Y-94877247D01*
X125946861Y-94877246D01*
X125994234Y-94784271D01*
X126042208Y-94733475D01*
X126110028Y-94716679D01*
X126176164Y-94739216D01*
X126215203Y-94784269D01*
X126262713Y-94877511D01*
X126383028Y-95043113D01*
X126383034Y-95043119D01*
X126527781Y-95187866D01*
X126687439Y-95303863D01*
X126730105Y-95359193D01*
X126736084Y-95428807D01*
X126703479Y-95490602D01*
X126642640Y-95524959D01*
X126576235Y-95522113D01*
X126409417Y-95467909D01*
X126207317Y-95435900D01*
X126002683Y-95435900D01*
X125800581Y-95467910D01*
X125800578Y-95467910D01*
X125632226Y-95522612D01*
X125562385Y-95524607D01*
X125502552Y-95488527D01*
X125471724Y-95425826D01*
X125479689Y-95356412D01*
X125521022Y-95304363D01*
X125560921Y-95275373D01*
X124919502Y-94633955D01*
X125006764Y-94610574D01*
X125108236Y-94551989D01*
X125191089Y-94469136D01*
X125249674Y-94367664D01*
X125273055Y-94280402D01*
X125914474Y-94921821D01*
G37*
%TD.AperFunction*%
%TA.AperFunction,Conductor*%
G36*
X158970326Y-94367664D02*
G01*
X159028911Y-94469136D01*
X159111764Y-94551989D01*
X159213236Y-94610574D01*
X159300497Y-94633955D01*
X158659076Y-95275374D01*
X158697668Y-95303413D01*
X158740333Y-95358743D01*
X158746312Y-95428357D01*
X158713706Y-95490152D01*
X158652867Y-95524509D01*
X158586464Y-95521662D01*
X158529004Y-95502992D01*
X158419534Y-95467422D01*
X158244995Y-95439778D01*
X158217352Y-95435400D01*
X158012648Y-95435400D01*
X157959803Y-95443770D01*
X157810464Y-95467423D01*
X157810461Y-95467423D01*
X157643534Y-95521662D01*
X157573693Y-95523657D01*
X157513860Y-95487577D01*
X157483032Y-95424876D01*
X157490997Y-95355462D01*
X157532330Y-95303413D01*
X157570921Y-95275373D01*
X156929502Y-94633955D01*
X157016764Y-94610574D01*
X157118236Y-94551989D01*
X157201089Y-94469136D01*
X157259674Y-94367664D01*
X157283055Y-94280403D01*
X157924474Y-94921822D01*
X157924474Y-94921821D01*
X157956861Y-94877247D01*
X157956861Y-94877246D01*
X158004515Y-94783720D01*
X158052489Y-94732924D01*
X158120310Y-94716128D01*
X158186445Y-94738665D01*
X158225485Y-94783719D01*
X158273141Y-94877250D01*
X158273147Y-94877259D01*
X158305523Y-94921821D01*
X158305524Y-94921822D01*
X158946944Y-94280402D01*
X158970326Y-94367664D01*
G37*
%TD.AperFunction*%
%TA.AperFunction,Conductor*%
G36*
X160464474Y-94921822D02*
G01*
X160464474Y-94921821D01*
X160496861Y-94877247D01*
X160496861Y-94877246D01*
X160544234Y-94784271D01*
X160592208Y-94733475D01*
X160660028Y-94716679D01*
X160726164Y-94739216D01*
X160765203Y-94784269D01*
X160812713Y-94877511D01*
X160933028Y-95043113D01*
X161077782Y-95187867D01*
X161077787Y-95187871D01*
X161236131Y-95302914D01*
X161278797Y-95358243D01*
X161284776Y-95427857D01*
X161252171Y-95489652D01*
X161191332Y-95524009D01*
X161124928Y-95521163D01*
X161065806Y-95501953D01*
X160959534Y-95467422D01*
X160784995Y-95439778D01*
X160757352Y-95435400D01*
X160552648Y-95435400D01*
X160499803Y-95443770D01*
X160350464Y-95467423D01*
X160350461Y-95467423D01*
X160183534Y-95521662D01*
X160113693Y-95523657D01*
X160053860Y-95487577D01*
X160023032Y-95424876D01*
X160030997Y-95355462D01*
X160072330Y-95303413D01*
X160110921Y-95275373D01*
X159469502Y-94633955D01*
X159556764Y-94610574D01*
X159658236Y-94551989D01*
X159741089Y-94469136D01*
X159799674Y-94367664D01*
X159823055Y-94280403D01*
X160464474Y-94921822D01*
G37*
%TD.AperFunction*%
%TA.AperFunction,Conductor*%
G36*
X208603539Y-77848427D02*
G01*
X208649294Y-77901231D01*
X208660500Y-77952742D01*
X208660500Y-113310234D01*
X208640815Y-113377273D01*
X208588011Y-113423028D01*
X208536500Y-113434234D01*
X197980673Y-113434234D01*
X197913634Y-113414549D01*
X197867879Y-113361745D01*
X197856677Y-113311182D01*
X197852050Y-112706276D01*
X197852050Y-112706274D01*
X197852046Y-112705749D01*
X197852046Y-112657030D01*
X197851663Y-112655602D01*
X197851652Y-112654119D01*
X197851651Y-112654115D01*
X197851651Y-112654113D01*
X197838665Y-112607092D01*
X197826047Y-112560001D01*
X197825310Y-112558725D01*
X197824916Y-112557298D01*
X197824910Y-112557289D01*
X197824910Y-112557286D01*
X197800419Y-112515607D01*
X197800030Y-112514939D01*
X197775822Y-112473008D01*
X197775821Y-112473007D01*
X197775820Y-112473005D01*
X197774648Y-112471478D01*
X197774637Y-112471464D01*
X197774077Y-112470734D01*
X197739620Y-112436801D01*
X197738945Y-112436131D01*
X197704798Y-112401983D01*
X197703226Y-112400777D01*
X197703223Y-112400774D01*
X197702522Y-112400236D01*
X197688092Y-112392052D01*
X197660349Y-112376317D01*
X197659755Y-112375977D01*
X197617800Y-112351754D01*
X197617798Y-112351753D01*
X197617796Y-112351752D01*
X197616008Y-112351011D01*
X197616007Y-112351010D01*
X197615165Y-112350661D01*
X197568338Y-112338496D01*
X197568338Y-112338495D01*
X197567658Y-112338318D01*
X197520771Y-112325755D01*
X197519289Y-112325755D01*
X197517849Y-112325381D01*
X197469892Y-112325748D01*
X197469588Y-112325751D01*
X197468640Y-112325755D01*
X194320771Y-112325755D01*
X194220321Y-112325755D01*
X194147549Y-112345254D01*
X194123291Y-112351754D01*
X194036300Y-112401978D01*
X194036297Y-112401980D01*
X193965271Y-112473006D01*
X193965269Y-112473009D01*
X193915045Y-112560000D01*
X193915045Y-112560001D01*
X193889046Y-112657030D01*
X193889046Y-112657032D01*
X193889046Y-113301755D01*
X193869361Y-113368794D01*
X193816557Y-113414549D01*
X193765046Y-113425755D01*
X186909335Y-113425755D01*
X186842296Y-113406070D01*
X186796541Y-113353266D01*
X186785335Y-113301755D01*
X186785335Y-112657032D01*
X186785335Y-112657030D01*
X186759336Y-112560001D01*
X186709111Y-112473008D01*
X186638082Y-112401979D01*
X186551089Y-112351754D01*
X186551090Y-112351754D01*
X186526831Y-112345254D01*
X186454060Y-112325755D01*
X183254060Y-112325755D01*
X183153610Y-112325755D01*
X183080838Y-112345254D01*
X183056580Y-112351754D01*
X182969589Y-112401978D01*
X182969586Y-112401980D01*
X182898560Y-112473006D01*
X182898558Y-112473009D01*
X182848334Y-112560000D01*
X182848334Y-112560001D01*
X182822335Y-112657030D01*
X182822335Y-112657032D01*
X182822335Y-113301755D01*
X182802650Y-113368794D01*
X182749846Y-113414549D01*
X182698335Y-113425755D01*
X175844323Y-113425755D01*
X175777284Y-113406070D01*
X175731529Y-113353266D01*
X175720323Y-113301755D01*
X175720323Y-112657032D01*
X175720323Y-112657030D01*
X175694324Y-112560001D01*
X175644099Y-112473008D01*
X175573070Y-112401979D01*
X175486077Y-112351754D01*
X175486078Y-112351754D01*
X175461819Y-112345254D01*
X175389048Y-112325755D01*
X172189048Y-112325755D01*
X172088598Y-112325755D01*
X172015826Y-112345254D01*
X171991568Y-112351754D01*
X171904577Y-112401978D01*
X171904574Y-112401980D01*
X171833548Y-112473006D01*
X171833546Y-112473009D01*
X171783322Y-112560000D01*
X171783322Y-112560001D01*
X171757323Y-112657030D01*
X171757323Y-112657032D01*
X171757323Y-113301817D01*
X171737638Y-113368856D01*
X171684834Y-113414611D01*
X171633338Y-113425817D01*
X96331865Y-113435146D01*
X96264823Y-113415470D01*
X96219062Y-113362671D01*
X96207850Y-113311146D01*
X96207850Y-108844711D01*
X98225500Y-108844711D01*
X98225500Y-109087288D01*
X98257161Y-109327785D01*
X98319947Y-109562104D01*
X98412773Y-109786205D01*
X98412776Y-109786212D01*
X98534064Y-109996289D01*
X98534066Y-109996292D01*
X98534067Y-109996293D01*
X98681733Y-110188736D01*
X98681739Y-110188743D01*
X98853256Y-110360260D01*
X98853262Y-110360265D01*
X99045711Y-110507936D01*
X99255788Y-110629224D01*
X99479900Y-110722054D01*
X99714211Y-110784838D01*
X99894586Y-110808584D01*
X99954711Y-110816500D01*
X99954712Y-110816500D01*
X100197289Y-110816500D01*
X100245388Y-110810167D01*
X100437789Y-110784838D01*
X100672100Y-110722054D01*
X100896212Y-110629224D01*
X101106289Y-110507936D01*
X101298738Y-110360265D01*
X101470265Y-110188738D01*
X101617936Y-109996289D01*
X101739224Y-109786212D01*
X101832054Y-109562100D01*
X101894838Y-109327789D01*
X101926500Y-109087288D01*
X101926500Y-108844712D01*
X101926500Y-108844711D01*
X202873500Y-108844711D01*
X202873500Y-109087288D01*
X202905161Y-109327785D01*
X202967947Y-109562104D01*
X203060773Y-109786205D01*
X203060776Y-109786212D01*
X203182064Y-109996289D01*
X203182066Y-109996292D01*
X203182067Y-109996293D01*
X203329733Y-110188736D01*
X203329739Y-110188743D01*
X203501256Y-110360260D01*
X203501262Y-110360265D01*
X203693711Y-110507936D01*
X203903788Y-110629224D01*
X204127900Y-110722054D01*
X204362211Y-110784838D01*
X204542586Y-110808584D01*
X204602711Y-110816500D01*
X204602712Y-110816500D01*
X204845289Y-110816500D01*
X204893388Y-110810167D01*
X205085789Y-110784838D01*
X205320100Y-110722054D01*
X205544212Y-110629224D01*
X205754289Y-110507936D01*
X205946738Y-110360265D01*
X206118265Y-110188738D01*
X206265936Y-109996289D01*
X206387224Y-109786212D01*
X206480054Y-109562100D01*
X206542838Y-109327789D01*
X206574500Y-109087288D01*
X206574500Y-108844712D01*
X206542838Y-108604211D01*
X206480054Y-108369900D01*
X206387224Y-108145788D01*
X206265936Y-107935711D01*
X206118265Y-107743262D01*
X206118260Y-107743256D01*
X205946743Y-107571739D01*
X205946736Y-107571733D01*
X205754293Y-107424067D01*
X205754292Y-107424066D01*
X205754289Y-107424064D01*
X205544212Y-107302776D01*
X205544205Y-107302773D01*
X205320104Y-107209947D01*
X205085785Y-107147161D01*
X204845289Y-107115500D01*
X204845288Y-107115500D01*
X204602712Y-107115500D01*
X204602711Y-107115500D01*
X204362214Y-107147161D01*
X204127895Y-107209947D01*
X203903794Y-107302773D01*
X203903785Y-107302777D01*
X203693706Y-107424067D01*
X203501263Y-107571733D01*
X203501256Y-107571739D01*
X203329739Y-107743256D01*
X203329733Y-107743263D01*
X203182067Y-107935706D01*
X203060777Y-108145785D01*
X203060773Y-108145794D01*
X202967947Y-108369895D01*
X202905161Y-108604214D01*
X202873500Y-108844711D01*
X101926500Y-108844711D01*
X101894838Y-108604211D01*
X101832054Y-108369900D01*
X101739224Y-108145788D01*
X101617936Y-107935711D01*
X101470265Y-107743262D01*
X101470260Y-107743256D01*
X101298743Y-107571739D01*
X101298736Y-107571733D01*
X101106293Y-107424067D01*
X101106292Y-107424066D01*
X101106289Y-107424064D01*
X100896212Y-107302776D01*
X100896205Y-107302773D01*
X100672104Y-107209947D01*
X100437785Y-107147161D01*
X100197289Y-107115500D01*
X100197288Y-107115500D01*
X99954712Y-107115500D01*
X99954711Y-107115500D01*
X99714214Y-107147161D01*
X99479895Y-107209947D01*
X99255794Y-107302773D01*
X99255785Y-107302777D01*
X99045706Y-107424067D01*
X98853263Y-107571733D01*
X98853256Y-107571739D01*
X98681739Y-107743256D01*
X98681733Y-107743263D01*
X98534067Y-107935706D01*
X98412777Y-108145785D01*
X98412773Y-108145794D01*
X98319947Y-108369895D01*
X98257161Y-108604214D01*
X98225500Y-108844711D01*
X96207850Y-108844711D01*
X96207850Y-102962965D01*
X105052500Y-102962965D01*
X105052500Y-103208834D01*
X105078432Y-103405796D01*
X105084591Y-103452577D01*
X105084592Y-103452579D01*
X105148222Y-103690052D01*
X105148225Y-103690062D01*
X105242303Y-103917185D01*
X105242306Y-103917192D01*
X105365233Y-104130108D01*
X105365235Y-104130111D01*
X105365236Y-104130112D01*
X105514897Y-104325154D01*
X105514903Y-104325161D01*
X105688738Y-104498996D01*
X105688744Y-104499001D01*
X105883792Y-104648667D01*
X106096708Y-104771594D01*
X106323847Y-104865678D01*
X106561323Y-104929309D01*
X106805073Y-104961400D01*
X106805080Y-104961400D01*
X107050920Y-104961400D01*
X107050927Y-104961400D01*
X107294677Y-104929309D01*
X107532153Y-104865678D01*
X107759292Y-104771594D01*
X107972208Y-104648667D01*
X108167256Y-104499001D01*
X108341101Y-104325156D01*
X108490767Y-104130108D01*
X108613694Y-103917192D01*
X108707778Y-103690053D01*
X108771409Y-103452577D01*
X108803500Y-103208827D01*
X108803500Y-102962973D01*
X108803499Y-102962965D01*
X115212500Y-102962965D01*
X115212500Y-103208834D01*
X115238432Y-103405796D01*
X115244591Y-103452577D01*
X115244592Y-103452579D01*
X115308222Y-103690052D01*
X115308225Y-103690062D01*
X115402303Y-103917185D01*
X115402306Y-103917192D01*
X115525233Y-104130108D01*
X115525235Y-104130111D01*
X115525236Y-104130112D01*
X115674897Y-104325154D01*
X115674903Y-104325161D01*
X115848738Y-104498996D01*
X115848744Y-104499001D01*
X116043792Y-104648667D01*
X116256708Y-104771594D01*
X116483847Y-104865678D01*
X116721323Y-104929309D01*
X116965073Y-104961400D01*
X116965080Y-104961400D01*
X117210920Y-104961400D01*
X117210927Y-104961400D01*
X117454677Y-104929309D01*
X117692153Y-104865678D01*
X117919292Y-104771594D01*
X118132208Y-104648667D01*
X118327256Y-104499001D01*
X118501101Y-104325156D01*
X118650767Y-104130108D01*
X118773694Y-103917192D01*
X118867778Y-103690053D01*
X118931409Y-103452577D01*
X118963500Y-103208827D01*
X118963500Y-102962973D01*
X118963499Y-102962965D01*
X121054500Y-102962965D01*
X121054500Y-103208834D01*
X121080432Y-103405796D01*
X121086591Y-103452577D01*
X121086592Y-103452579D01*
X121150222Y-103690052D01*
X121150225Y-103690062D01*
X121244303Y-103917185D01*
X121244306Y-103917192D01*
X121367233Y-104130108D01*
X121367235Y-104130111D01*
X121367236Y-104130112D01*
X121516897Y-104325154D01*
X121516903Y-104325161D01*
X121690738Y-104498996D01*
X121690744Y-104499001D01*
X121885792Y-104648667D01*
X122098708Y-104771594D01*
X122325847Y-104865678D01*
X122563323Y-104929309D01*
X122807073Y-104961400D01*
X122807080Y-104961400D01*
X123052920Y-104961400D01*
X123052927Y-104961400D01*
X123296677Y-104929309D01*
X123534153Y-104865678D01*
X123761292Y-104771594D01*
X123974208Y-104648667D01*
X124169256Y-104499001D01*
X124343101Y-104325156D01*
X124492767Y-104130108D01*
X124615694Y-103917192D01*
X124709778Y-103690053D01*
X124773409Y-103452577D01*
X124805500Y-103208827D01*
X124805500Y-102962973D01*
X124805499Y-102962965D01*
X131214500Y-102962965D01*
X131214500Y-103208834D01*
X131240432Y-103405796D01*
X131246591Y-103452577D01*
X131246592Y-103452579D01*
X131310222Y-103690052D01*
X131310225Y-103690062D01*
X131404303Y-103917185D01*
X131404306Y-103917192D01*
X131527233Y-104130108D01*
X131527235Y-104130111D01*
X131527236Y-104130112D01*
X131676897Y-104325154D01*
X131676903Y-104325161D01*
X131850738Y-104498996D01*
X131850744Y-104499001D01*
X132045792Y-104648667D01*
X132258708Y-104771594D01*
X132485847Y-104865678D01*
X132723323Y-104929309D01*
X132967073Y-104961400D01*
X132967080Y-104961400D01*
X133212920Y-104961400D01*
X133212927Y-104961400D01*
X133456677Y-104929309D01*
X133694153Y-104865678D01*
X133921292Y-104771594D01*
X134134208Y-104648667D01*
X134329256Y-104499001D01*
X134503101Y-104325156D01*
X134652767Y-104130108D01*
X134775694Y-103917192D01*
X134869778Y-103690053D01*
X134933409Y-103452577D01*
X134965500Y-103208827D01*
X134965500Y-102962973D01*
X134965499Y-102962965D01*
X137056500Y-102962965D01*
X137056500Y-103208834D01*
X137082432Y-103405796D01*
X137088591Y-103452577D01*
X137088592Y-103452579D01*
X137152222Y-103690052D01*
X137152225Y-103690062D01*
X137246303Y-103917185D01*
X137246306Y-103917192D01*
X137369233Y-104130108D01*
X137369235Y-104130111D01*
X137369236Y-104130112D01*
X137518897Y-104325154D01*
X137518903Y-104325161D01*
X137692738Y-104498996D01*
X137692744Y-104499001D01*
X137887792Y-104648667D01*
X138100708Y-104771594D01*
X138327847Y-104865678D01*
X138565323Y-104929309D01*
X138809073Y-104961400D01*
X138809080Y-104961400D01*
X139054920Y-104961400D01*
X139054927Y-104961400D01*
X139298677Y-104929309D01*
X139536153Y-104865678D01*
X139763292Y-104771594D01*
X139976208Y-104648667D01*
X140171256Y-104499001D01*
X140345101Y-104325156D01*
X140494767Y-104130108D01*
X140617694Y-103917192D01*
X140711778Y-103690053D01*
X140775409Y-103452577D01*
X140807500Y-103208827D01*
X140807500Y-102962973D01*
X140807499Y-102962965D01*
X147216500Y-102962965D01*
X147216500Y-103208834D01*
X147242432Y-103405796D01*
X147248591Y-103452577D01*
X147248592Y-103452579D01*
X147312222Y-103690052D01*
X147312225Y-103690062D01*
X147406303Y-103917185D01*
X147406306Y-103917192D01*
X147529233Y-104130108D01*
X147529235Y-104130111D01*
X147529236Y-104130112D01*
X147678897Y-104325154D01*
X147678903Y-104325161D01*
X147852738Y-104498996D01*
X147852744Y-104499001D01*
X148047792Y-104648667D01*
X148260708Y-104771594D01*
X148487847Y-104865678D01*
X148725323Y-104929309D01*
X148969073Y-104961400D01*
X148969080Y-104961400D01*
X149214920Y-104961400D01*
X149214927Y-104961400D01*
X149458677Y-104929309D01*
X149696153Y-104865678D01*
X149923292Y-104771594D01*
X150136208Y-104648667D01*
X150331256Y-104499001D01*
X150505101Y-104325156D01*
X150654767Y-104130108D01*
X150777694Y-103917192D01*
X150871778Y-103690053D01*
X150935409Y-103452577D01*
X150967500Y-103208827D01*
X150967500Y-102962973D01*
X150967499Y-102962965D01*
X153064500Y-102962965D01*
X153064500Y-103208834D01*
X153090432Y-103405796D01*
X153096591Y-103452577D01*
X153096592Y-103452579D01*
X153160222Y-103690052D01*
X153160225Y-103690062D01*
X153254303Y-103917185D01*
X153254306Y-103917192D01*
X153377233Y-104130108D01*
X153377235Y-104130111D01*
X153377236Y-104130112D01*
X153526897Y-104325154D01*
X153526903Y-104325161D01*
X153700738Y-104498996D01*
X153700744Y-104499001D01*
X153895792Y-104648667D01*
X154108708Y-104771594D01*
X154335847Y-104865678D01*
X154573323Y-104929309D01*
X154817073Y-104961400D01*
X154817080Y-104961400D01*
X155062920Y-104961400D01*
X155062927Y-104961400D01*
X155306677Y-104929309D01*
X155544153Y-104865678D01*
X155771292Y-104771594D01*
X155984208Y-104648667D01*
X156179256Y-104499001D01*
X156353101Y-104325156D01*
X156502767Y-104130108D01*
X156625694Y-103917192D01*
X156719778Y-103690053D01*
X156783409Y-103452577D01*
X156815500Y-103208827D01*
X156815500Y-102962973D01*
X156815499Y-102962965D01*
X163224500Y-102962965D01*
X163224500Y-103208834D01*
X163250432Y-103405796D01*
X163256591Y-103452577D01*
X163256592Y-103452579D01*
X163320222Y-103690052D01*
X163320225Y-103690062D01*
X163414303Y-103917185D01*
X163414306Y-103917192D01*
X163537233Y-104130108D01*
X163537235Y-104130111D01*
X163537236Y-104130112D01*
X163686897Y-104325154D01*
X163686903Y-104325161D01*
X163860738Y-104498996D01*
X163860744Y-104499001D01*
X164055792Y-104648667D01*
X164268708Y-104771594D01*
X164495847Y-104865678D01*
X164733323Y-104929309D01*
X164977073Y-104961400D01*
X164977080Y-104961400D01*
X165222920Y-104961400D01*
X165222927Y-104961400D01*
X165466677Y-104929309D01*
X165704153Y-104865678D01*
X165931292Y-104771594D01*
X166144208Y-104648667D01*
X166339256Y-104499001D01*
X166513101Y-104325156D01*
X166662767Y-104130108D01*
X166785694Y-103917192D01*
X166879778Y-103690053D01*
X166943409Y-103452577D01*
X166949568Y-103405798D01*
X172738322Y-103405798D01*
X172776770Y-103599084D01*
X172776773Y-103599094D01*
X172852187Y-103781162D01*
X172852194Y-103781175D01*
X172961683Y-103945036D01*
X172961686Y-103945040D01*
X173101037Y-104084391D01*
X173101041Y-104084394D01*
X173264902Y-104193883D01*
X173264915Y-104193890D01*
X173446983Y-104269304D01*
X173446988Y-104269306D01*
X173446992Y-104269306D01*
X173446993Y-104269307D01*
X173640279Y-104307755D01*
X173640282Y-104307755D01*
X173837366Y-104307755D01*
X173967405Y-104281887D01*
X174030658Y-104269306D01*
X174212737Y-104193887D01*
X174376605Y-104084394D01*
X174515962Y-103945037D01*
X174625455Y-103781169D01*
X174700874Y-103599090D01*
X174730018Y-103452577D01*
X174739323Y-103405798D01*
X183803334Y-103405798D01*
X183841782Y-103599084D01*
X183841785Y-103599094D01*
X183917199Y-103781162D01*
X183917206Y-103781175D01*
X184026695Y-103945036D01*
X184026698Y-103945040D01*
X184166049Y-104084391D01*
X184166053Y-104084394D01*
X184329914Y-104193883D01*
X184329927Y-104193890D01*
X184511995Y-104269304D01*
X184512000Y-104269306D01*
X184512004Y-104269306D01*
X184512005Y-104269307D01*
X184705291Y-104307755D01*
X184705294Y-104307755D01*
X184902378Y-104307755D01*
X185032417Y-104281887D01*
X185095670Y-104269306D01*
X185277749Y-104193887D01*
X185441617Y-104084394D01*
X185580974Y-103945037D01*
X185690467Y-103781169D01*
X185765886Y-103599090D01*
X185795030Y-103452577D01*
X185804335Y-103405798D01*
X194870045Y-103405798D01*
X194908493Y-103599084D01*
X194908496Y-103599094D01*
X194983910Y-103781162D01*
X194983917Y-103781175D01*
X195093406Y-103945036D01*
X195093409Y-103945040D01*
X195232760Y-104084391D01*
X195232764Y-104084394D01*
X195396625Y-104193883D01*
X195396638Y-104193890D01*
X195578706Y-104269304D01*
X195578711Y-104269306D01*
X195578715Y-104269306D01*
X195578716Y-104269307D01*
X195772002Y-104307755D01*
X195772005Y-104307755D01*
X195969089Y-104307755D01*
X196099128Y-104281887D01*
X196162381Y-104269306D01*
X196344460Y-104193887D01*
X196508328Y-104084394D01*
X196647685Y-103945037D01*
X196757178Y-103781169D01*
X196832597Y-103599090D01*
X196861741Y-103452577D01*
X196871046Y-103405798D01*
X196871046Y-103208711D01*
X196832598Y-103015425D01*
X196832597Y-103015424D01*
X196832597Y-103015420D01*
X196832595Y-103015415D01*
X196757181Y-102833347D01*
X196757174Y-102833334D01*
X196647685Y-102669473D01*
X196647682Y-102669469D01*
X196508331Y-102530118D01*
X196508327Y-102530115D01*
X196344466Y-102420626D01*
X196344453Y-102420619D01*
X196162385Y-102345205D01*
X196162375Y-102345202D01*
X195969089Y-102306755D01*
X195969087Y-102306755D01*
X195772005Y-102306755D01*
X195772003Y-102306755D01*
X195578716Y-102345202D01*
X195578706Y-102345205D01*
X195396638Y-102420619D01*
X195396625Y-102420626D01*
X195232764Y-102530115D01*
X195232760Y-102530118D01*
X195093409Y-102669469D01*
X195093406Y-102669473D01*
X194983917Y-102833334D01*
X194983910Y-102833347D01*
X194908496Y-103015415D01*
X194908493Y-103015425D01*
X194870046Y-103208711D01*
X194870046Y-103208714D01*
X194870046Y-103405796D01*
X194870046Y-103405798D01*
X194870045Y-103405798D01*
X185804335Y-103405798D01*
X185804335Y-103208711D01*
X185765887Y-103015425D01*
X185765886Y-103015424D01*
X185765886Y-103015420D01*
X185765884Y-103015415D01*
X185690470Y-102833347D01*
X185690463Y-102833334D01*
X185580974Y-102669473D01*
X185580971Y-102669469D01*
X185441620Y-102530118D01*
X185441616Y-102530115D01*
X185277755Y-102420626D01*
X185277742Y-102420619D01*
X185095674Y-102345205D01*
X185095664Y-102345202D01*
X184902378Y-102306755D01*
X184902376Y-102306755D01*
X184705294Y-102306755D01*
X184705292Y-102306755D01*
X184512005Y-102345202D01*
X184511995Y-102345205D01*
X184329927Y-102420619D01*
X184329914Y-102420626D01*
X184166053Y-102530115D01*
X184166049Y-102530118D01*
X184026698Y-102669469D01*
X184026695Y-102669473D01*
X183917206Y-102833334D01*
X183917199Y-102833347D01*
X183841785Y-103015415D01*
X183841782Y-103015425D01*
X183803335Y-103208711D01*
X183803335Y-103208714D01*
X183803335Y-103405796D01*
X183803335Y-103405798D01*
X183803334Y-103405798D01*
X174739323Y-103405798D01*
X174739323Y-103208711D01*
X174700875Y-103015425D01*
X174700874Y-103015424D01*
X174700874Y-103015420D01*
X174700872Y-103015415D01*
X174625458Y-102833347D01*
X174625451Y-102833334D01*
X174515962Y-102669473D01*
X174515959Y-102669469D01*
X174376608Y-102530118D01*
X174376604Y-102530115D01*
X174212743Y-102420626D01*
X174212730Y-102420619D01*
X174030662Y-102345205D01*
X174030652Y-102345202D01*
X173837366Y-102306755D01*
X173837364Y-102306755D01*
X173640282Y-102306755D01*
X173640280Y-102306755D01*
X173446993Y-102345202D01*
X173446983Y-102345205D01*
X173264915Y-102420619D01*
X173264902Y-102420626D01*
X173101041Y-102530115D01*
X173101037Y-102530118D01*
X172961686Y-102669469D01*
X172961683Y-102669473D01*
X172852194Y-102833334D01*
X172852187Y-102833347D01*
X172776773Y-103015415D01*
X172776770Y-103015425D01*
X172738323Y-103208711D01*
X172738323Y-103208714D01*
X172738323Y-103405796D01*
X172738323Y-103405798D01*
X172738322Y-103405798D01*
X166949568Y-103405798D01*
X166975500Y-103208827D01*
X166975500Y-102962973D01*
X166943409Y-102719223D01*
X166879778Y-102481747D01*
X166785694Y-102254608D01*
X166662767Y-102041692D01*
X166513101Y-101846644D01*
X166513096Y-101846638D01*
X166339261Y-101672803D01*
X166339254Y-101672797D01*
X166144212Y-101523136D01*
X166144211Y-101523135D01*
X166144208Y-101523133D01*
X165931292Y-101400206D01*
X165931285Y-101400203D01*
X165704162Y-101306125D01*
X165704155Y-101306123D01*
X165704153Y-101306122D01*
X165466677Y-101242491D01*
X165425939Y-101237127D01*
X165222934Y-101210400D01*
X165222927Y-101210400D01*
X164977073Y-101210400D01*
X164977065Y-101210400D01*
X164745059Y-101240945D01*
X164733323Y-101242491D01*
X164495847Y-101306122D01*
X164495837Y-101306125D01*
X164268714Y-101400203D01*
X164268705Y-101400207D01*
X164055787Y-101523136D01*
X163860745Y-101672797D01*
X163860738Y-101672803D01*
X163686903Y-101846638D01*
X163686897Y-101846645D01*
X163537236Y-102041687D01*
X163414307Y-102254605D01*
X163414303Y-102254614D01*
X163320225Y-102481737D01*
X163320222Y-102481747D01*
X163269922Y-102669473D01*
X163256592Y-102719220D01*
X163256590Y-102719231D01*
X163224500Y-102962965D01*
X156815499Y-102962965D01*
X156783409Y-102719223D01*
X156719778Y-102481747D01*
X156625694Y-102254608D01*
X156502767Y-102041692D01*
X156353101Y-101846644D01*
X156353096Y-101846638D01*
X156179261Y-101672803D01*
X156179254Y-101672797D01*
X155984212Y-101523136D01*
X155984211Y-101523135D01*
X155984208Y-101523133D01*
X155771292Y-101400206D01*
X155771285Y-101400203D01*
X155544162Y-101306125D01*
X155544155Y-101306123D01*
X155544153Y-101306122D01*
X155306677Y-101242491D01*
X155265939Y-101237127D01*
X155062934Y-101210400D01*
X155062927Y-101210400D01*
X154817073Y-101210400D01*
X154817065Y-101210400D01*
X154585059Y-101240945D01*
X154573323Y-101242491D01*
X154335847Y-101306122D01*
X154335837Y-101306125D01*
X154108714Y-101400203D01*
X154108705Y-101400207D01*
X153895787Y-101523136D01*
X153700745Y-101672797D01*
X153700738Y-101672803D01*
X153526903Y-101846638D01*
X153526897Y-101846645D01*
X153377236Y-102041687D01*
X153254307Y-102254605D01*
X153254303Y-102254614D01*
X153160225Y-102481737D01*
X153160222Y-102481747D01*
X153109922Y-102669473D01*
X153096592Y-102719220D01*
X153096590Y-102719231D01*
X153064500Y-102962965D01*
X150967499Y-102962965D01*
X150935409Y-102719223D01*
X150871778Y-102481747D01*
X150777694Y-102254608D01*
X150654767Y-102041692D01*
X150505101Y-101846644D01*
X150505096Y-101846638D01*
X150331261Y-101672803D01*
X150331254Y-101672797D01*
X150136212Y-101523136D01*
X150136211Y-101523135D01*
X150136208Y-101523133D01*
X149923292Y-101400206D01*
X149923285Y-101400203D01*
X149696162Y-101306125D01*
X149696155Y-101306123D01*
X149696153Y-101306122D01*
X149458677Y-101242491D01*
X149417939Y-101237127D01*
X149214934Y-101210400D01*
X149214927Y-101210400D01*
X148969073Y-101210400D01*
X148969065Y-101210400D01*
X148737059Y-101240945D01*
X148725323Y-101242491D01*
X148487847Y-101306122D01*
X148487837Y-101306125D01*
X148260714Y-101400203D01*
X148260705Y-101400207D01*
X148047787Y-101523136D01*
X147852745Y-101672797D01*
X147852738Y-101672803D01*
X147678903Y-101846638D01*
X147678897Y-101846645D01*
X147529236Y-102041687D01*
X147406307Y-102254605D01*
X147406303Y-102254614D01*
X147312225Y-102481737D01*
X147312222Y-102481747D01*
X147261922Y-102669473D01*
X147248592Y-102719220D01*
X147248590Y-102719231D01*
X147216500Y-102962965D01*
X140807499Y-102962965D01*
X140775409Y-102719223D01*
X140711778Y-102481747D01*
X140617694Y-102254608D01*
X140494767Y-102041692D01*
X140345101Y-101846644D01*
X140345096Y-101846638D01*
X140171261Y-101672803D01*
X140171254Y-101672797D01*
X139976212Y-101523136D01*
X139976211Y-101523135D01*
X139976208Y-101523133D01*
X139763292Y-101400206D01*
X139763285Y-101400203D01*
X139536162Y-101306125D01*
X139536155Y-101306123D01*
X139536153Y-101306122D01*
X139298677Y-101242491D01*
X139257939Y-101237127D01*
X139054934Y-101210400D01*
X139054927Y-101210400D01*
X138809073Y-101210400D01*
X138809065Y-101210400D01*
X138577059Y-101240945D01*
X138565323Y-101242491D01*
X138327847Y-101306122D01*
X138327837Y-101306125D01*
X138100714Y-101400203D01*
X138100705Y-101400207D01*
X137887787Y-101523136D01*
X137692745Y-101672797D01*
X137692738Y-101672803D01*
X137518903Y-101846638D01*
X137518897Y-101846645D01*
X137369236Y-102041687D01*
X137246307Y-102254605D01*
X137246303Y-102254614D01*
X137152225Y-102481737D01*
X137152222Y-102481747D01*
X137101922Y-102669473D01*
X137088592Y-102719220D01*
X137088590Y-102719231D01*
X137056500Y-102962965D01*
X134965499Y-102962965D01*
X134933409Y-102719223D01*
X134869778Y-102481747D01*
X134775694Y-102254608D01*
X134652767Y-102041692D01*
X134503101Y-101846644D01*
X134503096Y-101846638D01*
X134329261Y-101672803D01*
X134329254Y-101672797D01*
X134134212Y-101523136D01*
X134134211Y-101523135D01*
X134134208Y-101523133D01*
X133921292Y-101400206D01*
X133921285Y-101400203D01*
X133694162Y-101306125D01*
X133694155Y-101306123D01*
X133694153Y-101306122D01*
X133456677Y-101242491D01*
X133415939Y-101237127D01*
X133212934Y-101210400D01*
X133212927Y-101210400D01*
X132967073Y-101210400D01*
X132967065Y-101210400D01*
X132735059Y-101240945D01*
X132723323Y-101242491D01*
X132485847Y-101306122D01*
X132485837Y-101306125D01*
X132258714Y-101400203D01*
X132258705Y-101400207D01*
X132045787Y-101523136D01*
X131850745Y-101672797D01*
X131850738Y-101672803D01*
X131676903Y-101846638D01*
X131676897Y-101846645D01*
X131527236Y-102041687D01*
X131404307Y-102254605D01*
X131404303Y-102254614D01*
X131310225Y-102481737D01*
X131310222Y-102481747D01*
X131259922Y-102669473D01*
X131246592Y-102719220D01*
X131246590Y-102719231D01*
X131214500Y-102962965D01*
X124805499Y-102962965D01*
X124773409Y-102719223D01*
X124709778Y-102481747D01*
X124615694Y-102254608D01*
X124492767Y-102041692D01*
X124343101Y-101846644D01*
X124343096Y-101846638D01*
X124169261Y-101672803D01*
X124169254Y-101672797D01*
X123974212Y-101523136D01*
X123974211Y-101523135D01*
X123974208Y-101523133D01*
X123761292Y-101400206D01*
X123761285Y-101400203D01*
X123534162Y-101306125D01*
X123534155Y-101306123D01*
X123534153Y-101306122D01*
X123296677Y-101242491D01*
X123255939Y-101237127D01*
X123052934Y-101210400D01*
X123052927Y-101210400D01*
X122807073Y-101210400D01*
X122807065Y-101210400D01*
X122575059Y-101240945D01*
X122563323Y-101242491D01*
X122325847Y-101306122D01*
X122325837Y-101306125D01*
X122098714Y-101400203D01*
X122098705Y-101400207D01*
X121885787Y-101523136D01*
X121690745Y-101672797D01*
X121690738Y-101672803D01*
X121516903Y-101846638D01*
X121516897Y-101846645D01*
X121367236Y-102041687D01*
X121244307Y-102254605D01*
X121244303Y-102254614D01*
X121150225Y-102481737D01*
X121150222Y-102481747D01*
X121099922Y-102669473D01*
X121086592Y-102719220D01*
X121086590Y-102719231D01*
X121054500Y-102962965D01*
X118963499Y-102962965D01*
X118931409Y-102719223D01*
X118867778Y-102481747D01*
X118773694Y-102254608D01*
X118650767Y-102041692D01*
X118501101Y-101846644D01*
X118501096Y-101846638D01*
X118327261Y-101672803D01*
X118327254Y-101672797D01*
X118132212Y-101523136D01*
X118132211Y-101523135D01*
X118132208Y-101523133D01*
X117919292Y-101400206D01*
X117919285Y-101400203D01*
X117692162Y-101306125D01*
X117692155Y-101306123D01*
X117692153Y-101306122D01*
X117454677Y-101242491D01*
X117413939Y-101237127D01*
X117210934Y-101210400D01*
X117210927Y-101210400D01*
X116965073Y-101210400D01*
X116965065Y-101210400D01*
X116733059Y-101240945D01*
X116721323Y-101242491D01*
X116483847Y-101306122D01*
X116483837Y-101306125D01*
X116256714Y-101400203D01*
X116256705Y-101400207D01*
X116043787Y-101523136D01*
X115848745Y-101672797D01*
X115848738Y-101672803D01*
X115674903Y-101846638D01*
X115674897Y-101846645D01*
X115525236Y-102041687D01*
X115402307Y-102254605D01*
X115402303Y-102254614D01*
X115308225Y-102481737D01*
X115308222Y-102481747D01*
X115257922Y-102669473D01*
X115244592Y-102719220D01*
X115244590Y-102719231D01*
X115212500Y-102962965D01*
X108803499Y-102962965D01*
X108771409Y-102719223D01*
X108707778Y-102481747D01*
X108613694Y-102254608D01*
X108490767Y-102041692D01*
X108341101Y-101846644D01*
X108341096Y-101846638D01*
X108167261Y-101672803D01*
X108167254Y-101672797D01*
X107972212Y-101523136D01*
X107972211Y-101523135D01*
X107972208Y-101523133D01*
X107759292Y-101400206D01*
X107759285Y-101400203D01*
X107532162Y-101306125D01*
X107532155Y-101306123D01*
X107532153Y-101306122D01*
X107294677Y-101242491D01*
X107253939Y-101237127D01*
X107050934Y-101210400D01*
X107050927Y-101210400D01*
X106805073Y-101210400D01*
X106805065Y-101210400D01*
X106573059Y-101240945D01*
X106561323Y-101242491D01*
X106323847Y-101306122D01*
X106323837Y-101306125D01*
X106096714Y-101400203D01*
X106096705Y-101400207D01*
X105883787Y-101523136D01*
X105688745Y-101672797D01*
X105688738Y-101672803D01*
X105514903Y-101846638D01*
X105514897Y-101846645D01*
X105365236Y-102041687D01*
X105242307Y-102254605D01*
X105242303Y-102254614D01*
X105148225Y-102481737D01*
X105148222Y-102481747D01*
X105097922Y-102669473D01*
X105084592Y-102719220D01*
X105084590Y-102719231D01*
X105052500Y-102962965D01*
X96207850Y-102962965D01*
X96207850Y-99959053D01*
X164045500Y-99959053D01*
X164045500Y-100116746D01*
X164076261Y-100271389D01*
X164076264Y-100271401D01*
X164136602Y-100417072D01*
X164136609Y-100417085D01*
X164224210Y-100548188D01*
X164224213Y-100548192D01*
X164335707Y-100659686D01*
X164335711Y-100659689D01*
X164466814Y-100747290D01*
X164466827Y-100747297D01*
X164612498Y-100807635D01*
X164612503Y-100807637D01*
X164767153Y-100838399D01*
X164767156Y-100838400D01*
X164767158Y-100838400D01*
X164924844Y-100838400D01*
X164924845Y-100838399D01*
X165079497Y-100807637D01*
X165225179Y-100747294D01*
X165356289Y-100659689D01*
X165467789Y-100548189D01*
X165555394Y-100417079D01*
X165565191Y-100393424D01*
X165592069Y-100353197D01*
X166898549Y-99046719D01*
X166959872Y-99013234D01*
X166986230Y-99010400D01*
X167335396Y-99010400D01*
X167382844Y-99019837D01*
X167406503Y-99029637D01*
X167406508Y-99029638D01*
X167406511Y-99029639D01*
X167561153Y-99060399D01*
X167561156Y-99060400D01*
X167561158Y-99060400D01*
X167718844Y-99060400D01*
X167718845Y-99060399D01*
X167873497Y-99029637D01*
X168019179Y-98969294D01*
X168150289Y-98881689D01*
X168261789Y-98770189D01*
X168349394Y-98639079D01*
X168409737Y-98493397D01*
X168440500Y-98338742D01*
X168440500Y-98181058D01*
X168440500Y-98181055D01*
X168440499Y-98181053D01*
X168409737Y-98026403D01*
X168374411Y-97941118D01*
X168349397Y-97880727D01*
X168349390Y-97880714D01*
X168261789Y-97749611D01*
X168261786Y-97749607D01*
X168150292Y-97638113D01*
X168150288Y-97638110D01*
X168019185Y-97550509D01*
X168019172Y-97550502D01*
X167873501Y-97490164D01*
X167873489Y-97490161D01*
X167718845Y-97459400D01*
X167718842Y-97459400D01*
X167561158Y-97459400D01*
X167561155Y-97459400D01*
X167406511Y-97490160D01*
X167406506Y-97490162D01*
X167406504Y-97490162D01*
X167406503Y-97490163D01*
X167382844Y-97499962D01*
X167335396Y-97509400D01*
X166550076Y-97509400D01*
X166521242Y-97515134D01*
X166521243Y-97515135D01*
X166405093Y-97538239D01*
X166405083Y-97538242D01*
X166325081Y-97571379D01*
X166325082Y-97571380D01*
X166268502Y-97594817D01*
X166219269Y-97627713D01*
X166145588Y-97676944D01*
X166145580Y-97676950D01*
X164530703Y-99291827D01*
X164490480Y-99318705D01*
X164466819Y-99328506D01*
X164466818Y-99328507D01*
X164335715Y-99416107D01*
X164335707Y-99416113D01*
X164224213Y-99527607D01*
X164224210Y-99527611D01*
X164136609Y-99658714D01*
X164136602Y-99658727D01*
X164076264Y-99804398D01*
X164076261Y-99804410D01*
X164045500Y-99959053D01*
X96207850Y-99959053D01*
X96207850Y-94093582D01*
X107533000Y-94093582D01*
X107533000Y-94298217D01*
X107565009Y-94500317D01*
X107628244Y-94694931D01*
X107721141Y-94877250D01*
X107721147Y-94877259D01*
X107753523Y-94921821D01*
X107753524Y-94921822D01*
X108394944Y-94280402D01*
X108418326Y-94367664D01*
X108476911Y-94469136D01*
X108559764Y-94551989D01*
X108661236Y-94610574D01*
X108748497Y-94633955D01*
X108107076Y-95275374D01*
X108151650Y-95307759D01*
X108333968Y-95400655D01*
X108528582Y-95463890D01*
X108730683Y-95495900D01*
X108935317Y-95495900D01*
X109137415Y-95463890D01*
X109305768Y-95409187D01*
X109375610Y-95407191D01*
X109435443Y-95443271D01*
X109466272Y-95505972D01*
X109458308Y-95575386D01*
X109416974Y-95627436D01*
X109377077Y-95656422D01*
X109377077Y-95656424D01*
X110018498Y-96297844D01*
X109931236Y-96321226D01*
X109829764Y-96379811D01*
X109746911Y-96462664D01*
X109688326Y-96564136D01*
X109664944Y-96651397D01*
X109023524Y-96009977D01*
X109023523Y-96009977D01*
X108991143Y-96054544D01*
X108898244Y-96236868D01*
X108835009Y-96431482D01*
X108803000Y-96633582D01*
X108803000Y-96838217D01*
X108835009Y-97040317D01*
X108898244Y-97234931D01*
X108991141Y-97417250D01*
X108991147Y-97417259D01*
X109023523Y-97461821D01*
X109023524Y-97461822D01*
X109664944Y-96820402D01*
X109688326Y-96907664D01*
X109746911Y-97009136D01*
X109829764Y-97091989D01*
X109931236Y-97150574D01*
X110018497Y-97173955D01*
X109377076Y-97815374D01*
X109421650Y-97847759D01*
X109603968Y-97940655D01*
X109798582Y-98003890D01*
X110000683Y-98035900D01*
X110205317Y-98035900D01*
X110407417Y-98003890D01*
X110602031Y-97940655D01*
X110784349Y-97847759D01*
X110828921Y-97815374D01*
X110187502Y-97173955D01*
X110274764Y-97150574D01*
X110376236Y-97091989D01*
X110459089Y-97009136D01*
X110517674Y-96907664D01*
X110541055Y-96820402D01*
X111182474Y-97461821D01*
X111214861Y-97417247D01*
X111214861Y-97417246D01*
X111262234Y-97324271D01*
X111310208Y-97273475D01*
X111378028Y-97256679D01*
X111444164Y-97279216D01*
X111483203Y-97324269D01*
X111530713Y-97417511D01*
X111651028Y-97583113D01*
X111795786Y-97727871D01*
X111916226Y-97815374D01*
X111961390Y-97848187D01*
X112077607Y-97907403D01*
X112143776Y-97941118D01*
X112143778Y-97941118D01*
X112143781Y-97941120D01*
X112248137Y-97975027D01*
X112338465Y-98004377D01*
X112439557Y-98020388D01*
X112540648Y-98036400D01*
X112540649Y-98036400D01*
X112745351Y-98036400D01*
X112745352Y-98036400D01*
X112947534Y-98004377D01*
X113142219Y-97941120D01*
X113324610Y-97848187D01*
X113417590Y-97780632D01*
X113490213Y-97727871D01*
X113490215Y-97727868D01*
X113490219Y-97727866D01*
X113634966Y-97583119D01*
X113634968Y-97583115D01*
X113634971Y-97583113D01*
X113755284Y-97417514D01*
X113755286Y-97417511D01*
X113755287Y-97417510D01*
X113802516Y-97324817D01*
X113850489Y-97274023D01*
X113918310Y-97257228D01*
X113984445Y-97279765D01*
X114023485Y-97324819D01*
X114070715Y-97417514D01*
X114191028Y-97583113D01*
X114335786Y-97727871D01*
X114456226Y-97815374D01*
X114501390Y-97848187D01*
X114617607Y-97907403D01*
X114683776Y-97941118D01*
X114683778Y-97941118D01*
X114683781Y-97941120D01*
X114788137Y-97975027D01*
X114878465Y-98004377D01*
X114979557Y-98020388D01*
X115080648Y-98036400D01*
X115080649Y-98036400D01*
X115285351Y-98036400D01*
X115285352Y-98036400D01*
X115487534Y-98004377D01*
X115682219Y-97941120D01*
X115864610Y-97848187D01*
X115957590Y-97780632D01*
X116030213Y-97727871D01*
X116030215Y-97727868D01*
X116030219Y-97727866D01*
X116174966Y-97583119D01*
X116174968Y-97583115D01*
X116174971Y-97583113D01*
X116242502Y-97490163D01*
X116295287Y-97417510D01*
X116388220Y-97235119D01*
X116451477Y-97040434D01*
X116483500Y-96838252D01*
X116483500Y-96633548D01*
X116453000Y-96440981D01*
X116451477Y-96431365D01*
X116389780Y-96241483D01*
X116388220Y-96236681D01*
X116388218Y-96236678D01*
X116388218Y-96236676D01*
X116295420Y-96054552D01*
X116295287Y-96054290D01*
X116263092Y-96009977D01*
X116174971Y-95888686D01*
X116030213Y-95743928D01*
X115864613Y-95623615D01*
X115864612Y-95623614D01*
X115864610Y-95623613D01*
X115796808Y-95589066D01*
X115682223Y-95530681D01*
X115487534Y-95467422D01*
X115312995Y-95439778D01*
X115285352Y-95435400D01*
X115080648Y-95435400D01*
X115027803Y-95443770D01*
X114878464Y-95467423D01*
X114878461Y-95467423D01*
X114713071Y-95521163D01*
X114643230Y-95523158D01*
X114583397Y-95487078D01*
X114552569Y-95424377D01*
X114560534Y-95354963D01*
X114601866Y-95302914D01*
X114760219Y-95187866D01*
X114904966Y-95043119D01*
X114904968Y-95043115D01*
X114904971Y-95043113D01*
X114987440Y-94929602D01*
X115025287Y-94877510D01*
X115118220Y-94695119D01*
X115181477Y-94500434D01*
X115213500Y-94298252D01*
X115213500Y-94093582D01*
X123535000Y-94093582D01*
X123535000Y-94298217D01*
X123567009Y-94500317D01*
X123630244Y-94694931D01*
X123723141Y-94877250D01*
X123723147Y-94877259D01*
X123755523Y-94921821D01*
X123755524Y-94921822D01*
X124396944Y-94280402D01*
X124420326Y-94367664D01*
X124478911Y-94469136D01*
X124561764Y-94551989D01*
X124663236Y-94610574D01*
X124750497Y-94633955D01*
X124109076Y-95275374D01*
X124153650Y-95307759D01*
X124335968Y-95400655D01*
X124530582Y-95463890D01*
X124732683Y-95495900D01*
X124937317Y-95495900D01*
X125139415Y-95463890D01*
X125307768Y-95409187D01*
X125377610Y-95407191D01*
X125437443Y-95443271D01*
X125468272Y-95505972D01*
X125460308Y-95575386D01*
X125418974Y-95627436D01*
X125379077Y-95656422D01*
X125379077Y-95656424D01*
X126020498Y-96297844D01*
X125933236Y-96321226D01*
X125831764Y-96379811D01*
X125748911Y-96462664D01*
X125690326Y-96564136D01*
X125666944Y-96651397D01*
X125025524Y-96009977D01*
X125025523Y-96009977D01*
X124993143Y-96054544D01*
X124900244Y-96236868D01*
X124837009Y-96431482D01*
X124805000Y-96633582D01*
X124805000Y-96838217D01*
X124837009Y-97040317D01*
X124900244Y-97234931D01*
X124993141Y-97417250D01*
X124993147Y-97417259D01*
X125025523Y-97461821D01*
X125025524Y-97461822D01*
X125666944Y-96820402D01*
X125690326Y-96907664D01*
X125748911Y-97009136D01*
X125831764Y-97091989D01*
X125933236Y-97150574D01*
X126020497Y-97173955D01*
X125379076Y-97815374D01*
X125423650Y-97847759D01*
X125605968Y-97940655D01*
X125800582Y-98003890D01*
X126002683Y-98035900D01*
X126207317Y-98035900D01*
X126409417Y-98003890D01*
X126604031Y-97940655D01*
X126786349Y-97847759D01*
X126830921Y-97815374D01*
X126189502Y-97173955D01*
X126276764Y-97150574D01*
X126378236Y-97091989D01*
X126461089Y-97009136D01*
X126519674Y-96907664D01*
X126543055Y-96820402D01*
X127184474Y-97461821D01*
X127216861Y-97417247D01*
X127216861Y-97417246D01*
X127264234Y-97324271D01*
X127312208Y-97273475D01*
X127380028Y-97256679D01*
X127446164Y-97279216D01*
X127485203Y-97324269D01*
X127532713Y-97417511D01*
X127653028Y-97583113D01*
X127797786Y-97727871D01*
X127918226Y-97815374D01*
X127963390Y-97848187D01*
X128079607Y-97907403D01*
X128145776Y-97941118D01*
X128145778Y-97941118D01*
X128145781Y-97941120D01*
X128250137Y-97975027D01*
X128340465Y-98004377D01*
X128441557Y-98020388D01*
X128542648Y-98036400D01*
X128542649Y-98036400D01*
X128747351Y-98036400D01*
X128747352Y-98036400D01*
X128949534Y-98004377D01*
X129144219Y-97941120D01*
X129326610Y-97848187D01*
X129419590Y-97780632D01*
X129492213Y-97727871D01*
X129492215Y-97727868D01*
X129492219Y-97727866D01*
X129636966Y-97583119D01*
X129636968Y-97583115D01*
X129636971Y-97583113D01*
X129757284Y-97417514D01*
X129757286Y-97417511D01*
X129757287Y-97417510D01*
X129804516Y-97324817D01*
X129852489Y-97274023D01*
X129920310Y-97257228D01*
X129986445Y-97279765D01*
X130025485Y-97324819D01*
X130072715Y-97417514D01*
X130193028Y-97583113D01*
X130337786Y-97727871D01*
X130458226Y-97815374D01*
X130503390Y-97848187D01*
X130619607Y-97907403D01*
X130685776Y-97941118D01*
X130685778Y-97941118D01*
X130685781Y-97941120D01*
X130790137Y-97975027D01*
X130880465Y-98004377D01*
X130981557Y-98020388D01*
X131082648Y-98036400D01*
X131082649Y-98036400D01*
X131287351Y-98036400D01*
X131287352Y-98036400D01*
X131489534Y-98004377D01*
X131684219Y-97941120D01*
X131866610Y-97848187D01*
X131959590Y-97780632D01*
X132032213Y-97727871D01*
X132032215Y-97727868D01*
X132032219Y-97727866D01*
X132176966Y-97583119D01*
X132176968Y-97583115D01*
X132176971Y-97583113D01*
X132244502Y-97490163D01*
X132297287Y-97417510D01*
X132390220Y-97235119D01*
X132453477Y-97040434D01*
X132485500Y-96838252D01*
X132485500Y-96633548D01*
X132455000Y-96440981D01*
X132453477Y-96431365D01*
X132391780Y-96241483D01*
X132390220Y-96236681D01*
X132390218Y-96236678D01*
X132390218Y-96236676D01*
X132297420Y-96054552D01*
X132297287Y-96054290D01*
X132265092Y-96009977D01*
X132176971Y-95888686D01*
X132032213Y-95743928D01*
X131866613Y-95623615D01*
X131866612Y-95623614D01*
X131866610Y-95623613D01*
X131798808Y-95589066D01*
X131684223Y-95530681D01*
X131489534Y-95467422D01*
X131314995Y-95439778D01*
X131287352Y-95435400D01*
X131082648Y-95435400D01*
X131029803Y-95443770D01*
X130880464Y-95467423D01*
X130880461Y-95467423D01*
X130715071Y-95521163D01*
X130645230Y-95523158D01*
X130585397Y-95487078D01*
X130554569Y-95424377D01*
X130562534Y-95354963D01*
X130603866Y-95302914D01*
X130762219Y-95187866D01*
X130906966Y-95043119D01*
X130906968Y-95043115D01*
X130906971Y-95043113D01*
X130989440Y-94929602D01*
X131027287Y-94877510D01*
X131120220Y-94695119D01*
X131183477Y-94500434D01*
X131215500Y-94298252D01*
X131215500Y-94093548D01*
X139536500Y-94093548D01*
X139536500Y-94298251D01*
X139568522Y-94500434D01*
X139631781Y-94695123D01*
X139689457Y-94808316D01*
X139724585Y-94877259D01*
X139724715Y-94877513D01*
X139845028Y-95043113D01*
X139989786Y-95187871D01*
X140110225Y-95275373D01*
X140155390Y-95308187D01*
X140254612Y-95358743D01*
X140337776Y-95401118D01*
X140337778Y-95401118D01*
X140337781Y-95401120D01*
X140420069Y-95427857D01*
X140532465Y-95464377D01*
X140566389Y-95469750D01*
X140734648Y-95496400D01*
X140734649Y-95496400D01*
X140939351Y-95496400D01*
X140939352Y-95496400D01*
X141141534Y-95464377D01*
X141306932Y-95410635D01*
X141376768Y-95408640D01*
X141436601Y-95444720D01*
X141467430Y-95507421D01*
X141459466Y-95576835D01*
X141418131Y-95628885D01*
X141259787Y-95743928D01*
X141259782Y-95743932D01*
X141115028Y-95888686D01*
X140994715Y-96054286D01*
X140901781Y-96236676D01*
X140838522Y-96431365D01*
X140806500Y-96633548D01*
X140806500Y-96838251D01*
X140838522Y-97040434D01*
X140901781Y-97235123D01*
X140965691Y-97360553D01*
X140994585Y-97417259D01*
X140994715Y-97417513D01*
X141115028Y-97583113D01*
X141259786Y-97727871D01*
X141380226Y-97815374D01*
X141425390Y-97848187D01*
X141541607Y-97907403D01*
X141607776Y-97941118D01*
X141607778Y-97941118D01*
X141607781Y-97941120D01*
X141712137Y-97975027D01*
X141802465Y-98004377D01*
X141903557Y-98020388D01*
X142004648Y-98036400D01*
X142004649Y-98036400D01*
X142209351Y-98036400D01*
X142209352Y-98036400D01*
X142411534Y-98004377D01*
X142606219Y-97941120D01*
X142788610Y-97848187D01*
X142881590Y-97780632D01*
X142954213Y-97727871D01*
X142954215Y-97727868D01*
X142954219Y-97727866D01*
X143098966Y-97583119D01*
X143098968Y-97583115D01*
X143098971Y-97583113D01*
X143219284Y-97417514D01*
X143219286Y-97417511D01*
X143219287Y-97417510D01*
X143266516Y-97324817D01*
X143314489Y-97274023D01*
X143382310Y-97257228D01*
X143448445Y-97279765D01*
X143487485Y-97324819D01*
X143534715Y-97417514D01*
X143655028Y-97583113D01*
X143799786Y-97727871D01*
X143920226Y-97815374D01*
X143965390Y-97848187D01*
X144081607Y-97907403D01*
X144147776Y-97941118D01*
X144147778Y-97941118D01*
X144147781Y-97941120D01*
X144252137Y-97975027D01*
X144342465Y-98004377D01*
X144443557Y-98020388D01*
X144544648Y-98036400D01*
X144544649Y-98036400D01*
X144749351Y-98036400D01*
X144749352Y-98036400D01*
X144951534Y-98004377D01*
X145146219Y-97941120D01*
X145328610Y-97848187D01*
X145421590Y-97780632D01*
X145494213Y-97727871D01*
X145494215Y-97727868D01*
X145494219Y-97727866D01*
X145638966Y-97583119D01*
X145638968Y-97583115D01*
X145638971Y-97583113D01*
X145759284Y-97417514D01*
X145759286Y-97417511D01*
X145759287Y-97417510D01*
X145806516Y-97324817D01*
X145854489Y-97274023D01*
X145922310Y-97257228D01*
X145988445Y-97279765D01*
X146027485Y-97324819D01*
X146074715Y-97417514D01*
X146195028Y-97583113D01*
X146339786Y-97727871D01*
X146460226Y-97815374D01*
X146505390Y-97848187D01*
X146621607Y-97907403D01*
X146687776Y-97941118D01*
X146687778Y-97941118D01*
X146687781Y-97941120D01*
X146792137Y-97975027D01*
X146882465Y-98004377D01*
X146983557Y-98020388D01*
X147084648Y-98036400D01*
X147084649Y-98036400D01*
X147289351Y-98036400D01*
X147289352Y-98036400D01*
X147491534Y-98004377D01*
X147686219Y-97941120D01*
X147868610Y-97848187D01*
X147961590Y-97780632D01*
X148034213Y-97727871D01*
X148034215Y-97727868D01*
X148034219Y-97727866D01*
X148178966Y-97583119D01*
X148178968Y-97583115D01*
X148178971Y-97583113D01*
X148246502Y-97490163D01*
X148299287Y-97417510D01*
X148392220Y-97235119D01*
X148455477Y-97040434D01*
X148487500Y-96838252D01*
X148487500Y-96633548D01*
X148457000Y-96440981D01*
X148455477Y-96431365D01*
X148393780Y-96241483D01*
X148392220Y-96236681D01*
X148392218Y-96236678D01*
X148392218Y-96236676D01*
X148299420Y-96054552D01*
X148299287Y-96054290D01*
X148267092Y-96009977D01*
X148178971Y-95888686D01*
X148034213Y-95743928D01*
X147868613Y-95623615D01*
X147868612Y-95623614D01*
X147868610Y-95623613D01*
X147800808Y-95589066D01*
X147686223Y-95530681D01*
X147491534Y-95467422D01*
X147316995Y-95439778D01*
X147289352Y-95435400D01*
X147084648Y-95435400D01*
X147031803Y-95443770D01*
X146882464Y-95467423D01*
X146882461Y-95467423D01*
X146717071Y-95521163D01*
X146647230Y-95523158D01*
X146587397Y-95487078D01*
X146556569Y-95424377D01*
X146564534Y-95354963D01*
X146605866Y-95302914D01*
X146764219Y-95187866D01*
X146908966Y-95043119D01*
X146908968Y-95043115D01*
X146908971Y-95043113D01*
X146991440Y-94929602D01*
X147029287Y-94877510D01*
X147122220Y-94695119D01*
X147185477Y-94500434D01*
X147217500Y-94298252D01*
X147217500Y-94093582D01*
X155545000Y-94093582D01*
X155545000Y-94298217D01*
X155577009Y-94500317D01*
X155640244Y-94694931D01*
X155733141Y-94877250D01*
X155733147Y-94877259D01*
X155765523Y-94921821D01*
X155765524Y-94921822D01*
X156406944Y-94280402D01*
X156430326Y-94367664D01*
X156488911Y-94469136D01*
X156571764Y-94551989D01*
X156673236Y-94610574D01*
X156760497Y-94633955D01*
X156119076Y-95275374D01*
X156163650Y-95307759D01*
X156345968Y-95400655D01*
X156540582Y-95463890D01*
X156742683Y-95495900D01*
X156947317Y-95495900D01*
X157149417Y-95463890D01*
X157316235Y-95409686D01*
X157386076Y-95407690D01*
X157445909Y-95443770D01*
X157476738Y-95506471D01*
X157468774Y-95575885D01*
X157427439Y-95627935D01*
X157267787Y-95743928D01*
X157267782Y-95743932D01*
X157123028Y-95888686D01*
X157002715Y-96054286D01*
X156909781Y-96236676D01*
X156846522Y-96431365D01*
X156814500Y-96633548D01*
X156814500Y-96838251D01*
X156846522Y-97040434D01*
X156909781Y-97235123D01*
X156973691Y-97360553D01*
X157002585Y-97417259D01*
X157002715Y-97417513D01*
X157123028Y-97583113D01*
X157267786Y-97727871D01*
X157388226Y-97815374D01*
X157433390Y-97848187D01*
X157549607Y-97907403D01*
X157615776Y-97941118D01*
X157615778Y-97941118D01*
X157615781Y-97941120D01*
X157720137Y-97975027D01*
X157810465Y-98004377D01*
X157911557Y-98020388D01*
X158012648Y-98036400D01*
X158012649Y-98036400D01*
X158217351Y-98036400D01*
X158217352Y-98036400D01*
X158419534Y-98004377D01*
X158614219Y-97941120D01*
X158796610Y-97848187D01*
X158889590Y-97780632D01*
X158962213Y-97727871D01*
X158962215Y-97727868D01*
X158962219Y-97727866D01*
X159106966Y-97583119D01*
X159106968Y-97583115D01*
X159106971Y-97583113D01*
X159227284Y-97417514D01*
X159227286Y-97417511D01*
X159227287Y-97417510D01*
X159274516Y-97324817D01*
X159322489Y-97274023D01*
X159390310Y-97257228D01*
X159456445Y-97279765D01*
X159495485Y-97324819D01*
X159542715Y-97417514D01*
X159663028Y-97583113D01*
X159807786Y-97727871D01*
X159928226Y-97815374D01*
X159973390Y-97848187D01*
X160089607Y-97907403D01*
X160155776Y-97941118D01*
X160155778Y-97941118D01*
X160155781Y-97941120D01*
X160260137Y-97975027D01*
X160350465Y-98004377D01*
X160451557Y-98020388D01*
X160552648Y-98036400D01*
X160552649Y-98036400D01*
X160757351Y-98036400D01*
X160757352Y-98036400D01*
X160959534Y-98004377D01*
X161154219Y-97941120D01*
X161336610Y-97848187D01*
X161429590Y-97780632D01*
X161502213Y-97727871D01*
X161502215Y-97727868D01*
X161502219Y-97727866D01*
X161646966Y-97583119D01*
X161646968Y-97583115D01*
X161646971Y-97583113D01*
X161767284Y-97417514D01*
X161767286Y-97417511D01*
X161767287Y-97417510D01*
X161814516Y-97324817D01*
X161862489Y-97274023D01*
X161930310Y-97257228D01*
X161996445Y-97279765D01*
X162035485Y-97324819D01*
X162082715Y-97417514D01*
X162203028Y-97583113D01*
X162347786Y-97727871D01*
X162468226Y-97815374D01*
X162513390Y-97848187D01*
X162629607Y-97907403D01*
X162695776Y-97941118D01*
X162695778Y-97941118D01*
X162695781Y-97941120D01*
X162800137Y-97975027D01*
X162890465Y-98004377D01*
X162991557Y-98020388D01*
X163092648Y-98036400D01*
X163092649Y-98036400D01*
X163297351Y-98036400D01*
X163297352Y-98036400D01*
X163499534Y-98004377D01*
X163694219Y-97941120D01*
X163876610Y-97848187D01*
X163969590Y-97780632D01*
X164042213Y-97727871D01*
X164042215Y-97727868D01*
X164042219Y-97727866D01*
X164186966Y-97583119D01*
X164186968Y-97583115D01*
X164186971Y-97583113D01*
X164254502Y-97490163D01*
X164307287Y-97417510D01*
X164400220Y-97235119D01*
X164463477Y-97040434D01*
X164495500Y-96838252D01*
X164495500Y-96633548D01*
X164465000Y-96440981D01*
X164463477Y-96431365D01*
X164401780Y-96241483D01*
X164400220Y-96236681D01*
X164400218Y-96236678D01*
X164400218Y-96236676D01*
X164307420Y-96054552D01*
X164307287Y-96054290D01*
X164275092Y-96009977D01*
X164186971Y-95888686D01*
X164042213Y-95743928D01*
X163876613Y-95623615D01*
X163876612Y-95623614D01*
X163876610Y-95623613D01*
X163808808Y-95589066D01*
X163694223Y-95530681D01*
X163499534Y-95467422D01*
X163324995Y-95439778D01*
X163297352Y-95435400D01*
X163092648Y-95435400D01*
X163039803Y-95443770D01*
X162890464Y-95467423D01*
X162890461Y-95467423D01*
X162725071Y-95521163D01*
X162655230Y-95523158D01*
X162595397Y-95487078D01*
X162564569Y-95424377D01*
X162572534Y-95354963D01*
X162613866Y-95302914D01*
X162772219Y-95187866D01*
X162904520Y-95055565D01*
X179719300Y-95055565D01*
X179719300Y-95241234D01*
X179748342Y-95424596D01*
X179748343Y-95424600D01*
X179805715Y-95601171D01*
X179890001Y-95766593D01*
X179999128Y-95916793D01*
X180130407Y-96048072D01*
X180280607Y-96157199D01*
X180446029Y-96241485D01*
X180622600Y-96298857D01*
X180691364Y-96309748D01*
X180805966Y-96327900D01*
X180805971Y-96327900D01*
X180991634Y-96327900D01*
X181093501Y-96311765D01*
X181175000Y-96298857D01*
X181351571Y-96241485D01*
X181516993Y-96157199D01*
X181667193Y-96048072D01*
X181798472Y-95916793D01*
X181907599Y-95766593D01*
X181991885Y-95601171D01*
X182049257Y-95424600D01*
X182049258Y-95424596D01*
X182050762Y-95419967D01*
X182052947Y-95420677D01*
X182083003Y-95368314D01*
X182145024Y-95336140D01*
X182214594Y-95342605D01*
X182269624Y-95385656D01*
X182285492Y-95420404D01*
X182286838Y-95419967D01*
X182288342Y-95424596D01*
X182288343Y-95424600D01*
X182345715Y-95601171D01*
X182430001Y-95766593D01*
X182539128Y-95916793D01*
X182670407Y-96048072D01*
X182820607Y-96157199D01*
X182986029Y-96241485D01*
X183162600Y-96298857D01*
X183231364Y-96309748D01*
X183345966Y-96327900D01*
X183345971Y-96327900D01*
X183531634Y-96327900D01*
X183633501Y-96311765D01*
X183715000Y-96298857D01*
X183891571Y-96241485D01*
X184056993Y-96157199D01*
X184207193Y-96048072D01*
X184338472Y-95916793D01*
X184447599Y-95766593D01*
X184531885Y-95601171D01*
X184589257Y-95424600D01*
X184589258Y-95424596D01*
X184590762Y-95419967D01*
X184592947Y-95420677D01*
X184623003Y-95368314D01*
X184685024Y-95336140D01*
X184754594Y-95342605D01*
X184809624Y-95385656D01*
X184825492Y-95420404D01*
X184826838Y-95419967D01*
X184828342Y-95424596D01*
X184828343Y-95424600D01*
X184885715Y-95601171D01*
X184970001Y-95766593D01*
X185079128Y-95916793D01*
X185210407Y-96048072D01*
X185360607Y-96157199D01*
X185526029Y-96241485D01*
X185702600Y-96298857D01*
X185771364Y-96309748D01*
X185885966Y-96327900D01*
X185885971Y-96327900D01*
X186071634Y-96327900D01*
X186173501Y-96311765D01*
X186255000Y-96298857D01*
X186431571Y-96241485D01*
X186596993Y-96157199D01*
X186747193Y-96048072D01*
X186878472Y-95916793D01*
X186987599Y-95766593D01*
X187071885Y-95601171D01*
X187129257Y-95424600D01*
X187129258Y-95424596D01*
X187130762Y-95419967D01*
X187132947Y-95420677D01*
X187163003Y-95368314D01*
X187225024Y-95336140D01*
X187294594Y-95342605D01*
X187349624Y-95385656D01*
X187365492Y-95420404D01*
X187366838Y-95419967D01*
X187368342Y-95424596D01*
X187368343Y-95424600D01*
X187425715Y-95601171D01*
X187510001Y-95766593D01*
X187619128Y-95916793D01*
X187750407Y-96048072D01*
X187900607Y-96157199D01*
X188066029Y-96241485D01*
X188242600Y-96298857D01*
X188311364Y-96309748D01*
X188425966Y-96327900D01*
X188425971Y-96327900D01*
X188611634Y-96327900D01*
X188713501Y-96311765D01*
X188795000Y-96298857D01*
X188971571Y-96241485D01*
X189136993Y-96157199D01*
X189287193Y-96048072D01*
X189418472Y-95916793D01*
X189527599Y-95766593D01*
X189611885Y-95601171D01*
X189669257Y-95424600D01*
X189669258Y-95424596D01*
X189670762Y-95419967D01*
X189672947Y-95420677D01*
X189703003Y-95368314D01*
X189765024Y-95336140D01*
X189834594Y-95342605D01*
X189889624Y-95385656D01*
X189905492Y-95420404D01*
X189906838Y-95419967D01*
X189908342Y-95424596D01*
X189908343Y-95424600D01*
X189965715Y-95601171D01*
X190050001Y-95766593D01*
X190159128Y-95916793D01*
X190290407Y-96048072D01*
X190440607Y-96157199D01*
X190606029Y-96241485D01*
X190782600Y-96298857D01*
X190851364Y-96309748D01*
X190965966Y-96327900D01*
X190965971Y-96327900D01*
X191151634Y-96327900D01*
X191253501Y-96311765D01*
X191335000Y-96298857D01*
X191511571Y-96241485D01*
X191676993Y-96157199D01*
X191827193Y-96048072D01*
X191958472Y-95916793D01*
X192067599Y-95766593D01*
X192151885Y-95601171D01*
X192209257Y-95424600D01*
X192209258Y-95424596D01*
X192210762Y-95419967D01*
X192212652Y-95420581D01*
X192243236Y-95367263D01*
X192305249Y-95335073D01*
X192374820Y-95341520D01*
X192429862Y-95384556D01*
X192446167Y-95420225D01*
X192447325Y-95419849D01*
X192506179Y-95600983D01*
X192590429Y-95766331D01*
X192605951Y-95787694D01*
X192605951Y-95787695D01*
X193177074Y-95216572D01*
X193202763Y-95312444D01*
X193258716Y-95409356D01*
X193337844Y-95488484D01*
X193434756Y-95544437D01*
X193530627Y-95570125D01*
X192959504Y-96141247D01*
X192959504Y-96141248D01*
X192980868Y-96156770D01*
X193146216Y-96241020D01*
X193322716Y-96298368D01*
X193506012Y-96327400D01*
X193691588Y-96327400D01*
X193874883Y-96298368D01*
X194051383Y-96241020D01*
X194216733Y-96156768D01*
X194216740Y-96156764D01*
X194238094Y-96141248D01*
X194238095Y-96141247D01*
X193666973Y-95570125D01*
X193762844Y-95544437D01*
X193859756Y-95488484D01*
X193938884Y-95409356D01*
X193994837Y-95312444D01*
X194020525Y-95216573D01*
X194591647Y-95787695D01*
X194591648Y-95787694D01*
X194607164Y-95766340D01*
X194607168Y-95766333D01*
X194691420Y-95600983D01*
X194750275Y-95419849D01*
X194752198Y-95420473D01*
X194782723Y-95367261D01*
X194844737Y-95335073D01*
X194914308Y-95341521D01*
X194969349Y-95384559D01*
X194985701Y-95420336D01*
X194986838Y-95419967D01*
X194988342Y-95424596D01*
X194988343Y-95424600D01*
X195045715Y-95601171D01*
X195130001Y-95766593D01*
X195239128Y-95916793D01*
X195370407Y-96048072D01*
X195520607Y-96157199D01*
X195686029Y-96241485D01*
X195862600Y-96298857D01*
X195931364Y-96309748D01*
X196045966Y-96327900D01*
X196045971Y-96327900D01*
X196231634Y-96327900D01*
X196333501Y-96311765D01*
X196415000Y-96298857D01*
X196591571Y-96241485D01*
X196756993Y-96157199D01*
X196907193Y-96048072D01*
X197038472Y-95916793D01*
X197147599Y-95766593D01*
X197231885Y-95601171D01*
X197289257Y-95424600D01*
X197307695Y-95308187D01*
X197318300Y-95241234D01*
X197318300Y-95055565D01*
X197291671Y-94887444D01*
X197289257Y-94872200D01*
X197231885Y-94695629D01*
X197147599Y-94530207D01*
X197038472Y-94380007D01*
X196907193Y-94248728D01*
X196756993Y-94139601D01*
X196591571Y-94055315D01*
X196415000Y-93997943D01*
X196414998Y-93997942D01*
X196414996Y-93997942D01*
X196231634Y-93968900D01*
X196231629Y-93968900D01*
X196045971Y-93968900D01*
X196045966Y-93968900D01*
X195862603Y-93997942D01*
X195686026Y-94055316D01*
X195520606Y-94139601D01*
X195443120Y-94195899D01*
X195370407Y-94248728D01*
X195370405Y-94248730D01*
X195370404Y-94248730D01*
X195239130Y-94380004D01*
X195239130Y-94380005D01*
X195239128Y-94380007D01*
X195192262Y-94444511D01*
X195130001Y-94530206D01*
X195045716Y-94695626D01*
X195045715Y-94695628D01*
X195045715Y-94695629D01*
X195009101Y-94808316D01*
X194986838Y-94876833D01*
X194984966Y-94876225D01*
X194954294Y-94929602D01*
X194892256Y-94961744D01*
X194822690Y-94955244D01*
X194767681Y-94912165D01*
X194751438Y-94876572D01*
X194750275Y-94876951D01*
X194691420Y-94695816D01*
X194607170Y-94530468D01*
X194591647Y-94509104D01*
X194020525Y-95080226D01*
X193994837Y-94984356D01*
X193938884Y-94887444D01*
X193859756Y-94808316D01*
X193762844Y-94752363D01*
X193666972Y-94726674D01*
X194238095Y-94155551D01*
X194216731Y-94140029D01*
X194051383Y-94055779D01*
X193874883Y-93998431D01*
X193691588Y-93969400D01*
X193506012Y-93969400D01*
X193322716Y-93998431D01*
X193146216Y-94055779D01*
X192980865Y-94140031D01*
X192959504Y-94155550D01*
X192959504Y-94155551D01*
X193530628Y-94726674D01*
X193434756Y-94752363D01*
X193337844Y-94808316D01*
X193258716Y-94887444D01*
X193202763Y-94984356D01*
X193177074Y-95080227D01*
X192605950Y-94509104D01*
X192590431Y-94530465D01*
X192506179Y-94695816D01*
X192447325Y-94876951D01*
X192445422Y-94876332D01*
X192414801Y-94929610D01*
X192352761Y-94961746D01*
X192283194Y-94955240D01*
X192228189Y-94912156D01*
X192211903Y-94876462D01*
X192210762Y-94876833D01*
X192209257Y-94872200D01*
X192151885Y-94695629D01*
X192067599Y-94530207D01*
X191958472Y-94380007D01*
X191827193Y-94248728D01*
X191676993Y-94139601D01*
X191511571Y-94055315D01*
X191335000Y-93997943D01*
X191334998Y-93997942D01*
X191334996Y-93997942D01*
X191151634Y-93968900D01*
X191151629Y-93968900D01*
X190965971Y-93968900D01*
X190965966Y-93968900D01*
X190782603Y-93997942D01*
X190606026Y-94055316D01*
X190440606Y-94139601D01*
X190363120Y-94195899D01*
X190290407Y-94248728D01*
X190290405Y-94248730D01*
X190290404Y-94248730D01*
X190159130Y-94380004D01*
X190159130Y-94380005D01*
X190159128Y-94380007D01*
X190112262Y-94444511D01*
X190050001Y-94530206D01*
X189965716Y-94695626D01*
X189965715Y-94695628D01*
X189965715Y-94695629D01*
X189929101Y-94808316D01*
X189906838Y-94876833D01*
X189904664Y-94876126D01*
X189874552Y-94928529D01*
X189812514Y-94960671D01*
X189742948Y-94954171D01*
X189687939Y-94911092D01*
X189672095Y-94876399D01*
X189670762Y-94876833D01*
X189669257Y-94872200D01*
X189611885Y-94695629D01*
X189527599Y-94530207D01*
X189418472Y-94380007D01*
X189287193Y-94248728D01*
X189136993Y-94139601D01*
X188971571Y-94055315D01*
X188795000Y-93997943D01*
X188794998Y-93997942D01*
X188794996Y-93997942D01*
X188611634Y-93968900D01*
X188611629Y-93968900D01*
X188425971Y-93968900D01*
X188425966Y-93968900D01*
X188242603Y-93997942D01*
X188066026Y-94055316D01*
X187900606Y-94139601D01*
X187823120Y-94195899D01*
X187750407Y-94248728D01*
X187750405Y-94248730D01*
X187750404Y-94248730D01*
X187619130Y-94380004D01*
X187619130Y-94380005D01*
X187619128Y-94380007D01*
X187572262Y-94444511D01*
X187510001Y-94530206D01*
X187425716Y-94695626D01*
X187425715Y-94695628D01*
X187425715Y-94695629D01*
X187389101Y-94808316D01*
X187366838Y-94876833D01*
X187364664Y-94876126D01*
X187334552Y-94928529D01*
X187272514Y-94960671D01*
X187202948Y-94954171D01*
X187147939Y-94911092D01*
X187132095Y-94876399D01*
X187130762Y-94876833D01*
X187129257Y-94872200D01*
X187071885Y-94695629D01*
X186987599Y-94530207D01*
X186878472Y-94380007D01*
X186747193Y-94248728D01*
X186596993Y-94139601D01*
X186431571Y-94055315D01*
X186255000Y-93997943D01*
X186254998Y-93997942D01*
X186254996Y-93997942D01*
X186071634Y-93968900D01*
X186071629Y-93968900D01*
X185885971Y-93968900D01*
X185885966Y-93968900D01*
X185702603Y-93997942D01*
X185526026Y-94055316D01*
X185360606Y-94139601D01*
X185283120Y-94195899D01*
X185210407Y-94248728D01*
X185210405Y-94248730D01*
X185210404Y-94248730D01*
X185079130Y-94380004D01*
X185079130Y-94380005D01*
X185079128Y-94380007D01*
X185032262Y-94444511D01*
X184970001Y-94530206D01*
X184885716Y-94695626D01*
X184885715Y-94695628D01*
X184885715Y-94695629D01*
X184849101Y-94808316D01*
X184826838Y-94876833D01*
X184824664Y-94876126D01*
X184794552Y-94928529D01*
X184732514Y-94960671D01*
X184662948Y-94954171D01*
X184607939Y-94911092D01*
X184592095Y-94876399D01*
X184590762Y-94876833D01*
X184589257Y-94872200D01*
X184531885Y-94695629D01*
X184447599Y-94530207D01*
X184338472Y-94380007D01*
X184207193Y-94248728D01*
X184056993Y-94139601D01*
X183891571Y-94055315D01*
X183715000Y-93997943D01*
X183714998Y-93997942D01*
X183714996Y-93997942D01*
X183531634Y-93968900D01*
X183531629Y-93968900D01*
X183345971Y-93968900D01*
X183345966Y-93968900D01*
X183162603Y-93997942D01*
X182986026Y-94055316D01*
X182820606Y-94139601D01*
X182743120Y-94195899D01*
X182670407Y-94248728D01*
X182670405Y-94248730D01*
X182670404Y-94248730D01*
X182539130Y-94380004D01*
X182539130Y-94380005D01*
X182539128Y-94380007D01*
X182492262Y-94444511D01*
X182430001Y-94530206D01*
X182345716Y-94695626D01*
X182345715Y-94695628D01*
X182345715Y-94695629D01*
X182309101Y-94808316D01*
X182286838Y-94876833D01*
X182284664Y-94876126D01*
X182254552Y-94928529D01*
X182192514Y-94960671D01*
X182122948Y-94954171D01*
X182067939Y-94911092D01*
X182052095Y-94876399D01*
X182050762Y-94876833D01*
X182049257Y-94872200D01*
X181991885Y-94695629D01*
X181907599Y-94530207D01*
X181798472Y-94380007D01*
X181667193Y-94248728D01*
X181516993Y-94139601D01*
X181351571Y-94055315D01*
X181175000Y-93997943D01*
X181174998Y-93997942D01*
X181174996Y-93997942D01*
X180991634Y-93968900D01*
X180991629Y-93968900D01*
X180805971Y-93968900D01*
X180805966Y-93968900D01*
X180622603Y-93997942D01*
X180446026Y-94055316D01*
X180280606Y-94139601D01*
X180203120Y-94195899D01*
X180130407Y-94248728D01*
X180130405Y-94248730D01*
X180130404Y-94248730D01*
X179999130Y-94380004D01*
X179999130Y-94380005D01*
X179999128Y-94380007D01*
X179952262Y-94444511D01*
X179890001Y-94530206D01*
X179805716Y-94695626D01*
X179748342Y-94872203D01*
X179719300Y-95055565D01*
X162904520Y-95055565D01*
X162916966Y-95043119D01*
X163037287Y-94877510D01*
X163130220Y-94695119D01*
X163193477Y-94500434D01*
X163225500Y-94298252D01*
X163225500Y-94093548D01*
X163195000Y-93900981D01*
X163193477Y-93891365D01*
X163147837Y-93750900D01*
X163130220Y-93696681D01*
X163130218Y-93696678D01*
X163130218Y-93696676D01*
X163037419Y-93514550D01*
X163037287Y-93514290D01*
X163005092Y-93469977D01*
X162916971Y-93348686D01*
X162772213Y-93203928D01*
X162606613Y-93083615D01*
X162606612Y-93083614D01*
X162606610Y-93083613D01*
X162549653Y-93054591D01*
X162424223Y-92990681D01*
X162229534Y-92927422D01*
X162054995Y-92899778D01*
X162027352Y-92895400D01*
X161822648Y-92895400D01*
X161798329Y-92899251D01*
X161620465Y-92927422D01*
X161425776Y-92990681D01*
X161243386Y-93083615D01*
X161077786Y-93203928D01*
X160933028Y-93348686D01*
X160812713Y-93514288D01*
X160765203Y-93607530D01*
X160717228Y-93658326D01*
X160649407Y-93675120D01*
X160583272Y-93652582D01*
X160544234Y-93607528D01*
X160496861Y-93514552D01*
X160464474Y-93469977D01*
X160464474Y-93469976D01*
X159823055Y-94111396D01*
X159799674Y-94024136D01*
X159741089Y-93922664D01*
X159658236Y-93839811D01*
X159556764Y-93781226D01*
X159469501Y-93757844D01*
X160110922Y-93116424D01*
X160110921Y-93116423D01*
X160066359Y-93084047D01*
X160066350Y-93084041D01*
X159884031Y-92991144D01*
X159689417Y-92927909D01*
X159487317Y-92895900D01*
X159282683Y-92895900D01*
X159080582Y-92927909D01*
X158885968Y-92991144D01*
X158703644Y-93084043D01*
X158659077Y-93116423D01*
X158659077Y-93116424D01*
X159300498Y-93757844D01*
X159213236Y-93781226D01*
X159111764Y-93839811D01*
X159028911Y-93922664D01*
X158970326Y-94024136D01*
X158946944Y-94111397D01*
X158305524Y-93469977D01*
X158305523Y-93469977D01*
X158273143Y-93514544D01*
X158225485Y-93608080D01*
X158177510Y-93658876D01*
X158109689Y-93675671D01*
X158043554Y-93653133D01*
X158004515Y-93608080D01*
X157956859Y-93514550D01*
X157924474Y-93469977D01*
X157924474Y-93469976D01*
X157283055Y-94111396D01*
X157259674Y-94024136D01*
X157201089Y-93922664D01*
X157118236Y-93839811D01*
X157016764Y-93781226D01*
X156929501Y-93757844D01*
X157570922Y-93116424D01*
X157570921Y-93116423D01*
X157526359Y-93084047D01*
X157526350Y-93084041D01*
X157344031Y-92991144D01*
X157149417Y-92927909D01*
X156947317Y-92895900D01*
X156742683Y-92895900D01*
X156540582Y-92927909D01*
X156345968Y-92991144D01*
X156163644Y-93084043D01*
X156119077Y-93116423D01*
X156119077Y-93116424D01*
X156760498Y-93757844D01*
X156673236Y-93781226D01*
X156571764Y-93839811D01*
X156488911Y-93922664D01*
X156430326Y-94024136D01*
X156406944Y-94111397D01*
X155765524Y-93469977D01*
X155765523Y-93469977D01*
X155733143Y-93514544D01*
X155640244Y-93696868D01*
X155577009Y-93891482D01*
X155545000Y-94093582D01*
X147217500Y-94093582D01*
X147217500Y-94093548D01*
X147187000Y-93900981D01*
X147185477Y-93891365D01*
X147139837Y-93750900D01*
X147122220Y-93696681D01*
X147122218Y-93696678D01*
X147122218Y-93696676D01*
X147029419Y-93514550D01*
X147029287Y-93514290D01*
X146997092Y-93469977D01*
X146908971Y-93348686D01*
X146764213Y-93203928D01*
X146598613Y-93083615D01*
X146598612Y-93083614D01*
X146598610Y-93083613D01*
X146541653Y-93054591D01*
X146416223Y-92990681D01*
X146221534Y-92927422D01*
X146046995Y-92899778D01*
X146019352Y-92895400D01*
X145814648Y-92895400D01*
X145790329Y-92899251D01*
X145612465Y-92927422D01*
X145417776Y-92990681D01*
X145235386Y-93083615D01*
X145069786Y-93203928D01*
X144925028Y-93348686D01*
X144804715Y-93514286D01*
X144757485Y-93606980D01*
X144709510Y-93657776D01*
X144641689Y-93674571D01*
X144575554Y-93652034D01*
X144536515Y-93606980D01*
X144489419Y-93514550D01*
X144489287Y-93514290D01*
X144457092Y-93469977D01*
X144368971Y-93348686D01*
X144224213Y-93203928D01*
X144058613Y-93083615D01*
X144058612Y-93083614D01*
X144058610Y-93083613D01*
X144001653Y-93054591D01*
X143876223Y-92990681D01*
X143681534Y-92927422D01*
X143506995Y-92899778D01*
X143479352Y-92895400D01*
X143274648Y-92895400D01*
X143250329Y-92899251D01*
X143072465Y-92927422D01*
X142877776Y-92990681D01*
X142695386Y-93083615D01*
X142529786Y-93203928D01*
X142385028Y-93348686D01*
X142264715Y-93514286D01*
X142217485Y-93606980D01*
X142169510Y-93657776D01*
X142101689Y-93674571D01*
X142035554Y-93652034D01*
X141996515Y-93606980D01*
X141949419Y-93514550D01*
X141949287Y-93514290D01*
X141917092Y-93469977D01*
X141828971Y-93348686D01*
X141684213Y-93203928D01*
X141518613Y-93083615D01*
X141518612Y-93083614D01*
X141518610Y-93083613D01*
X141461653Y-93054591D01*
X141336223Y-92990681D01*
X141141534Y-92927422D01*
X140966995Y-92899778D01*
X140939352Y-92895400D01*
X140734648Y-92895400D01*
X140710329Y-92899251D01*
X140532465Y-92927422D01*
X140337776Y-92990681D01*
X140155386Y-93083615D01*
X139989786Y-93203928D01*
X139845028Y-93348686D01*
X139724715Y-93514286D01*
X139631781Y-93696676D01*
X139568522Y-93891365D01*
X139536500Y-94093548D01*
X131215500Y-94093548D01*
X131185000Y-93900981D01*
X131183477Y-93891365D01*
X131137837Y-93750900D01*
X131120220Y-93696681D01*
X131120218Y-93696678D01*
X131120218Y-93696676D01*
X131027419Y-93514550D01*
X131027287Y-93514290D01*
X130995092Y-93469977D01*
X130906971Y-93348686D01*
X130762213Y-93203928D01*
X130596613Y-93083615D01*
X130596612Y-93083614D01*
X130596610Y-93083613D01*
X130539653Y-93054591D01*
X130414223Y-92990681D01*
X130219534Y-92927422D01*
X130044995Y-92899778D01*
X130017352Y-92895400D01*
X129812648Y-92895400D01*
X129788329Y-92899251D01*
X129610465Y-92927422D01*
X129415776Y-92990681D01*
X129233386Y-93083615D01*
X129067786Y-93203928D01*
X128923028Y-93348686D01*
X128802715Y-93514286D01*
X128755485Y-93606980D01*
X128707510Y-93657776D01*
X128639689Y-93674571D01*
X128573554Y-93652034D01*
X128534515Y-93606980D01*
X128487419Y-93514550D01*
X128487287Y-93514290D01*
X128455092Y-93469977D01*
X128366971Y-93348686D01*
X128222213Y-93203928D01*
X128056613Y-93083615D01*
X128056612Y-93083614D01*
X128056610Y-93083613D01*
X127999653Y-93054591D01*
X127874223Y-92990681D01*
X127679534Y-92927422D01*
X127504995Y-92899778D01*
X127477352Y-92895400D01*
X127272648Y-92895400D01*
X127248329Y-92899251D01*
X127070465Y-92927422D01*
X126875776Y-92990681D01*
X126693386Y-93083615D01*
X126527786Y-93203928D01*
X126383028Y-93348686D01*
X126262713Y-93514288D01*
X126215203Y-93607530D01*
X126167228Y-93658326D01*
X126099407Y-93675120D01*
X126033272Y-93652582D01*
X125994234Y-93607528D01*
X125946861Y-93514552D01*
X125914474Y-93469977D01*
X125914474Y-93469976D01*
X125273055Y-94111396D01*
X125249674Y-94024136D01*
X125191089Y-93922664D01*
X125108236Y-93839811D01*
X125006764Y-93781226D01*
X124919501Y-93757844D01*
X125560922Y-93116424D01*
X125560921Y-93116423D01*
X125516359Y-93084047D01*
X125516350Y-93084041D01*
X125334031Y-92991144D01*
X125139417Y-92927909D01*
X124937317Y-92895900D01*
X124732683Y-92895900D01*
X124530582Y-92927909D01*
X124335968Y-92991144D01*
X124153644Y-93084043D01*
X124109077Y-93116423D01*
X124109077Y-93116424D01*
X124750498Y-93757844D01*
X124663236Y-93781226D01*
X124561764Y-93839811D01*
X124478911Y-93922664D01*
X124420326Y-94024136D01*
X124396944Y-94111397D01*
X123755524Y-93469977D01*
X123755523Y-93469977D01*
X123723143Y-93514544D01*
X123630244Y-93696868D01*
X123567009Y-93891482D01*
X123535000Y-94093582D01*
X115213500Y-94093582D01*
X115213500Y-94093548D01*
X115183000Y-93900981D01*
X115181477Y-93891365D01*
X115135837Y-93750900D01*
X115118220Y-93696681D01*
X115118218Y-93696678D01*
X115118218Y-93696676D01*
X115025419Y-93514550D01*
X115025287Y-93514290D01*
X114993092Y-93469977D01*
X114904971Y-93348686D01*
X114760213Y-93203928D01*
X114594613Y-93083615D01*
X114594612Y-93083614D01*
X114594610Y-93083613D01*
X114537653Y-93054591D01*
X114412223Y-92990681D01*
X114217534Y-92927422D01*
X114042995Y-92899778D01*
X114015352Y-92895400D01*
X113810648Y-92895400D01*
X113786329Y-92899251D01*
X113608465Y-92927422D01*
X113413776Y-92990681D01*
X113231386Y-93083615D01*
X113065786Y-93203928D01*
X112921028Y-93348686D01*
X112800715Y-93514286D01*
X112753485Y-93606980D01*
X112705510Y-93657776D01*
X112637689Y-93674571D01*
X112571554Y-93652034D01*
X112532515Y-93606980D01*
X112485419Y-93514550D01*
X112485287Y-93514290D01*
X112453092Y-93469977D01*
X112364971Y-93348686D01*
X112220213Y-93203928D01*
X112054613Y-93083615D01*
X112054612Y-93083614D01*
X112054610Y-93083613D01*
X111997653Y-93054591D01*
X111872223Y-92990681D01*
X111677534Y-92927422D01*
X111502995Y-92899778D01*
X111475352Y-92895400D01*
X111270648Y-92895400D01*
X111246329Y-92899251D01*
X111068465Y-92927422D01*
X110873776Y-92990681D01*
X110691386Y-93083615D01*
X110525786Y-93203928D01*
X110381028Y-93348686D01*
X110260713Y-93514288D01*
X110213203Y-93607530D01*
X110165228Y-93658326D01*
X110097407Y-93675120D01*
X110031272Y-93652582D01*
X109992234Y-93607528D01*
X109944861Y-93514552D01*
X109912474Y-93469977D01*
X109912474Y-93469976D01*
X109271055Y-94111396D01*
X109247674Y-94024136D01*
X109189089Y-93922664D01*
X109106236Y-93839811D01*
X109004764Y-93781226D01*
X108917501Y-93757844D01*
X109558922Y-93116424D01*
X109558921Y-93116423D01*
X109514359Y-93084047D01*
X109514350Y-93084041D01*
X109332031Y-92991144D01*
X109137417Y-92927909D01*
X108935317Y-92895900D01*
X108730683Y-92895900D01*
X108528582Y-92927909D01*
X108333968Y-92991144D01*
X108151644Y-93084043D01*
X108107077Y-93116423D01*
X108107077Y-93116424D01*
X108748498Y-93757844D01*
X108661236Y-93781226D01*
X108559764Y-93839811D01*
X108476911Y-93922664D01*
X108418326Y-94024136D01*
X108394944Y-94111397D01*
X107753524Y-93469977D01*
X107753523Y-93469977D01*
X107721143Y-93514544D01*
X107628244Y-93696868D01*
X107565009Y-93891482D01*
X107533000Y-94093582D01*
X96207850Y-94093582D01*
X96207850Y-82428711D01*
X98225500Y-82428711D01*
X98225500Y-82671288D01*
X98257161Y-82911785D01*
X98319947Y-83146104D01*
X98386193Y-83306035D01*
X98412776Y-83370212D01*
X98534064Y-83580289D01*
X98534066Y-83580292D01*
X98534067Y-83580293D01*
X98681733Y-83772736D01*
X98681739Y-83772743D01*
X98853256Y-83944260D01*
X98853262Y-83944265D01*
X99045711Y-84091936D01*
X99255788Y-84213224D01*
X99479900Y-84306054D01*
X99714211Y-84368838D01*
X99894586Y-84392584D01*
X99954711Y-84400500D01*
X99954712Y-84400500D01*
X100197289Y-84400500D01*
X100245388Y-84394167D01*
X100437789Y-84368838D01*
X100672100Y-84306054D01*
X100896212Y-84213224D01*
X101106289Y-84091936D01*
X101298738Y-83944265D01*
X101470265Y-83772738D01*
X101617936Y-83580289D01*
X101739224Y-83370212D01*
X101832054Y-83146100D01*
X101894838Y-82911789D01*
X101926500Y-82671288D01*
X101926500Y-82428712D01*
X101894838Y-82188211D01*
X101878207Y-82126144D01*
X105760899Y-82126144D01*
X105760899Y-82346855D01*
X105795426Y-82564850D01*
X105863627Y-82774755D01*
X105863628Y-82774758D01*
X105933448Y-82911785D01*
X105963830Y-82971413D01*
X106093561Y-83149972D01*
X106249627Y-83306038D01*
X106428186Y-83435769D01*
X106494893Y-83469758D01*
X106624840Y-83535970D01*
X106624843Y-83535971D01*
X106729795Y-83570071D01*
X106834750Y-83604173D01*
X107052743Y-83638700D01*
X107052744Y-83638700D01*
X107273454Y-83638700D01*
X107273455Y-83638700D01*
X107491448Y-83604173D01*
X107701357Y-83535970D01*
X107898012Y-83435769D01*
X108076571Y-83306038D01*
X108232637Y-83149972D01*
X108362368Y-82971413D01*
X108462569Y-82774758D01*
X108530772Y-82564849D01*
X108565299Y-82346856D01*
X108565299Y-82126144D01*
X110760900Y-82126144D01*
X110760900Y-82346855D01*
X110795427Y-82564850D01*
X110863628Y-82774755D01*
X110863629Y-82774758D01*
X110933449Y-82911785D01*
X110963831Y-82971413D01*
X111093562Y-83149972D01*
X111249628Y-83306038D01*
X111428187Y-83435769D01*
X111494894Y-83469758D01*
X111624841Y-83535970D01*
X111624844Y-83535971D01*
X111729796Y-83570071D01*
X111834751Y-83604173D01*
X112052744Y-83638700D01*
X112052745Y-83638700D01*
X112273455Y-83638700D01*
X112273456Y-83638700D01*
X112491449Y-83604173D01*
X112701358Y-83535970D01*
X112898013Y-83435769D01*
X113076572Y-83306038D01*
X113232638Y-83149972D01*
X113362369Y-82971413D01*
X113462570Y-82774758D01*
X113530773Y-82564849D01*
X113565300Y-82346856D01*
X113565300Y-82126144D01*
X115760900Y-82126144D01*
X115760900Y-82346855D01*
X115795427Y-82564850D01*
X115863628Y-82774755D01*
X115863629Y-82774758D01*
X115933449Y-82911785D01*
X115963831Y-82971413D01*
X116093562Y-83149972D01*
X116249628Y-83306038D01*
X116428187Y-83435769D01*
X116494894Y-83469758D01*
X116624841Y-83535970D01*
X116624844Y-83535971D01*
X116729796Y-83570071D01*
X116834751Y-83604173D01*
X117052744Y-83638700D01*
X117052745Y-83638700D01*
X117273455Y-83638700D01*
X117273456Y-83638700D01*
X117491449Y-83604173D01*
X117701358Y-83535970D01*
X117898013Y-83435769D01*
X118076572Y-83306038D01*
X118232638Y-83149972D01*
X118362369Y-82971413D01*
X118462570Y-82774758D01*
X118530773Y-82564849D01*
X118565300Y-82346856D01*
X118565300Y-82126144D01*
X120760900Y-82126144D01*
X120760900Y-82346855D01*
X120795427Y-82564850D01*
X120863628Y-82774755D01*
X120863629Y-82774758D01*
X120933449Y-82911785D01*
X120963831Y-82971413D01*
X121093562Y-83149972D01*
X121249628Y-83306038D01*
X121383547Y-83403336D01*
X121428188Y-83435770D01*
X121494894Y-83469758D01*
X121545691Y-83517732D01*
X121562600Y-83580243D01*
X121562600Y-89699559D01*
X121542915Y-89766598D01*
X121530571Y-89781915D01*
X121530676Y-89782001D01*
X121526810Y-89786711D01*
X121439209Y-89917814D01*
X121439202Y-89917827D01*
X121378864Y-90063498D01*
X121378861Y-90063510D01*
X121348100Y-90218153D01*
X121348100Y-90375846D01*
X121378861Y-90530489D01*
X121378864Y-90530501D01*
X121439202Y-90676172D01*
X121439209Y-90676185D01*
X121526810Y-90807288D01*
X121526813Y-90807292D01*
X121638307Y-90918786D01*
X121638311Y-90918789D01*
X121769414Y-91006390D01*
X121769427Y-91006397D01*
X121915098Y-91066735D01*
X121915103Y-91066737D01*
X122069753Y-91097499D01*
X122069756Y-91097500D01*
X122069758Y-91097500D01*
X122227444Y-91097500D01*
X122227445Y-91097499D01*
X122382097Y-91066737D01*
X122527779Y-91006394D01*
X122658889Y-90918789D01*
X122770389Y-90807289D01*
X122857994Y-90676179D01*
X122918337Y-90530497D01*
X122949100Y-90375842D01*
X122949100Y-90218158D01*
X122949100Y-90218155D01*
X122949099Y-90218153D01*
X122931942Y-90131899D01*
X122918337Y-90063503D01*
X122882716Y-89977506D01*
X122857997Y-89917827D01*
X122857990Y-89917814D01*
X122784498Y-89807826D01*
X122778847Y-89789779D01*
X122768623Y-89773870D01*
X122764171Y-89742910D01*
X122763620Y-89741149D01*
X122763600Y-89738935D01*
X122763600Y-89645289D01*
X151299500Y-89645289D01*
X151299500Y-90618510D01*
X151326579Y-90789485D01*
X151326598Y-90789601D01*
X151380127Y-90954345D01*
X151458768Y-91108688D01*
X151560586Y-91248828D01*
X151683072Y-91371314D01*
X151823212Y-91473132D01*
X151977555Y-91551773D01*
X152142299Y-91605302D01*
X152313389Y-91632400D01*
X152313390Y-91632400D01*
X152486610Y-91632400D01*
X152486611Y-91632400D01*
X152657701Y-91605302D01*
X152822445Y-91551773D01*
X152976788Y-91473132D01*
X153116928Y-91371314D01*
X153239414Y-91248828D01*
X153341232Y-91108688D01*
X153419873Y-90954345D01*
X153473402Y-90789601D01*
X153500500Y-90618511D01*
X153500500Y-89645289D01*
X153839500Y-89645289D01*
X153839500Y-90618510D01*
X153866579Y-90789485D01*
X153866598Y-90789601D01*
X153920127Y-90954345D01*
X153998768Y-91108688D01*
X154100586Y-91248828D01*
X154223072Y-91371314D01*
X154363212Y-91473132D01*
X154517555Y-91551773D01*
X154682299Y-91605302D01*
X154853389Y-91632400D01*
X154853390Y-91632400D01*
X155026610Y-91632400D01*
X155026611Y-91632400D01*
X155197701Y-91605302D01*
X155362445Y-91551773D01*
X155516788Y-91473132D01*
X155656928Y-91371314D01*
X155779414Y-91248828D01*
X155881232Y-91108688D01*
X155959873Y-90954345D01*
X156013402Y-90789601D01*
X156040500Y-90618511D01*
X156040500Y-89645289D01*
X156379500Y-89645289D01*
X156379500Y-90618510D01*
X156406579Y-90789485D01*
X156406598Y-90789601D01*
X156460127Y-90954345D01*
X156538768Y-91108688D01*
X156640586Y-91248828D01*
X156763072Y-91371314D01*
X156903212Y-91473132D01*
X157057555Y-91551773D01*
X157222299Y-91605302D01*
X157393389Y-91632400D01*
X157393390Y-91632400D01*
X157566610Y-91632400D01*
X157566611Y-91632400D01*
X157737701Y-91605302D01*
X157902445Y-91551773D01*
X158056788Y-91473132D01*
X158196928Y-91371314D01*
X158319414Y-91248828D01*
X158421232Y-91108688D01*
X158499873Y-90954345D01*
X158553402Y-90789601D01*
X158580500Y-90618511D01*
X158580500Y-89645289D01*
X158919500Y-89645289D01*
X158919500Y-90618510D01*
X158946579Y-90789485D01*
X158946598Y-90789601D01*
X159000127Y-90954345D01*
X159078768Y-91108688D01*
X159180586Y-91248828D01*
X159303072Y-91371314D01*
X159443212Y-91473132D01*
X159597555Y-91551773D01*
X159762299Y-91605302D01*
X159933389Y-91632400D01*
X159933390Y-91632400D01*
X160106610Y-91632400D01*
X160106611Y-91632400D01*
X160277701Y-91605302D01*
X160442445Y-91551773D01*
X160596788Y-91473132D01*
X160736928Y-91371314D01*
X160859414Y-91248828D01*
X160961232Y-91108688D01*
X161039873Y-90954345D01*
X161093402Y-90789601D01*
X161120500Y-90618511D01*
X161120500Y-89645328D01*
X161460000Y-89645328D01*
X161460000Y-90618471D01*
X161487086Y-90789485D01*
X161487086Y-90789488D01*
X161502235Y-90836111D01*
X161502236Y-90836111D01*
X162160000Y-90178347D01*
X162160000Y-90184561D01*
X162187259Y-90286294D01*
X162239920Y-90377506D01*
X162314394Y-90451980D01*
X162405606Y-90504641D01*
X162507339Y-90531900D01*
X162513552Y-90531900D01*
X161758958Y-91286492D01*
X161758958Y-91286493D01*
X161843397Y-91370932D01*
X161983475Y-91472704D01*
X162137742Y-91551308D01*
X162302415Y-91604814D01*
X162473429Y-91631900D01*
X162646571Y-91631900D01*
X162817584Y-91604814D01*
X162982257Y-91551308D01*
X163136524Y-91472704D01*
X163276601Y-91370933D01*
X163361041Y-91286492D01*
X162606448Y-90531900D01*
X162612661Y-90531900D01*
X162714394Y-90504641D01*
X162805606Y-90451980D01*
X162880080Y-90377506D01*
X162932741Y-90286294D01*
X162960000Y-90184561D01*
X162960000Y-90178348D01*
X163617762Y-90836111D01*
X163617763Y-90836111D01*
X163632913Y-90789485D01*
X163632914Y-90789482D01*
X163660000Y-90618471D01*
X163660000Y-89645328D01*
X164000000Y-89645328D01*
X164000000Y-90618471D01*
X164027086Y-90789485D01*
X164027086Y-90789488D01*
X164042235Y-90836111D01*
X164042236Y-90836111D01*
X164700000Y-90178347D01*
X164700000Y-90184561D01*
X164727259Y-90286294D01*
X164779920Y-90377506D01*
X164854394Y-90451980D01*
X164945606Y-90504641D01*
X165047339Y-90531900D01*
X165053552Y-90531900D01*
X164298958Y-91286492D01*
X164298958Y-91286493D01*
X164383397Y-91370932D01*
X164523475Y-91472704D01*
X164677742Y-91551308D01*
X164842415Y-91604814D01*
X165013429Y-91631900D01*
X165186571Y-91631900D01*
X165357584Y-91604814D01*
X165522257Y-91551308D01*
X165676524Y-91472704D01*
X165816601Y-91370933D01*
X165901041Y-91286492D01*
X165146448Y-90531900D01*
X165152661Y-90531900D01*
X165254394Y-90504641D01*
X165345606Y-90451980D01*
X165420080Y-90377506D01*
X165472741Y-90286294D01*
X165500000Y-90184561D01*
X165500000Y-90178348D01*
X166157762Y-90836111D01*
X166157763Y-90836111D01*
X166172913Y-90789485D01*
X166172914Y-90789482D01*
X166200000Y-90618471D01*
X166200000Y-89645328D01*
X166172914Y-89474320D01*
X166172914Y-89474317D01*
X166157762Y-89427688D01*
X166157762Y-89427687D01*
X165500000Y-90085450D01*
X165500000Y-90079239D01*
X165472741Y-89977506D01*
X165420080Y-89886294D01*
X165345606Y-89811820D01*
X165254394Y-89759159D01*
X165152661Y-89731900D01*
X165146449Y-89731900D01*
X165901041Y-88977306D01*
X165816602Y-88892867D01*
X165676524Y-88791095D01*
X165522257Y-88712491D01*
X165357584Y-88658985D01*
X165186571Y-88631900D01*
X165013429Y-88631900D01*
X164842415Y-88658985D01*
X164677742Y-88712491D01*
X164523471Y-88791098D01*
X164383398Y-88892866D01*
X164298958Y-88977306D01*
X165053552Y-89731900D01*
X165047339Y-89731900D01*
X164945606Y-89759159D01*
X164854394Y-89811820D01*
X164779920Y-89886294D01*
X164727259Y-89977506D01*
X164700000Y-90079239D01*
X164700000Y-90085452D01*
X164042236Y-89427688D01*
X164042235Y-89427688D01*
X164027086Y-89474314D01*
X164000000Y-89645328D01*
X163660000Y-89645328D01*
X163632914Y-89474320D01*
X163632914Y-89474317D01*
X163617762Y-89427688D01*
X163617762Y-89427687D01*
X162960000Y-90085450D01*
X162960000Y-90079239D01*
X162932741Y-89977506D01*
X162880080Y-89886294D01*
X162805606Y-89811820D01*
X162714394Y-89759159D01*
X162612661Y-89731900D01*
X162606449Y-89731900D01*
X163361041Y-88977306D01*
X163276602Y-88892867D01*
X163136524Y-88791095D01*
X162982257Y-88712491D01*
X162817584Y-88658985D01*
X162646571Y-88631900D01*
X162473429Y-88631900D01*
X162302415Y-88658985D01*
X162137742Y-88712491D01*
X161983471Y-88791098D01*
X161843398Y-88892866D01*
X161758958Y-88977306D01*
X162513552Y-89731900D01*
X162507339Y-89731900D01*
X162405606Y-89759159D01*
X162314394Y-89811820D01*
X162239920Y-89886294D01*
X162187259Y-89977506D01*
X162160000Y-90079239D01*
X162160000Y-90085452D01*
X161502236Y-89427688D01*
X161502235Y-89427688D01*
X161487086Y-89474314D01*
X161460000Y-89645328D01*
X161120500Y-89645328D01*
X161120500Y-89645289D01*
X161093402Y-89474199D01*
X161039873Y-89309455D01*
X160961232Y-89155112D01*
X160859414Y-89014972D01*
X160736928Y-88892486D01*
X160596788Y-88790668D01*
X160442445Y-88712027D01*
X160277701Y-88658498D01*
X160277699Y-88658497D01*
X160277698Y-88658497D01*
X160146271Y-88637681D01*
X160106611Y-88631400D01*
X159933389Y-88631400D01*
X159893728Y-88637681D01*
X159762302Y-88658497D01*
X159597552Y-88712028D01*
X159443211Y-88790668D01*
X159363256Y-88848759D01*
X159303072Y-88892486D01*
X159303070Y-88892488D01*
X159303069Y-88892488D01*
X159180588Y-89014969D01*
X159180588Y-89014970D01*
X159180586Y-89014972D01*
X159136859Y-89075156D01*
X159078768Y-89155111D01*
X159000128Y-89309452D01*
X158946597Y-89474202D01*
X158919500Y-89645289D01*
X158580500Y-89645289D01*
X158553402Y-89474199D01*
X158499873Y-89309455D01*
X158421232Y-89155112D01*
X158319414Y-89014972D01*
X158196928Y-88892486D01*
X158056788Y-88790668D01*
X157902445Y-88712027D01*
X157737701Y-88658498D01*
X157737699Y-88658497D01*
X157737698Y-88658497D01*
X157599520Y-88636612D01*
X157566611Y-88631400D01*
X157393389Y-88631400D01*
X157345374Y-88639004D01*
X157345367Y-88639005D01*
X157222301Y-88658497D01*
X157057552Y-88712028D01*
X156903211Y-88790668D01*
X156823256Y-88848759D01*
X156763072Y-88892486D01*
X156763070Y-88892488D01*
X156763069Y-88892488D01*
X156640588Y-89014969D01*
X156640588Y-89014970D01*
X156640586Y-89014972D01*
X156596859Y-89075156D01*
X156538768Y-89155111D01*
X156460128Y-89309452D01*
X156406597Y-89474202D01*
X156379500Y-89645289D01*
X156040500Y-89645289D01*
X156013402Y-89474199D01*
X155959873Y-89309455D01*
X155881232Y-89155112D01*
X155779414Y-89014972D01*
X155656928Y-88892486D01*
X155516788Y-88790668D01*
X155362445Y-88712027D01*
X155197701Y-88658498D01*
X155197699Y-88658497D01*
X155197698Y-88658497D01*
X155066271Y-88637681D01*
X155026611Y-88631400D01*
X154853389Y-88631400D01*
X154813728Y-88637681D01*
X154682302Y-88658497D01*
X154517552Y-88712028D01*
X154363211Y-88790668D01*
X154283256Y-88848759D01*
X154223072Y-88892486D01*
X154223070Y-88892488D01*
X154223069Y-88892488D01*
X154100588Y-89014969D01*
X154100588Y-89014970D01*
X154100586Y-89014972D01*
X154056859Y-89075156D01*
X153998768Y-89155111D01*
X153920128Y-89309452D01*
X153866597Y-89474202D01*
X153839500Y-89645289D01*
X153500500Y-89645289D01*
X153473402Y-89474199D01*
X153419873Y-89309455D01*
X153341232Y-89155112D01*
X153239414Y-89014972D01*
X153116928Y-88892486D01*
X152976788Y-88790668D01*
X152822445Y-88712027D01*
X152657701Y-88658498D01*
X152657699Y-88658497D01*
X152657698Y-88658497D01*
X152526271Y-88637681D01*
X152486611Y-88631400D01*
X152313389Y-88631400D01*
X152273728Y-88637681D01*
X152142302Y-88658497D01*
X151977552Y-88712028D01*
X151823211Y-88790668D01*
X151743256Y-88848759D01*
X151683072Y-88892486D01*
X151683070Y-88892488D01*
X151683069Y-88892488D01*
X151560588Y-89014969D01*
X151560588Y-89014970D01*
X151560586Y-89014972D01*
X151516859Y-89075156D01*
X151458768Y-89155111D01*
X151380128Y-89309452D01*
X151326597Y-89474202D01*
X151299500Y-89645289D01*
X122763600Y-89645289D01*
X122763600Y-86752053D01*
X151828100Y-86752053D01*
X151828100Y-86909746D01*
X151858861Y-87064389D01*
X151858864Y-87064401D01*
X151919202Y-87210072D01*
X151919209Y-87210085D01*
X152006810Y-87341188D01*
X152006813Y-87341192D01*
X152118307Y-87452686D01*
X152118311Y-87452689D01*
X152249414Y-87540290D01*
X152249421Y-87540294D01*
X152392775Y-87599673D01*
X152447176Y-87643511D01*
X152466938Y-87690040D01*
X152493861Y-87825391D01*
X152493864Y-87825401D01*
X152554202Y-87971072D01*
X152554209Y-87971085D01*
X152641810Y-88102188D01*
X152641813Y-88102192D01*
X152753307Y-88213686D01*
X152753311Y-88213689D01*
X152884414Y-88301290D01*
X152884427Y-88301297D01*
X153030098Y-88361635D01*
X153030103Y-88361637D01*
X153141609Y-88383817D01*
X153184753Y-88392399D01*
X153184756Y-88392400D01*
X153184758Y-88392400D01*
X153342444Y-88392400D01*
X153342445Y-88392399D01*
X153497097Y-88361637D01*
X153642779Y-88301294D01*
X153642785Y-88301290D01*
X153774475Y-88213298D01*
X153841153Y-88192420D01*
X153843366Y-88192400D01*
X156849434Y-88192400D01*
X156916473Y-88212085D01*
X156918325Y-88213298D01*
X157050014Y-88301290D01*
X157050027Y-88301297D01*
X157195698Y-88361635D01*
X157195703Y-88361637D01*
X157252313Y-88372897D01*
X157343020Y-88390941D01*
X157343022Y-88390940D01*
X157350358Y-88392400D01*
X157508042Y-88392400D01*
X157662697Y-88361637D01*
X157808379Y-88301294D01*
X157939489Y-88213689D01*
X158050989Y-88102189D01*
X158138594Y-87971079D01*
X158198937Y-87825397D01*
X158229700Y-87670742D01*
X158229700Y-87555400D01*
X158232250Y-87546714D01*
X158230962Y-87537753D01*
X158241940Y-87513712D01*
X158249385Y-87488361D01*
X158256225Y-87482433D01*
X158259987Y-87474197D01*
X158282221Y-87459907D01*
X158302189Y-87442606D01*
X158312703Y-87440318D01*
X158318765Y-87436423D01*
X158353700Y-87431400D01*
X158497205Y-87431400D01*
X158564244Y-87451085D01*
X158584886Y-87467719D01*
X158592275Y-87475108D01*
X158592279Y-87475111D01*
X158723382Y-87562712D01*
X158723395Y-87562719D01*
X158869066Y-87623057D01*
X158869071Y-87623059D01*
X159023721Y-87653821D01*
X159023724Y-87653822D01*
X159023726Y-87653822D01*
X159181412Y-87653822D01*
X159181413Y-87653821D01*
X159336065Y-87623059D01*
X159481747Y-87562716D01*
X159612857Y-87475111D01*
X159724357Y-87363611D01*
X159811962Y-87232501D01*
X159872305Y-87086819D01*
X159903068Y-86932164D01*
X159903068Y-86774480D01*
X159903068Y-86774477D01*
X159903067Y-86774475D01*
X159872306Y-86619832D01*
X159872305Y-86619825D01*
X159872303Y-86619820D01*
X159811965Y-86474149D01*
X159811958Y-86474136D01*
X159724357Y-86343033D01*
X159724354Y-86343029D01*
X159612860Y-86231535D01*
X159612856Y-86231532D01*
X159481753Y-86143931D01*
X159481740Y-86143924D01*
X159336067Y-86083585D01*
X159336059Y-86083583D01*
X159308197Y-86078041D01*
X159246286Y-86045656D01*
X159219133Y-86001257D01*
X159217268Y-86002030D01*
X159154597Y-85850727D01*
X159154590Y-85850714D01*
X159066989Y-85719611D01*
X159066986Y-85719607D01*
X158955492Y-85608113D01*
X158955488Y-85608110D01*
X158824385Y-85520509D01*
X158824372Y-85520502D01*
X158678701Y-85460164D01*
X158678689Y-85460161D01*
X158524045Y-85429400D01*
X158524042Y-85429400D01*
X158366358Y-85429400D01*
X158366355Y-85429400D01*
X158211710Y-85460161D01*
X158211698Y-85460164D01*
X158066027Y-85520502D01*
X158066014Y-85520509D01*
X157934911Y-85608110D01*
X157934907Y-85608113D01*
X157857940Y-85685081D01*
X157796617Y-85718566D01*
X157770259Y-85721400D01*
X154040141Y-85721400D01*
X153973102Y-85701715D01*
X153952460Y-85685081D01*
X153875492Y-85608113D01*
X153875488Y-85608110D01*
X153744385Y-85520509D01*
X153744372Y-85520502D01*
X153598701Y-85460164D01*
X153598689Y-85460161D01*
X153444045Y-85429400D01*
X153444042Y-85429400D01*
X153286358Y-85429400D01*
X153286355Y-85429400D01*
X153131710Y-85460161D01*
X153131698Y-85460164D01*
X152986027Y-85520502D01*
X152986014Y-85520509D01*
X152854911Y-85608110D01*
X152854907Y-85608113D01*
X152743413Y-85719607D01*
X152743410Y-85719611D01*
X152655809Y-85850714D01*
X152655804Y-85850724D01*
X152609584Y-85962310D01*
X152565743Y-86016713D01*
X152519215Y-86036474D01*
X152395108Y-86061161D01*
X152395098Y-86061164D01*
X152249427Y-86121502D01*
X152249414Y-86121509D01*
X152118311Y-86209110D01*
X152118307Y-86209113D01*
X152006813Y-86320607D01*
X152006810Y-86320611D01*
X151919209Y-86451714D01*
X151919202Y-86451727D01*
X151858864Y-86597398D01*
X151858861Y-86597410D01*
X151828100Y-86752053D01*
X122763600Y-86752053D01*
X122763600Y-83580243D01*
X122783285Y-83513204D01*
X122831306Y-83469758D01*
X122898011Y-83435770D01*
X122898010Y-83435770D01*
X122898013Y-83435769D01*
X123076572Y-83306038D01*
X123232638Y-83149972D01*
X123362369Y-82971413D01*
X123462570Y-82774758D01*
X123530773Y-82564849D01*
X123565300Y-82346856D01*
X123565300Y-82126184D01*
X129234299Y-82126184D01*
X129234299Y-82346815D01*
X129268814Y-82564733D01*
X129268814Y-82564736D01*
X129336991Y-82774563D01*
X129437156Y-82971147D01*
X129483714Y-83035230D01*
X130036717Y-82482227D01*
X130062015Y-82543301D01*
X130132898Y-82649385D01*
X130223114Y-82739601D01*
X130329198Y-82810484D01*
X130390270Y-82835780D01*
X129837267Y-83388782D01*
X129837267Y-83388783D01*
X129901351Y-83435342D01*
X130097935Y-83535507D01*
X130307763Y-83603684D01*
X130525684Y-83638200D01*
X130746314Y-83638200D01*
X130964232Y-83603684D01*
X130964235Y-83603684D01*
X131174062Y-83535507D01*
X131370650Y-83435340D01*
X131434729Y-83388783D01*
X131434730Y-83388783D01*
X130881727Y-82835781D01*
X130942800Y-82810484D01*
X131048884Y-82739601D01*
X131139100Y-82649385D01*
X131209983Y-82543301D01*
X131235279Y-82482228D01*
X131788282Y-83035231D01*
X131788282Y-83035230D01*
X131834839Y-82971151D01*
X131935006Y-82774563D01*
X132003183Y-82564736D01*
X132003183Y-82564733D01*
X132037699Y-82346815D01*
X132037699Y-82126184D01*
X134234300Y-82126184D01*
X134234300Y-82346815D01*
X134268815Y-82564733D01*
X134268815Y-82564736D01*
X134336992Y-82774563D01*
X134437157Y-82971147D01*
X134483715Y-83035230D01*
X135036718Y-82482227D01*
X135062016Y-82543301D01*
X135132899Y-82649385D01*
X135223115Y-82739601D01*
X135329199Y-82810484D01*
X135390271Y-82835780D01*
X134837268Y-83388782D01*
X134837268Y-83388783D01*
X134901352Y-83435342D01*
X135097936Y-83535507D01*
X135307764Y-83603684D01*
X135525685Y-83638200D01*
X135746315Y-83638200D01*
X135964233Y-83603684D01*
X135964236Y-83603684D01*
X136174063Y-83535507D01*
X136370651Y-83435340D01*
X136434730Y-83388783D01*
X136434731Y-83388783D01*
X135881728Y-82835781D01*
X135942801Y-82810484D01*
X136048885Y-82739601D01*
X136139101Y-82649385D01*
X136209984Y-82543301D01*
X136235280Y-82482228D01*
X136788283Y-83035231D01*
X136788283Y-83035230D01*
X136834840Y-82971151D01*
X136935007Y-82774563D01*
X137003184Y-82564736D01*
X137003184Y-82564733D01*
X137037700Y-82346815D01*
X137037700Y-82126184D01*
X139234300Y-82126184D01*
X139234300Y-82346815D01*
X139268815Y-82564733D01*
X139268815Y-82564736D01*
X139336992Y-82774563D01*
X139437157Y-82971147D01*
X139483715Y-83035230D01*
X140036718Y-82482227D01*
X140062016Y-82543301D01*
X140132899Y-82649385D01*
X140223115Y-82739601D01*
X140329199Y-82810484D01*
X140390271Y-82835780D01*
X139837268Y-83388782D01*
X139837268Y-83388783D01*
X139901352Y-83435342D01*
X140097936Y-83535507D01*
X140307764Y-83603684D01*
X140525685Y-83638200D01*
X140746315Y-83638200D01*
X140964233Y-83603684D01*
X140964236Y-83603684D01*
X141174063Y-83535507D01*
X141370651Y-83435340D01*
X141434730Y-83388783D01*
X141434731Y-83388783D01*
X140881728Y-82835781D01*
X140942801Y-82810484D01*
X141048885Y-82739601D01*
X141139101Y-82649385D01*
X141209984Y-82543301D01*
X141235280Y-82482228D01*
X141788283Y-83035231D01*
X141788283Y-83035230D01*
X141834840Y-82971151D01*
X141935007Y-82774563D01*
X142003184Y-82564736D01*
X142003184Y-82564733D01*
X142037700Y-82346815D01*
X142037700Y-82126184D01*
X144234300Y-82126184D01*
X144234300Y-82346815D01*
X144268815Y-82564733D01*
X144268815Y-82564736D01*
X144336992Y-82774563D01*
X144437157Y-82971147D01*
X144483715Y-83035230D01*
X145036718Y-82482227D01*
X145062016Y-82543301D01*
X145132899Y-82649385D01*
X145223115Y-82739601D01*
X145329199Y-82810484D01*
X145390271Y-82835780D01*
X144837268Y-83388782D01*
X144837268Y-83388783D01*
X144901352Y-83435342D01*
X145097936Y-83535507D01*
X145307764Y-83603684D01*
X145525685Y-83638200D01*
X145746315Y-83638200D01*
X145964233Y-83603684D01*
X145964236Y-83603684D01*
X146174063Y-83535507D01*
X146370651Y-83435340D01*
X146434730Y-83388783D01*
X146434731Y-83388783D01*
X145881728Y-82835781D01*
X145942801Y-82810484D01*
X146048885Y-82739601D01*
X146139101Y-82649385D01*
X146209984Y-82543301D01*
X146235280Y-82482228D01*
X146788283Y-83035231D01*
X146788283Y-83035230D01*
X146834840Y-82971151D01*
X146935007Y-82774563D01*
X147003184Y-82564736D01*
X147003184Y-82564733D01*
X147037700Y-82346815D01*
X147037700Y-82126184D01*
X147003184Y-81908266D01*
X147003184Y-81908263D01*
X146935007Y-81698436D01*
X146834842Y-81501852D01*
X146788283Y-81437768D01*
X146235280Y-81990770D01*
X146209984Y-81929699D01*
X146139101Y-81823615D01*
X146048885Y-81733399D01*
X145942801Y-81662516D01*
X145881726Y-81637218D01*
X146434730Y-81084215D01*
X146370647Y-81037657D01*
X146174063Y-80937492D01*
X145964235Y-80869315D01*
X145746315Y-80834800D01*
X145525685Y-80834800D01*
X145307766Y-80869315D01*
X145307763Y-80869315D01*
X145097936Y-80937492D01*
X144901342Y-81037662D01*
X144837268Y-81084214D01*
X144837268Y-81084215D01*
X145390271Y-81637218D01*
X145329199Y-81662516D01*
X145223115Y-81733399D01*
X145132899Y-81823615D01*
X145062016Y-81929699D01*
X145036718Y-81990771D01*
X144483715Y-81437768D01*
X144483714Y-81437768D01*
X144437162Y-81501842D01*
X144336992Y-81698436D01*
X144268815Y-81908263D01*
X144268815Y-81908266D01*
X144234300Y-82126184D01*
X142037700Y-82126184D01*
X142003184Y-81908266D01*
X142003184Y-81908263D01*
X141935007Y-81698436D01*
X141834842Y-81501852D01*
X141788283Y-81437768D01*
X141235280Y-81990770D01*
X141209984Y-81929699D01*
X141139101Y-81823615D01*
X141048885Y-81733399D01*
X140942801Y-81662516D01*
X140881726Y-81637218D01*
X141434730Y-81084215D01*
X141370647Y-81037657D01*
X141174063Y-80937492D01*
X140964235Y-80869315D01*
X140746315Y-80834800D01*
X140525685Y-80834800D01*
X140307766Y-80869315D01*
X140307763Y-80869315D01*
X140097936Y-80937492D01*
X139901342Y-81037662D01*
X139837268Y-81084214D01*
X139837268Y-81084215D01*
X140390271Y-81637218D01*
X140329199Y-81662516D01*
X140223115Y-81733399D01*
X140132899Y-81823615D01*
X140062016Y-81929699D01*
X140036718Y-81990771D01*
X139483715Y-81437768D01*
X139483714Y-81437768D01*
X139437162Y-81501842D01*
X139336992Y-81698436D01*
X139268815Y-81908263D01*
X139268815Y-81908266D01*
X139234300Y-82126184D01*
X137037700Y-82126184D01*
X137003184Y-81908266D01*
X137003184Y-81908263D01*
X136935007Y-81698436D01*
X136834842Y-81501852D01*
X136788283Y-81437768D01*
X136788282Y-81437768D01*
X136235280Y-81990770D01*
X136209984Y-81929699D01*
X136139101Y-81823615D01*
X136048885Y-81733399D01*
X135942801Y-81662516D01*
X135881726Y-81637218D01*
X136434730Y-81084215D01*
X136370647Y-81037657D01*
X136174063Y-80937492D01*
X135964235Y-80869315D01*
X135746315Y-80834800D01*
X135525685Y-80834800D01*
X135307766Y-80869315D01*
X135307763Y-80869315D01*
X135097936Y-80937492D01*
X134901342Y-81037662D01*
X134837268Y-81084214D01*
X134837268Y-81084215D01*
X135390271Y-81637218D01*
X135329199Y-81662516D01*
X135223115Y-81733399D01*
X135132899Y-81823615D01*
X135062016Y-81929699D01*
X135036718Y-81990771D01*
X134483715Y-81437768D01*
X134483714Y-81437768D01*
X134437162Y-81501842D01*
X134336992Y-81698436D01*
X134268815Y-81908263D01*
X134268815Y-81908266D01*
X134234300Y-82126184D01*
X132037699Y-82126184D01*
X132003183Y-81908266D01*
X132003183Y-81908263D01*
X131935006Y-81698436D01*
X131834841Y-81501852D01*
X131788282Y-81437768D01*
X131788281Y-81437768D01*
X131235279Y-81990770D01*
X131209983Y-81929699D01*
X131139100Y-81823615D01*
X131048884Y-81733399D01*
X130942800Y-81662516D01*
X130881725Y-81637218D01*
X131434729Y-81084215D01*
X131370646Y-81037657D01*
X131174062Y-80937492D01*
X130964234Y-80869315D01*
X130746314Y-80834800D01*
X130525684Y-80834800D01*
X130307765Y-80869315D01*
X130307762Y-80869315D01*
X130097935Y-80937492D01*
X129901341Y-81037662D01*
X129837267Y-81084214D01*
X129837267Y-81084215D01*
X130390270Y-81637218D01*
X130329198Y-81662516D01*
X130223114Y-81733399D01*
X130132898Y-81823615D01*
X130062015Y-81929699D01*
X130036717Y-81990771D01*
X129483714Y-81437768D01*
X129483713Y-81437768D01*
X129437161Y-81501842D01*
X129336991Y-81698436D01*
X129268814Y-81908263D01*
X129268814Y-81908266D01*
X129234299Y-82126184D01*
X123565300Y-82126184D01*
X123565300Y-82126144D01*
X123530773Y-81908151D01*
X123462570Y-81698242D01*
X123462570Y-81698241D01*
X123406806Y-81588800D01*
X123362369Y-81501587D01*
X123232638Y-81323028D01*
X123076572Y-81166962D01*
X122898013Y-81037231D01*
X122827854Y-81001483D01*
X122701358Y-80937029D01*
X122701355Y-80937028D01*
X122491450Y-80868827D01*
X122382452Y-80851563D01*
X122273456Y-80834300D01*
X122052744Y-80834300D01*
X121980079Y-80845809D01*
X121834749Y-80868827D01*
X121624844Y-80937028D01*
X121624841Y-80937029D01*
X121428186Y-81037231D01*
X121358447Y-81087900D01*
X121249628Y-81166962D01*
X121249626Y-81166964D01*
X121249625Y-81166964D01*
X121093564Y-81323025D01*
X121093564Y-81323026D01*
X121093562Y-81323028D01*
X121037847Y-81399712D01*
X120963831Y-81501586D01*
X120863629Y-81698241D01*
X120863628Y-81698244D01*
X120795427Y-81908149D01*
X120760900Y-82126144D01*
X118565300Y-82126144D01*
X118530773Y-81908151D01*
X118462570Y-81698242D01*
X118462570Y-81698241D01*
X118406806Y-81588800D01*
X118362369Y-81501587D01*
X118232638Y-81323028D01*
X118076572Y-81166962D01*
X117898013Y-81037231D01*
X117827854Y-81001483D01*
X117701358Y-80937029D01*
X117701355Y-80937028D01*
X117491450Y-80868827D01*
X117382452Y-80851563D01*
X117273456Y-80834300D01*
X117052744Y-80834300D01*
X116980079Y-80845809D01*
X116834749Y-80868827D01*
X116624844Y-80937028D01*
X116624841Y-80937029D01*
X116428186Y-81037231D01*
X116358447Y-81087900D01*
X116249628Y-81166962D01*
X116249626Y-81166964D01*
X116249625Y-81166964D01*
X116093564Y-81323025D01*
X116093564Y-81323026D01*
X116093562Y-81323028D01*
X116037847Y-81399712D01*
X115963831Y-81501586D01*
X115863629Y-81698241D01*
X115863628Y-81698244D01*
X115795427Y-81908149D01*
X115760900Y-82126144D01*
X113565300Y-82126144D01*
X113530773Y-81908151D01*
X113462570Y-81698242D01*
X113462570Y-81698241D01*
X113406806Y-81588800D01*
X113362369Y-81501587D01*
X113232638Y-81323028D01*
X113076572Y-81166962D01*
X112898013Y-81037231D01*
X112827854Y-81001483D01*
X112701358Y-80937029D01*
X112701355Y-80937028D01*
X112491450Y-80868827D01*
X112382452Y-80851563D01*
X112273456Y-80834300D01*
X112052744Y-80834300D01*
X111980079Y-80845809D01*
X111834749Y-80868827D01*
X111624844Y-80937028D01*
X111624841Y-80937029D01*
X111428186Y-81037231D01*
X111358447Y-81087900D01*
X111249628Y-81166962D01*
X111249626Y-81166964D01*
X111249625Y-81166964D01*
X111093564Y-81323025D01*
X111093564Y-81323026D01*
X111093562Y-81323028D01*
X111037847Y-81399712D01*
X110963831Y-81501586D01*
X110863629Y-81698241D01*
X110863628Y-81698244D01*
X110795427Y-81908149D01*
X110760900Y-82126144D01*
X108565299Y-82126144D01*
X108530772Y-81908151D01*
X108462569Y-81698242D01*
X108462569Y-81698241D01*
X108406805Y-81588800D01*
X108362368Y-81501587D01*
X108232637Y-81323028D01*
X108076571Y-81166962D01*
X107898012Y-81037231D01*
X107827853Y-81001483D01*
X107701357Y-80937029D01*
X107701354Y-80937028D01*
X107491449Y-80868827D01*
X107382451Y-80851563D01*
X107273455Y-80834300D01*
X107052743Y-80834300D01*
X106980078Y-80845809D01*
X106834748Y-80868827D01*
X106624843Y-80937028D01*
X106624840Y-80937029D01*
X106428185Y-81037231D01*
X106358446Y-81087900D01*
X106249627Y-81166962D01*
X106249625Y-81166964D01*
X106249624Y-81166964D01*
X106093563Y-81323025D01*
X106093563Y-81323026D01*
X106093561Y-81323028D01*
X106037846Y-81399712D01*
X105963830Y-81501586D01*
X105863628Y-81698241D01*
X105863627Y-81698244D01*
X105795426Y-81908149D01*
X105760899Y-82126144D01*
X101878207Y-82126144D01*
X101832054Y-81953900D01*
X101739224Y-81729788D01*
X101617936Y-81519711D01*
X101470265Y-81327262D01*
X101470260Y-81327256D01*
X101298743Y-81155739D01*
X101298736Y-81155733D01*
X101106293Y-81008067D01*
X101106292Y-81008066D01*
X101106289Y-81008064D01*
X100896212Y-80886776D01*
X100871599Y-80876581D01*
X100672104Y-80793947D01*
X100437785Y-80731161D01*
X100197289Y-80699500D01*
X100197288Y-80699500D01*
X99954712Y-80699500D01*
X99954711Y-80699500D01*
X99714214Y-80731161D01*
X99479895Y-80793947D01*
X99255794Y-80886773D01*
X99255785Y-80886777D01*
X99045706Y-81008067D01*
X98853263Y-81155733D01*
X98853256Y-81155739D01*
X98681739Y-81327256D01*
X98681733Y-81327263D01*
X98534067Y-81519706D01*
X98412777Y-81729785D01*
X98412773Y-81729794D01*
X98319947Y-81953895D01*
X98257161Y-82188214D01*
X98225500Y-82428711D01*
X96207850Y-82428711D01*
X96207850Y-79815565D01*
X179719300Y-79815565D01*
X179719300Y-80001234D01*
X179748342Y-80184596D01*
X179748343Y-80184600D01*
X179805715Y-80361171D01*
X179890001Y-80526593D01*
X179999128Y-80676793D01*
X180130407Y-80808072D01*
X180280607Y-80917199D01*
X180446029Y-81001485D01*
X180622600Y-81058857D01*
X180691364Y-81069748D01*
X180805966Y-81087900D01*
X180805971Y-81087900D01*
X180991634Y-81087900D01*
X181093501Y-81071765D01*
X181175000Y-81058857D01*
X181351571Y-81001485D01*
X181516993Y-80917199D01*
X181667193Y-80808072D01*
X181798472Y-80676793D01*
X181907599Y-80526593D01*
X181991885Y-80361171D01*
X182049257Y-80184600D01*
X182049258Y-80184596D01*
X182050762Y-80179967D01*
X182052947Y-80180677D01*
X182083003Y-80128314D01*
X182145024Y-80096140D01*
X182214594Y-80102605D01*
X182269624Y-80145656D01*
X182285492Y-80180404D01*
X182286838Y-80179967D01*
X182288342Y-80184596D01*
X182288343Y-80184600D01*
X182345715Y-80361171D01*
X182430001Y-80526593D01*
X182539128Y-80676793D01*
X182670407Y-80808072D01*
X182820607Y-80917199D01*
X182986029Y-81001485D01*
X183162600Y-81058857D01*
X183231364Y-81069748D01*
X183345966Y-81087900D01*
X183345971Y-81087900D01*
X183531634Y-81087900D01*
X183633501Y-81071765D01*
X183715000Y-81058857D01*
X183891571Y-81001485D01*
X184056993Y-80917199D01*
X184207193Y-80808072D01*
X184338472Y-80676793D01*
X184447599Y-80526593D01*
X184531885Y-80361171D01*
X184589257Y-80184600D01*
X184589258Y-80184596D01*
X184590762Y-80179967D01*
X184592947Y-80180677D01*
X184623003Y-80128314D01*
X184685024Y-80096140D01*
X184754594Y-80102605D01*
X184809624Y-80145656D01*
X184825492Y-80180404D01*
X184826838Y-80179967D01*
X184828342Y-80184596D01*
X184828343Y-80184600D01*
X184885715Y-80361171D01*
X184970001Y-80526593D01*
X185079128Y-80676793D01*
X185210407Y-80808072D01*
X185360607Y-80917199D01*
X185526029Y-81001485D01*
X185702600Y-81058857D01*
X185771364Y-81069748D01*
X185885966Y-81087900D01*
X185885971Y-81087900D01*
X186071634Y-81087900D01*
X186173501Y-81071765D01*
X186255000Y-81058857D01*
X186431571Y-81001485D01*
X186596993Y-80917199D01*
X186747193Y-80808072D01*
X186878472Y-80676793D01*
X186987599Y-80526593D01*
X187071885Y-80361171D01*
X187129257Y-80184600D01*
X187129258Y-80184596D01*
X187130762Y-80179967D01*
X187132947Y-80180677D01*
X187163003Y-80128314D01*
X187225024Y-80096140D01*
X187294594Y-80102605D01*
X187349624Y-80145656D01*
X187365492Y-80180404D01*
X187366838Y-80179967D01*
X187368342Y-80184596D01*
X187368343Y-80184600D01*
X187425715Y-80361171D01*
X187510001Y-80526593D01*
X187619128Y-80676793D01*
X187750407Y-80808072D01*
X187900607Y-80917199D01*
X188066029Y-81001485D01*
X188242600Y-81058857D01*
X188311364Y-81069748D01*
X188425966Y-81087900D01*
X188425971Y-81087900D01*
X188611634Y-81087900D01*
X188713501Y-81071765D01*
X188795000Y-81058857D01*
X188971571Y-81001485D01*
X189136993Y-80917199D01*
X189287193Y-80808072D01*
X189418472Y-80676793D01*
X189527599Y-80526593D01*
X189611885Y-80361171D01*
X189669257Y-80184600D01*
X189669258Y-80184596D01*
X189670762Y-80179967D01*
X189672947Y-80180677D01*
X189703003Y-80128314D01*
X189765024Y-80096140D01*
X189834594Y-80102605D01*
X189889624Y-80145656D01*
X189905492Y-80180404D01*
X189906838Y-80179967D01*
X189908342Y-80184596D01*
X189908343Y-80184600D01*
X189965715Y-80361171D01*
X190050001Y-80526593D01*
X190159128Y-80676793D01*
X190159130Y-80676795D01*
X190272727Y-80790392D01*
X190306212Y-80851715D01*
X190309046Y-80878073D01*
X190309046Y-86416123D01*
X190289361Y-86483162D01*
X190272727Y-86503804D01*
X187644703Y-89131827D01*
X187604480Y-89158705D01*
X187580819Y-89168506D01*
X187580818Y-89168507D01*
X187449715Y-89256107D01*
X187449707Y-89256113D01*
X187338213Y-89367607D01*
X187338210Y-89367611D01*
X187250609Y-89498714D01*
X187250602Y-89498727D01*
X187190264Y-89644398D01*
X187190261Y-89644410D01*
X187159500Y-89799053D01*
X187159500Y-89956746D01*
X187190261Y-90111389D01*
X187190264Y-90111401D01*
X187250602Y-90257072D01*
X187250609Y-90257085D01*
X187338210Y-90388188D01*
X187338213Y-90388192D01*
X187449707Y-90499686D01*
X187449711Y-90499689D01*
X187580814Y-90587290D01*
X187580827Y-90587297D01*
X187726498Y-90647635D01*
X187726503Y-90647637D01*
X187870023Y-90676185D01*
X187881153Y-90678399D01*
X187881156Y-90678400D01*
X187881158Y-90678400D01*
X188038844Y-90678400D01*
X188038845Y-90678399D01*
X188193497Y-90647637D01*
X188339179Y-90587294D01*
X188470289Y-90499689D01*
X188581789Y-90388189D01*
X188669394Y-90257079D01*
X188679191Y-90233424D01*
X188706069Y-90193197D01*
X191642498Y-87256770D01*
X191662232Y-87227234D01*
X191721169Y-87139030D01*
X191721170Y-87139028D01*
X191724627Y-87133853D01*
X191724630Y-87133849D01*
X191781204Y-86997267D01*
X191794154Y-86932164D01*
X191810046Y-86852274D01*
X191810046Y-82428711D01*
X202873500Y-82428711D01*
X202873500Y-82671288D01*
X202905161Y-82911785D01*
X202967947Y-83146104D01*
X203034193Y-83306035D01*
X203060776Y-83370212D01*
X203182064Y-83580289D01*
X203182066Y-83580292D01*
X203182067Y-83580293D01*
X203329733Y-83772736D01*
X203329739Y-83772743D01*
X203501256Y-83944260D01*
X203501262Y-83944265D01*
X203693711Y-84091936D01*
X203903788Y-84213224D01*
X204127900Y-84306054D01*
X204362211Y-84368838D01*
X204542586Y-84392584D01*
X204602711Y-84400500D01*
X204602712Y-84400500D01*
X204845289Y-84400500D01*
X204893388Y-84394167D01*
X205085789Y-84368838D01*
X205320100Y-84306054D01*
X205544212Y-84213224D01*
X205754289Y-84091936D01*
X205946738Y-83944265D01*
X206118265Y-83772738D01*
X206265936Y-83580289D01*
X206387224Y-83370212D01*
X206480054Y-83146100D01*
X206542838Y-82911789D01*
X206574500Y-82671288D01*
X206574500Y-82428712D01*
X206542838Y-82188211D01*
X206480054Y-81953900D01*
X206387224Y-81729788D01*
X206265936Y-81519711D01*
X206118265Y-81327262D01*
X206118260Y-81327256D01*
X205946743Y-81155739D01*
X205946736Y-81155733D01*
X205754293Y-81008067D01*
X205754292Y-81008066D01*
X205754289Y-81008064D01*
X205544212Y-80886776D01*
X205519599Y-80876581D01*
X205320104Y-80793947D01*
X205085785Y-80731161D01*
X204845289Y-80699500D01*
X204845288Y-80699500D01*
X204602712Y-80699500D01*
X204602711Y-80699500D01*
X204362214Y-80731161D01*
X204127895Y-80793947D01*
X203903794Y-80886773D01*
X203903785Y-80886777D01*
X203693706Y-81008067D01*
X203501263Y-81155733D01*
X203501256Y-81155739D01*
X203329739Y-81327256D01*
X203329733Y-81327263D01*
X203182067Y-81519706D01*
X203060777Y-81729785D01*
X203060773Y-81729794D01*
X202967947Y-81953895D01*
X202905161Y-82188214D01*
X202873500Y-82428711D01*
X191810046Y-82428711D01*
X191810046Y-80876581D01*
X191829731Y-80809542D01*
X191846365Y-80788900D01*
X191958472Y-80676793D01*
X192067599Y-80526593D01*
X192151885Y-80361171D01*
X192209257Y-80184600D01*
X192209258Y-80184596D01*
X192210762Y-80179967D01*
X192212947Y-80180677D01*
X192243003Y-80128314D01*
X192305024Y-80096140D01*
X192374594Y-80102605D01*
X192429624Y-80145656D01*
X192445492Y-80180404D01*
X192446838Y-80179967D01*
X192448342Y-80184596D01*
X192448343Y-80184600D01*
X192505715Y-80361171D01*
X192590001Y-80526593D01*
X192699128Y-80676793D01*
X192830407Y-80808072D01*
X192980607Y-80917199D01*
X193146029Y-81001485D01*
X193322600Y-81058857D01*
X193391364Y-81069748D01*
X193505966Y-81087900D01*
X193505971Y-81087900D01*
X193691634Y-81087900D01*
X193793501Y-81071765D01*
X193875000Y-81058857D01*
X194051571Y-81001485D01*
X194216993Y-80917199D01*
X194367193Y-80808072D01*
X194498472Y-80676793D01*
X194607599Y-80526593D01*
X194691885Y-80361171D01*
X194717370Y-80282734D01*
X194756806Y-80225061D01*
X194821164Y-80197862D01*
X194890011Y-80209776D01*
X194941487Y-80257020D01*
X194959300Y-80321054D01*
X194959300Y-80635269D01*
X194959301Y-80635276D01*
X194965708Y-80694883D01*
X195016002Y-80829728D01*
X195016006Y-80829735D01*
X195102252Y-80944944D01*
X195102255Y-80944947D01*
X195217464Y-81031193D01*
X195217471Y-81031197D01*
X195352317Y-81081491D01*
X195352316Y-81081491D01*
X195359244Y-81082235D01*
X195411927Y-81087900D01*
X196865672Y-81087899D01*
X196925283Y-81081491D01*
X197060131Y-81031196D01*
X197175346Y-80944946D01*
X197261596Y-80829731D01*
X197311891Y-80694883D01*
X197318300Y-80635273D01*
X197318299Y-79181528D01*
X197311891Y-79121917D01*
X197269674Y-79008728D01*
X197261597Y-78987071D01*
X197261593Y-78987064D01*
X197175347Y-78871855D01*
X197175344Y-78871852D01*
X197060135Y-78785606D01*
X197060128Y-78785602D01*
X196925282Y-78735308D01*
X196925283Y-78735308D01*
X196865683Y-78728901D01*
X196865681Y-78728900D01*
X196865673Y-78728900D01*
X196865664Y-78728900D01*
X195411929Y-78728900D01*
X195411923Y-78728901D01*
X195352316Y-78735308D01*
X195217471Y-78785602D01*
X195217464Y-78785606D01*
X195102255Y-78871852D01*
X195102252Y-78871855D01*
X195016006Y-78987064D01*
X195016002Y-78987071D01*
X194965708Y-79121917D01*
X194959301Y-79181516D01*
X194959301Y-79181523D01*
X194959300Y-79181535D01*
X194959300Y-79495743D01*
X194939615Y-79562782D01*
X194886811Y-79608537D01*
X194817653Y-79618481D01*
X194754097Y-79589456D01*
X194717369Y-79534061D01*
X194691885Y-79455629D01*
X194607599Y-79290207D01*
X194498472Y-79140007D01*
X194367193Y-79008728D01*
X194216993Y-78899601D01*
X194051571Y-78815315D01*
X193875000Y-78757943D01*
X193874998Y-78757942D01*
X193874996Y-78757942D01*
X193691634Y-78728900D01*
X193691629Y-78728900D01*
X193505971Y-78728900D01*
X193505966Y-78728900D01*
X193322603Y-78757942D01*
X193146026Y-78815316D01*
X192980606Y-78899601D01*
X192894911Y-78961862D01*
X192830407Y-79008728D01*
X192830405Y-79008730D01*
X192830404Y-79008730D01*
X192699130Y-79140004D01*
X192699130Y-79140005D01*
X192699128Y-79140007D01*
X192668956Y-79181535D01*
X192590001Y-79290206D01*
X192505716Y-79455626D01*
X192446838Y-79636833D01*
X192444664Y-79636126D01*
X192414552Y-79688529D01*
X192352514Y-79720671D01*
X192282948Y-79714171D01*
X192227939Y-79671092D01*
X192212095Y-79636399D01*
X192210762Y-79636833D01*
X192177369Y-79534061D01*
X192151885Y-79455629D01*
X192067599Y-79290207D01*
X191958472Y-79140007D01*
X191827193Y-79008728D01*
X191676993Y-78899601D01*
X191511571Y-78815315D01*
X191335000Y-78757943D01*
X191334998Y-78757942D01*
X191334996Y-78757942D01*
X191151634Y-78728900D01*
X191151629Y-78728900D01*
X190965971Y-78728900D01*
X190965966Y-78728900D01*
X190782603Y-78757942D01*
X190606026Y-78815316D01*
X190440606Y-78899601D01*
X190354911Y-78961862D01*
X190290407Y-79008728D01*
X190290405Y-79008730D01*
X190290404Y-79008730D01*
X190159130Y-79140004D01*
X190159130Y-79140005D01*
X190159128Y-79140007D01*
X190128956Y-79181535D01*
X190050001Y-79290206D01*
X189965716Y-79455626D01*
X189906838Y-79636833D01*
X189904664Y-79636126D01*
X189874552Y-79688529D01*
X189812514Y-79720671D01*
X189742948Y-79714171D01*
X189687939Y-79671092D01*
X189672095Y-79636399D01*
X189670762Y-79636833D01*
X189637369Y-79534061D01*
X189611885Y-79455629D01*
X189527599Y-79290207D01*
X189418472Y-79140007D01*
X189287193Y-79008728D01*
X189136993Y-78899601D01*
X188971571Y-78815315D01*
X188795000Y-78757943D01*
X188794998Y-78757942D01*
X188794996Y-78757942D01*
X188611634Y-78728900D01*
X188611629Y-78728900D01*
X188425971Y-78728900D01*
X188425966Y-78728900D01*
X188242603Y-78757942D01*
X188066026Y-78815316D01*
X187900606Y-78899601D01*
X187814911Y-78961862D01*
X187750407Y-79008728D01*
X187750405Y-79008730D01*
X187750404Y-79008730D01*
X187619130Y-79140004D01*
X187619130Y-79140005D01*
X187619128Y-79140007D01*
X187588956Y-79181535D01*
X187510001Y-79290206D01*
X187425716Y-79455626D01*
X187366838Y-79636833D01*
X187364664Y-79636126D01*
X187334552Y-79688529D01*
X187272514Y-79720671D01*
X187202948Y-79714171D01*
X187147939Y-79671092D01*
X187132095Y-79636399D01*
X187130762Y-79636833D01*
X187097369Y-79534061D01*
X187071885Y-79455629D01*
X186987599Y-79290207D01*
X186878472Y-79140007D01*
X186747193Y-79008728D01*
X186596993Y-78899601D01*
X186431571Y-78815315D01*
X186255000Y-78757943D01*
X186254998Y-78757942D01*
X186254996Y-78757942D01*
X186071634Y-78728900D01*
X186071629Y-78728900D01*
X185885971Y-78728900D01*
X185885966Y-78728900D01*
X185702603Y-78757942D01*
X185526026Y-78815316D01*
X185360606Y-78899601D01*
X185274911Y-78961862D01*
X185210407Y-79008728D01*
X185210405Y-79008730D01*
X185210404Y-79008730D01*
X185079130Y-79140004D01*
X185079130Y-79140005D01*
X185079128Y-79140007D01*
X185048956Y-79181535D01*
X184970001Y-79290206D01*
X184885716Y-79455626D01*
X184826838Y-79636833D01*
X184824664Y-79636126D01*
X184794552Y-79688529D01*
X184732514Y-79720671D01*
X184662948Y-79714171D01*
X184607939Y-79671092D01*
X184592095Y-79636399D01*
X184590762Y-79636833D01*
X184557369Y-79534061D01*
X184531885Y-79455629D01*
X184447599Y-79290207D01*
X184338472Y-79140007D01*
X184207193Y-79008728D01*
X184056993Y-78899601D01*
X183891571Y-78815315D01*
X183715000Y-78757943D01*
X183714998Y-78757942D01*
X183714996Y-78757942D01*
X183531634Y-78728900D01*
X183531629Y-78728900D01*
X183345971Y-78728900D01*
X183345966Y-78728900D01*
X183162603Y-78757942D01*
X182986026Y-78815316D01*
X182820606Y-78899601D01*
X182734911Y-78961862D01*
X182670407Y-79008728D01*
X182670405Y-79008730D01*
X182670404Y-79008730D01*
X182539130Y-79140004D01*
X182539130Y-79140005D01*
X182539128Y-79140007D01*
X182508956Y-79181535D01*
X182430001Y-79290206D01*
X182345716Y-79455626D01*
X182286838Y-79636833D01*
X182284664Y-79636126D01*
X182254552Y-79688529D01*
X182192514Y-79720671D01*
X182122948Y-79714171D01*
X182067939Y-79671092D01*
X182052095Y-79636399D01*
X182050762Y-79636833D01*
X182017369Y-79534061D01*
X181991885Y-79455629D01*
X181907599Y-79290207D01*
X181798472Y-79140007D01*
X181667193Y-79008728D01*
X181516993Y-78899601D01*
X181351571Y-78815315D01*
X181175000Y-78757943D01*
X181174998Y-78757942D01*
X181174996Y-78757942D01*
X180991634Y-78728900D01*
X180991629Y-78728900D01*
X180805971Y-78728900D01*
X180805966Y-78728900D01*
X180622603Y-78757942D01*
X180446026Y-78815316D01*
X180280606Y-78899601D01*
X180194911Y-78961862D01*
X180130407Y-79008728D01*
X180130405Y-79008730D01*
X180130404Y-79008730D01*
X179999130Y-79140004D01*
X179999130Y-79140005D01*
X179999128Y-79140007D01*
X179968956Y-79181535D01*
X179890001Y-79290206D01*
X179805716Y-79455626D01*
X179748342Y-79632203D01*
X179719300Y-79815565D01*
X96207850Y-79815565D01*
X96207850Y-77952742D01*
X96227535Y-77885703D01*
X96280339Y-77839948D01*
X96331850Y-77828742D01*
X208536500Y-77828742D01*
X208603539Y-77848427D01*
G37*
%TD.AperFunction*%
%TD*%
M02*
