%TF.GenerationSoftware,KiCad,Pcbnew,9.0.1*%
%TF.CreationDate,2025-04-18T12:39:12-07:00*%
%TF.ProjectId,Greenhouse Board,47726565-6e68-46f7-9573-6520426f6172,rev?*%
%TF.SameCoordinates,Original*%
%TF.FileFunction,Legend,Top*%
%TF.FilePolarity,Positive*%
%FSLAX46Y46*%
G04 Gerber Fmt 4.6, Leading zero omitted, Abs format (unit mm)*
G04 Created by KiCad (PCBNEW 9.0.1) date 2025-04-18 12:39:12*
%MOMM*%
%LPD*%
G01*
G04 APERTURE LIST*
%ADD10C,0.100000*%
%ADD11C,0.150000*%
%ADD12C,0.127000*%
%ADD13C,0.200000*%
%ADD14C,0.120000*%
%ADD15C,0.152400*%
%ADD16C,0.508000*%
G04 APERTURE END LIST*
D10*
X149085593Y-84788738D02*
X148990355Y-84741119D01*
X148990355Y-84741119D02*
X148847498Y-84741119D01*
X148847498Y-84741119D02*
X148704641Y-84788738D01*
X148704641Y-84788738D02*
X148609403Y-84883976D01*
X148609403Y-84883976D02*
X148561784Y-84979214D01*
X148561784Y-84979214D02*
X148514165Y-85169690D01*
X148514165Y-85169690D02*
X148514165Y-85312547D01*
X148514165Y-85312547D02*
X148561784Y-85503023D01*
X148561784Y-85503023D02*
X148609403Y-85598261D01*
X148609403Y-85598261D02*
X148704641Y-85693500D01*
X148704641Y-85693500D02*
X148847498Y-85741119D01*
X148847498Y-85741119D02*
X148942736Y-85741119D01*
X148942736Y-85741119D02*
X149085593Y-85693500D01*
X149085593Y-85693500D02*
X149133212Y-85645880D01*
X149133212Y-85645880D02*
X149133212Y-85312547D01*
X149133212Y-85312547D02*
X148942736Y-85312547D01*
X149561784Y-85741119D02*
X149561784Y-84741119D01*
X149561784Y-84741119D02*
X150133212Y-85741119D01*
X150133212Y-85741119D02*
X150133212Y-84741119D01*
X150609403Y-85741119D02*
X150609403Y-84741119D01*
X150609403Y-84741119D02*
X150847498Y-84741119D01*
X150847498Y-84741119D02*
X150990355Y-84788738D01*
X150990355Y-84788738D02*
X151085593Y-84883976D01*
X151085593Y-84883976D02*
X151133212Y-84979214D01*
X151133212Y-84979214D02*
X151180831Y-85169690D01*
X151180831Y-85169690D02*
X151180831Y-85312547D01*
X151180831Y-85312547D02*
X151133212Y-85503023D01*
X151133212Y-85503023D02*
X151085593Y-85598261D01*
X151085593Y-85598261D02*
X150990355Y-85693500D01*
X150990355Y-85693500D02*
X150847498Y-85741119D01*
X150847498Y-85741119D02*
X150609403Y-85741119D01*
X125612693Y-85741119D02*
X125041265Y-85741119D01*
X125326979Y-85741119D02*
X125326979Y-84741119D01*
X125326979Y-84741119D02*
X125231741Y-84883976D01*
X125231741Y-84883976D02*
X125136503Y-84979214D01*
X125136503Y-84979214D02*
X125041265Y-85026833D01*
X125993646Y-84836357D02*
X126041265Y-84788738D01*
X126041265Y-84788738D02*
X126136503Y-84741119D01*
X126136503Y-84741119D02*
X126374598Y-84741119D01*
X126374598Y-84741119D02*
X126469836Y-84788738D01*
X126469836Y-84788738D02*
X126517455Y-84836357D01*
X126517455Y-84836357D02*
X126565074Y-84931595D01*
X126565074Y-84931595D02*
X126565074Y-85026833D01*
X126565074Y-85026833D02*
X126517455Y-85169690D01*
X126517455Y-85169690D02*
X125946027Y-85741119D01*
X125946027Y-85741119D02*
X126565074Y-85741119D01*
X126850789Y-84741119D02*
X127184122Y-85741119D01*
X127184122Y-85741119D02*
X127517455Y-84741119D01*
D11*
X201172119Y-82575304D02*
X201981642Y-82575304D01*
X201981642Y-82575304D02*
X202076880Y-82527685D01*
X202076880Y-82527685D02*
X202124500Y-82480066D01*
X202124500Y-82480066D02*
X202172119Y-82384828D01*
X202172119Y-82384828D02*
X202172119Y-82194352D01*
X202172119Y-82194352D02*
X202124500Y-82099114D01*
X202124500Y-82099114D02*
X202076880Y-82051495D01*
X202076880Y-82051495D02*
X201981642Y-82003876D01*
X201981642Y-82003876D02*
X201172119Y-82003876D01*
X202172119Y-81003876D02*
X202172119Y-81575304D01*
X202172119Y-81289590D02*
X201172119Y-81289590D01*
X201172119Y-81289590D02*
X201314976Y-81384828D01*
X201314976Y-81384828D02*
X201410214Y-81480066D01*
X201410214Y-81480066D02*
X201457833Y-81575304D01*
X99314095Y-105220819D02*
X99314095Y-104220819D01*
X99314095Y-104697009D02*
X99885523Y-104697009D01*
X99885523Y-105220819D02*
X99885523Y-104220819D01*
X100790285Y-104554152D02*
X100790285Y-105220819D01*
X100552190Y-104173200D02*
X100314095Y-104887485D01*
X100314095Y-104887485D02*
X100933142Y-104887485D01*
X99314095Y-78804819D02*
X99314095Y-77804819D01*
X99314095Y-78281009D02*
X99885523Y-78281009D01*
X99885523Y-78804819D02*
X99885523Y-77804819D01*
X100266476Y-77804819D02*
X100885523Y-77804819D01*
X100885523Y-77804819D02*
X100552190Y-78185771D01*
X100552190Y-78185771D02*
X100695047Y-78185771D01*
X100695047Y-78185771D02*
X100790285Y-78233390D01*
X100790285Y-78233390D02*
X100837904Y-78281009D01*
X100837904Y-78281009D02*
X100885523Y-78376247D01*
X100885523Y-78376247D02*
X100885523Y-78614342D01*
X100885523Y-78614342D02*
X100837904Y-78709580D01*
X100837904Y-78709580D02*
X100790285Y-78757200D01*
X100790285Y-78757200D02*
X100695047Y-78804819D01*
X100695047Y-78804819D02*
X100409333Y-78804819D01*
X100409333Y-78804819D02*
X100314095Y-78757200D01*
X100314095Y-78757200D02*
X100266476Y-78709580D01*
X203962095Y-105220819D02*
X203962095Y-104220819D01*
X203962095Y-104697009D02*
X204533523Y-104697009D01*
X204533523Y-105220819D02*
X204533523Y-104220819D01*
X204962095Y-104316057D02*
X205009714Y-104268438D01*
X205009714Y-104268438D02*
X205104952Y-104220819D01*
X205104952Y-104220819D02*
X205343047Y-104220819D01*
X205343047Y-104220819D02*
X205438285Y-104268438D01*
X205438285Y-104268438D02*
X205485904Y-104316057D01*
X205485904Y-104316057D02*
X205533523Y-104411295D01*
X205533523Y-104411295D02*
X205533523Y-104506533D01*
X205533523Y-104506533D02*
X205485904Y-104649390D01*
X205485904Y-104649390D02*
X204914476Y-105220819D01*
X204914476Y-105220819D02*
X205533523Y-105220819D01*
X203962095Y-78804819D02*
X203962095Y-77804819D01*
X203962095Y-78281009D02*
X204533523Y-78281009D01*
X204533523Y-78804819D02*
X204533523Y-77804819D01*
X205533523Y-78804819D02*
X204962095Y-78804819D01*
X205247809Y-78804819D02*
X205247809Y-77804819D01*
X205247809Y-77804819D02*
X205152571Y-77947676D01*
X205152571Y-77947676D02*
X205057333Y-78042914D01*
X205057333Y-78042914D02*
X204962095Y-78090533D01*
D10*
X159686666Y-109489069D02*
X159686666Y-110203354D01*
X159686666Y-110203354D02*
X159639047Y-110346211D01*
X159639047Y-110346211D02*
X159543809Y-110441450D01*
X159543809Y-110441450D02*
X159400952Y-110489069D01*
X159400952Y-110489069D02*
X159305714Y-110489069D01*
X160639047Y-109489069D02*
X160162857Y-109489069D01*
X160162857Y-109489069D02*
X160115238Y-109965259D01*
X160115238Y-109965259D02*
X160162857Y-109917640D01*
X160162857Y-109917640D02*
X160258095Y-109870021D01*
X160258095Y-109870021D02*
X160496190Y-109870021D01*
X160496190Y-109870021D02*
X160591428Y-109917640D01*
X160591428Y-109917640D02*
X160639047Y-109965259D01*
X160639047Y-109965259D02*
X160686666Y-110060497D01*
X160686666Y-110060497D02*
X160686666Y-110298592D01*
X160686666Y-110298592D02*
X160639047Y-110393830D01*
X160639047Y-110393830D02*
X160591428Y-110441450D01*
X160591428Y-110441450D02*
X160496190Y-110489069D01*
X160496190Y-110489069D02*
X160258095Y-110489069D01*
X160258095Y-110489069D02*
X160162857Y-110441450D01*
X160162857Y-110441450D02*
X160115238Y-110393830D01*
D11*
X104657167Y-87861554D02*
X104323834Y-87385363D01*
X104085739Y-87861554D02*
X104085739Y-86861554D01*
X104085739Y-86861554D02*
X104466691Y-86861554D01*
X104466691Y-86861554D02*
X104561929Y-86909173D01*
X104561929Y-86909173D02*
X104609548Y-86956792D01*
X104609548Y-86956792D02*
X104657167Y-87052030D01*
X104657167Y-87052030D02*
X104657167Y-87194887D01*
X104657167Y-87194887D02*
X104609548Y-87290125D01*
X104609548Y-87290125D02*
X104561929Y-87337744D01*
X104561929Y-87337744D02*
X104466691Y-87385363D01*
X104466691Y-87385363D02*
X104085739Y-87385363D01*
X105609548Y-87861554D02*
X105038120Y-87861554D01*
X105323834Y-87861554D02*
X105323834Y-86861554D01*
X105323834Y-86861554D02*
X105228596Y-87004411D01*
X105228596Y-87004411D02*
X105133358Y-87099649D01*
X105133358Y-87099649D02*
X105038120Y-87147268D01*
X113834057Y-90735138D02*
X113786438Y-90830376D01*
X113786438Y-90830376D02*
X113691200Y-90925614D01*
X113691200Y-90925614D02*
X113548342Y-91068471D01*
X113548342Y-91068471D02*
X113500723Y-91163709D01*
X113500723Y-91163709D02*
X113500723Y-91258947D01*
X113738819Y-91211328D02*
X113691200Y-91306566D01*
X113691200Y-91306566D02*
X113595961Y-91401804D01*
X113595961Y-91401804D02*
X113405485Y-91449423D01*
X113405485Y-91449423D02*
X113072152Y-91449423D01*
X113072152Y-91449423D02*
X112881676Y-91401804D01*
X112881676Y-91401804D02*
X112786438Y-91306566D01*
X112786438Y-91306566D02*
X112738819Y-91211328D01*
X112738819Y-91211328D02*
X112738819Y-91020852D01*
X112738819Y-91020852D02*
X112786438Y-90925614D01*
X112786438Y-90925614D02*
X112881676Y-90830376D01*
X112881676Y-90830376D02*
X113072152Y-90782757D01*
X113072152Y-90782757D02*
X113405485Y-90782757D01*
X113405485Y-90782757D02*
X113595961Y-90830376D01*
X113595961Y-90830376D02*
X113691200Y-90925614D01*
X113691200Y-90925614D02*
X113738819Y-91020852D01*
X113738819Y-91020852D02*
X113738819Y-91211328D01*
X112834057Y-90401804D02*
X112786438Y-90354185D01*
X112786438Y-90354185D02*
X112738819Y-90258947D01*
X112738819Y-90258947D02*
X112738819Y-90020852D01*
X112738819Y-90020852D02*
X112786438Y-89925614D01*
X112786438Y-89925614D02*
X112834057Y-89877995D01*
X112834057Y-89877995D02*
X112929295Y-89830376D01*
X112929295Y-89830376D02*
X113024533Y-89830376D01*
X113024533Y-89830376D02*
X113167390Y-89877995D01*
X113167390Y-89877995D02*
X113738819Y-90449423D01*
X113738819Y-90449423D02*
X113738819Y-89830376D01*
X195013982Y-100280874D02*
X194966363Y-100328494D01*
X194966363Y-100328494D02*
X194823506Y-100376113D01*
X194823506Y-100376113D02*
X194728268Y-100376113D01*
X194728268Y-100376113D02*
X194585411Y-100328494D01*
X194585411Y-100328494D02*
X194490173Y-100233255D01*
X194490173Y-100233255D02*
X194442554Y-100138017D01*
X194442554Y-100138017D02*
X194394935Y-99947541D01*
X194394935Y-99947541D02*
X194394935Y-99804684D01*
X194394935Y-99804684D02*
X194442554Y-99614208D01*
X194442554Y-99614208D02*
X194490173Y-99518970D01*
X194490173Y-99518970D02*
X194585411Y-99423732D01*
X194585411Y-99423732D02*
X194728268Y-99376113D01*
X194728268Y-99376113D02*
X194823506Y-99376113D01*
X194823506Y-99376113D02*
X194966363Y-99423732D01*
X194966363Y-99423732D02*
X195013982Y-99471351D01*
X195347316Y-99376113D02*
X195966363Y-99376113D01*
X195966363Y-99376113D02*
X195633030Y-99757065D01*
X195633030Y-99757065D02*
X195775887Y-99757065D01*
X195775887Y-99757065D02*
X195871125Y-99804684D01*
X195871125Y-99804684D02*
X195918744Y-99852303D01*
X195918744Y-99852303D02*
X195966363Y-99947541D01*
X195966363Y-99947541D02*
X195966363Y-100185636D01*
X195966363Y-100185636D02*
X195918744Y-100280874D01*
X195918744Y-100280874D02*
X195871125Y-100328494D01*
X195871125Y-100328494D02*
X195775887Y-100376113D01*
X195775887Y-100376113D02*
X195490173Y-100376113D01*
X195490173Y-100376113D02*
X195394935Y-100328494D01*
X195394935Y-100328494D02*
X195347316Y-100280874D01*
X135351792Y-91904133D02*
X135351792Y-90904133D01*
X135351792Y-90904133D02*
X135589887Y-90904133D01*
X135589887Y-90904133D02*
X135732744Y-90951752D01*
X135732744Y-90951752D02*
X135827982Y-91046990D01*
X135827982Y-91046990D02*
X135875601Y-91142228D01*
X135875601Y-91142228D02*
X135923220Y-91332704D01*
X135923220Y-91332704D02*
X135923220Y-91475561D01*
X135923220Y-91475561D02*
X135875601Y-91666037D01*
X135875601Y-91666037D02*
X135827982Y-91761275D01*
X135827982Y-91761275D02*
X135732744Y-91856514D01*
X135732744Y-91856514D02*
X135589887Y-91904133D01*
X135589887Y-91904133D02*
X135351792Y-91904133D01*
X136875601Y-91904133D02*
X136304173Y-91904133D01*
X136589887Y-91904133D02*
X136589887Y-90904133D01*
X136589887Y-90904133D02*
X136494649Y-91046990D01*
X136494649Y-91046990D02*
X136399411Y-91142228D01*
X136399411Y-91142228D02*
X136304173Y-91189847D01*
X140747750Y-92355319D02*
X140747750Y-92593414D01*
X140509655Y-92498176D02*
X140747750Y-92593414D01*
X140747750Y-92593414D02*
X140985845Y-92498176D01*
X140604893Y-92783890D02*
X140747750Y-92593414D01*
X140747750Y-92593414D02*
X140890607Y-92783890D01*
X140747749Y-93445680D02*
X140747749Y-93207585D01*
X140985844Y-93302823D02*
X140747749Y-93207585D01*
X140747749Y-93207585D02*
X140509654Y-93302823D01*
X140890606Y-93017109D02*
X140747749Y-93207585D01*
X140747749Y-93207585D02*
X140604892Y-93017109D01*
X158208095Y-80341119D02*
X158208095Y-81150642D01*
X158208095Y-81150642D02*
X158255714Y-81245880D01*
X158255714Y-81245880D02*
X158303333Y-81293500D01*
X158303333Y-81293500D02*
X158398571Y-81341119D01*
X158398571Y-81341119D02*
X158589047Y-81341119D01*
X158589047Y-81341119D02*
X158684285Y-81293500D01*
X158684285Y-81293500D02*
X158731904Y-81245880D01*
X158731904Y-81245880D02*
X158779523Y-81150642D01*
X158779523Y-81150642D02*
X158779523Y-80341119D01*
X159208095Y-80436357D02*
X159255714Y-80388738D01*
X159255714Y-80388738D02*
X159350952Y-80341119D01*
X159350952Y-80341119D02*
X159589047Y-80341119D01*
X159589047Y-80341119D02*
X159684285Y-80388738D01*
X159684285Y-80388738D02*
X159731904Y-80436357D01*
X159731904Y-80436357D02*
X159779523Y-80531595D01*
X159779523Y-80531595D02*
X159779523Y-80626833D01*
X159779523Y-80626833D02*
X159731904Y-80769690D01*
X159731904Y-80769690D02*
X159160476Y-81341119D01*
X159160476Y-81341119D02*
X159779523Y-81341119D01*
X122575718Y-88404102D02*
X122242385Y-87927911D01*
X122004290Y-88404102D02*
X122004290Y-87404102D01*
X122004290Y-87404102D02*
X122385242Y-87404102D01*
X122385242Y-87404102D02*
X122480480Y-87451721D01*
X122480480Y-87451721D02*
X122528099Y-87499340D01*
X122528099Y-87499340D02*
X122575718Y-87594578D01*
X122575718Y-87594578D02*
X122575718Y-87737435D01*
X122575718Y-87737435D02*
X122528099Y-87832673D01*
X122528099Y-87832673D02*
X122480480Y-87880292D01*
X122480480Y-87880292D02*
X122385242Y-87927911D01*
X122385242Y-87927911D02*
X122004290Y-87927911D01*
X123432861Y-87737435D02*
X123432861Y-88404102D01*
X123194766Y-87356483D02*
X122956671Y-88070768D01*
X122956671Y-88070768D02*
X123575718Y-88070768D01*
X114717766Y-84231319D02*
X114717766Y-84945604D01*
X114717766Y-84945604D02*
X114670147Y-85088461D01*
X114670147Y-85088461D02*
X114574909Y-85183700D01*
X114574909Y-85183700D02*
X114432052Y-85231319D01*
X114432052Y-85231319D02*
X114336814Y-85231319D01*
X115717766Y-85231319D02*
X115146338Y-85231319D01*
X115432052Y-85231319D02*
X115432052Y-84231319D01*
X115432052Y-84231319D02*
X115336814Y-84374176D01*
X115336814Y-84374176D02*
X115241576Y-84469414D01*
X115241576Y-84469414D02*
X115146338Y-84517033D01*
X126056819Y-91314566D02*
X125580628Y-91647899D01*
X126056819Y-91885994D02*
X125056819Y-91885994D01*
X125056819Y-91885994D02*
X125056819Y-91505042D01*
X125056819Y-91505042D02*
X125104438Y-91409804D01*
X125104438Y-91409804D02*
X125152057Y-91362185D01*
X125152057Y-91362185D02*
X125247295Y-91314566D01*
X125247295Y-91314566D02*
X125390152Y-91314566D01*
X125390152Y-91314566D02*
X125485390Y-91362185D01*
X125485390Y-91362185D02*
X125533009Y-91409804D01*
X125533009Y-91409804D02*
X125580628Y-91505042D01*
X125580628Y-91505042D02*
X125580628Y-91885994D01*
X125056819Y-90981232D02*
X125056819Y-90362185D01*
X125056819Y-90362185D02*
X125437771Y-90695518D01*
X125437771Y-90695518D02*
X125437771Y-90552661D01*
X125437771Y-90552661D02*
X125485390Y-90457423D01*
X125485390Y-90457423D02*
X125533009Y-90409804D01*
X125533009Y-90409804D02*
X125628247Y-90362185D01*
X125628247Y-90362185D02*
X125866342Y-90362185D01*
X125866342Y-90362185D02*
X125961580Y-90409804D01*
X125961580Y-90409804D02*
X126009200Y-90457423D01*
X126009200Y-90457423D02*
X126056819Y-90552661D01*
X126056819Y-90552661D02*
X126056819Y-90838375D01*
X126056819Y-90838375D02*
X126009200Y-90933613D01*
X126009200Y-90933613D02*
X125961580Y-90981232D01*
X137802666Y-83723319D02*
X137802666Y-84437604D01*
X137802666Y-84437604D02*
X137755047Y-84580461D01*
X137755047Y-84580461D02*
X137659809Y-84675700D01*
X137659809Y-84675700D02*
X137516952Y-84723319D01*
X137516952Y-84723319D02*
X137421714Y-84723319D01*
X138707428Y-83723319D02*
X138516952Y-83723319D01*
X138516952Y-83723319D02*
X138421714Y-83770938D01*
X138421714Y-83770938D02*
X138374095Y-83818557D01*
X138374095Y-83818557D02*
X138278857Y-83961414D01*
X138278857Y-83961414D02*
X138231238Y-84151890D01*
X138231238Y-84151890D02*
X138231238Y-84532842D01*
X138231238Y-84532842D02*
X138278857Y-84628080D01*
X138278857Y-84628080D02*
X138326476Y-84675700D01*
X138326476Y-84675700D02*
X138421714Y-84723319D01*
X138421714Y-84723319D02*
X138612190Y-84723319D01*
X138612190Y-84723319D02*
X138707428Y-84675700D01*
X138707428Y-84675700D02*
X138755047Y-84628080D01*
X138755047Y-84628080D02*
X138802666Y-84532842D01*
X138802666Y-84532842D02*
X138802666Y-84294747D01*
X138802666Y-84294747D02*
X138755047Y-84199509D01*
X138755047Y-84199509D02*
X138707428Y-84151890D01*
X138707428Y-84151890D02*
X138612190Y-84104271D01*
X138612190Y-84104271D02*
X138421714Y-84104271D01*
X138421714Y-84104271D02*
X138326476Y-84151890D01*
X138326476Y-84151890D02*
X138278857Y-84199509D01*
X138278857Y-84199509D02*
X138231238Y-84294747D01*
X184366819Y-107229233D02*
X185081104Y-107229233D01*
X185081104Y-107229233D02*
X185223961Y-107276852D01*
X185223961Y-107276852D02*
X185319200Y-107372090D01*
X185319200Y-107372090D02*
X185366819Y-107514947D01*
X185366819Y-107514947D02*
X185366819Y-107610185D01*
X185366819Y-106705423D02*
X185366819Y-106514947D01*
X185366819Y-106514947D02*
X185319200Y-106419709D01*
X185319200Y-106419709D02*
X185271580Y-106372090D01*
X185271580Y-106372090D02*
X185128723Y-106276852D01*
X185128723Y-106276852D02*
X184938247Y-106229233D01*
X184938247Y-106229233D02*
X184557295Y-106229233D01*
X184557295Y-106229233D02*
X184462057Y-106276852D01*
X184462057Y-106276852D02*
X184414438Y-106324471D01*
X184414438Y-106324471D02*
X184366819Y-106419709D01*
X184366819Y-106419709D02*
X184366819Y-106610185D01*
X184366819Y-106610185D02*
X184414438Y-106705423D01*
X184414438Y-106705423D02*
X184462057Y-106753042D01*
X184462057Y-106753042D02*
X184557295Y-106800661D01*
X184557295Y-106800661D02*
X184795390Y-106800661D01*
X184795390Y-106800661D02*
X184890628Y-106753042D01*
X184890628Y-106753042D02*
X184938247Y-106705423D01*
X184938247Y-106705423D02*
X184985866Y-106610185D01*
X184985866Y-106610185D02*
X184985866Y-106419709D01*
X184985866Y-106419709D02*
X184938247Y-106324471D01*
X184938247Y-106324471D02*
X184890628Y-106276852D01*
X184890628Y-106276852D02*
X184795390Y-106229233D01*
X195288819Y-107991233D02*
X196003104Y-107991233D01*
X196003104Y-107991233D02*
X196145961Y-108038852D01*
X196145961Y-108038852D02*
X196241200Y-108134090D01*
X196241200Y-108134090D02*
X196288819Y-108276947D01*
X196288819Y-108276947D02*
X196288819Y-108372185D01*
X195288819Y-107610280D02*
X195288819Y-106943614D01*
X195288819Y-106943614D02*
X196288819Y-107372185D01*
D10*
X143938666Y-109489069D02*
X143938666Y-110203354D01*
X143938666Y-110203354D02*
X143891047Y-110346211D01*
X143891047Y-110346211D02*
X143795809Y-110441450D01*
X143795809Y-110441450D02*
X143652952Y-110489069D01*
X143652952Y-110489069D02*
X143557714Y-110489069D01*
X144843428Y-109822402D02*
X144843428Y-110489069D01*
X144605333Y-109441450D02*
X144367238Y-110155735D01*
X144367238Y-110155735D02*
X144986285Y-110155735D01*
X112188666Y-109489069D02*
X112188666Y-110203354D01*
X112188666Y-110203354D02*
X112141047Y-110346211D01*
X112141047Y-110346211D02*
X112045809Y-110441450D01*
X112045809Y-110441450D02*
X111902952Y-110489069D01*
X111902952Y-110489069D02*
X111807714Y-110489069D01*
X112617238Y-109584307D02*
X112664857Y-109536688D01*
X112664857Y-109536688D02*
X112760095Y-109489069D01*
X112760095Y-109489069D02*
X112998190Y-109489069D01*
X112998190Y-109489069D02*
X113093428Y-109536688D01*
X113093428Y-109536688D02*
X113141047Y-109584307D01*
X113141047Y-109584307D02*
X113188666Y-109679545D01*
X113188666Y-109679545D02*
X113188666Y-109774783D01*
X113188666Y-109774783D02*
X113141047Y-109917640D01*
X113141047Y-109917640D02*
X112569619Y-110489069D01*
X112569619Y-110489069D02*
X113188666Y-110489069D01*
X127682666Y-109489069D02*
X127682666Y-110203354D01*
X127682666Y-110203354D02*
X127635047Y-110346211D01*
X127635047Y-110346211D02*
X127539809Y-110441450D01*
X127539809Y-110441450D02*
X127396952Y-110489069D01*
X127396952Y-110489069D02*
X127301714Y-110489069D01*
X128063619Y-109489069D02*
X128682666Y-109489069D01*
X128682666Y-109489069D02*
X128349333Y-109870021D01*
X128349333Y-109870021D02*
X128492190Y-109870021D01*
X128492190Y-109870021D02*
X128587428Y-109917640D01*
X128587428Y-109917640D02*
X128635047Y-109965259D01*
X128635047Y-109965259D02*
X128682666Y-110060497D01*
X128682666Y-110060497D02*
X128682666Y-110298592D01*
X128682666Y-110298592D02*
X128635047Y-110393830D01*
X128635047Y-110393830D02*
X128587428Y-110441450D01*
X128587428Y-110441450D02*
X128492190Y-110489069D01*
X128492190Y-110489069D02*
X128206476Y-110489069D01*
X128206476Y-110489069D02*
X128111238Y-110441450D01*
X128111238Y-110441450D02*
X128063619Y-110393830D01*
D11*
X117898057Y-90481138D02*
X117850438Y-90576376D01*
X117850438Y-90576376D02*
X117755200Y-90671614D01*
X117755200Y-90671614D02*
X117612342Y-90814471D01*
X117612342Y-90814471D02*
X117564723Y-90909709D01*
X117564723Y-90909709D02*
X117564723Y-91004947D01*
X117802819Y-90957328D02*
X117755200Y-91052566D01*
X117755200Y-91052566D02*
X117659961Y-91147804D01*
X117659961Y-91147804D02*
X117469485Y-91195423D01*
X117469485Y-91195423D02*
X117136152Y-91195423D01*
X117136152Y-91195423D02*
X116945676Y-91147804D01*
X116945676Y-91147804D02*
X116850438Y-91052566D01*
X116850438Y-91052566D02*
X116802819Y-90957328D01*
X116802819Y-90957328D02*
X116802819Y-90766852D01*
X116802819Y-90766852D02*
X116850438Y-90671614D01*
X116850438Y-90671614D02*
X116945676Y-90576376D01*
X116945676Y-90576376D02*
X117136152Y-90528757D01*
X117136152Y-90528757D02*
X117469485Y-90528757D01*
X117469485Y-90528757D02*
X117659961Y-90576376D01*
X117659961Y-90576376D02*
X117755200Y-90671614D01*
X117755200Y-90671614D02*
X117802819Y-90766852D01*
X117802819Y-90766852D02*
X117802819Y-90957328D01*
X117802819Y-89576376D02*
X117802819Y-90147804D01*
X117802819Y-89862090D02*
X116802819Y-89862090D01*
X116802819Y-89862090D02*
X116945676Y-89957328D01*
X116945676Y-89957328D02*
X117040914Y-90052566D01*
X117040914Y-90052566D02*
X117088533Y-90147804D01*
X146632819Y-88774566D02*
X146156628Y-89107899D01*
X146632819Y-89345994D02*
X145632819Y-89345994D01*
X145632819Y-89345994D02*
X145632819Y-88965042D01*
X145632819Y-88965042D02*
X145680438Y-88869804D01*
X145680438Y-88869804D02*
X145728057Y-88822185D01*
X145728057Y-88822185D02*
X145823295Y-88774566D01*
X145823295Y-88774566D02*
X145966152Y-88774566D01*
X145966152Y-88774566D02*
X146061390Y-88822185D01*
X146061390Y-88822185D02*
X146109009Y-88869804D01*
X146109009Y-88869804D02*
X146156628Y-88965042D01*
X146156628Y-88965042D02*
X146156628Y-89345994D01*
X145632819Y-87869804D02*
X145632819Y-88345994D01*
X145632819Y-88345994D02*
X146109009Y-88393613D01*
X146109009Y-88393613D02*
X146061390Y-88345994D01*
X146061390Y-88345994D02*
X146013771Y-88250756D01*
X146013771Y-88250756D02*
X146013771Y-88012661D01*
X146013771Y-88012661D02*
X146061390Y-87917423D01*
X146061390Y-87917423D02*
X146109009Y-87869804D01*
X146109009Y-87869804D02*
X146204247Y-87822185D01*
X146204247Y-87822185D02*
X146442342Y-87822185D01*
X146442342Y-87822185D02*
X146537580Y-87869804D01*
X146537580Y-87869804D02*
X146585200Y-87917423D01*
X146585200Y-87917423D02*
X146632819Y-88012661D01*
X146632819Y-88012661D02*
X146632819Y-88250756D01*
X146632819Y-88250756D02*
X146585200Y-88345994D01*
X146585200Y-88345994D02*
X146537580Y-88393613D01*
X179157333Y-99222719D02*
X178824000Y-98746528D01*
X178585905Y-99222719D02*
X178585905Y-98222719D01*
X178585905Y-98222719D02*
X178966857Y-98222719D01*
X178966857Y-98222719D02*
X179062095Y-98270338D01*
X179062095Y-98270338D02*
X179109714Y-98317957D01*
X179109714Y-98317957D02*
X179157333Y-98413195D01*
X179157333Y-98413195D02*
X179157333Y-98556052D01*
X179157333Y-98556052D02*
X179109714Y-98651290D01*
X179109714Y-98651290D02*
X179062095Y-98698909D01*
X179062095Y-98698909D02*
X178966857Y-98746528D01*
X178966857Y-98746528D02*
X178585905Y-98746528D01*
X179633524Y-99222719D02*
X179824000Y-99222719D01*
X179824000Y-99222719D02*
X179919238Y-99175100D01*
X179919238Y-99175100D02*
X179966857Y-99127480D01*
X179966857Y-99127480D02*
X180062095Y-98984623D01*
X180062095Y-98984623D02*
X180109714Y-98794147D01*
X180109714Y-98794147D02*
X180109714Y-98413195D01*
X180109714Y-98413195D02*
X180062095Y-98317957D01*
X180062095Y-98317957D02*
X180014476Y-98270338D01*
X180014476Y-98270338D02*
X179919238Y-98222719D01*
X179919238Y-98222719D02*
X179728762Y-98222719D01*
X179728762Y-98222719D02*
X179633524Y-98270338D01*
X179633524Y-98270338D02*
X179585905Y-98317957D01*
X179585905Y-98317957D02*
X179538286Y-98413195D01*
X179538286Y-98413195D02*
X179538286Y-98651290D01*
X179538286Y-98651290D02*
X179585905Y-98746528D01*
X179585905Y-98746528D02*
X179633524Y-98794147D01*
X179633524Y-98794147D02*
X179728762Y-98841766D01*
X179728762Y-98841766D02*
X179919238Y-98841766D01*
X179919238Y-98841766D02*
X180014476Y-98794147D01*
X180014476Y-98794147D02*
X180062095Y-98746528D01*
X180062095Y-98746528D02*
X180109714Y-98651290D01*
X103900094Y-93015958D02*
X103900094Y-92015958D01*
X103900094Y-92015958D02*
X104138189Y-92015958D01*
X104138189Y-92015958D02*
X104281046Y-92063577D01*
X104281046Y-92063577D02*
X104376284Y-92158815D01*
X104376284Y-92158815D02*
X104423903Y-92254053D01*
X104423903Y-92254053D02*
X104471522Y-92444529D01*
X104471522Y-92444529D02*
X104471522Y-92587386D01*
X104471522Y-92587386D02*
X104423903Y-92777862D01*
X104423903Y-92777862D02*
X104376284Y-92873100D01*
X104376284Y-92873100D02*
X104281046Y-92968339D01*
X104281046Y-92968339D02*
X104138189Y-93015958D01*
X104138189Y-93015958D02*
X103900094Y-93015958D01*
X104804856Y-92015958D02*
X105423903Y-92015958D01*
X105423903Y-92015958D02*
X105090570Y-92396910D01*
X105090570Y-92396910D02*
X105233427Y-92396910D01*
X105233427Y-92396910D02*
X105328665Y-92444529D01*
X105328665Y-92444529D02*
X105376284Y-92492148D01*
X105376284Y-92492148D02*
X105423903Y-92587386D01*
X105423903Y-92587386D02*
X105423903Y-92825481D01*
X105423903Y-92825481D02*
X105376284Y-92920719D01*
X105376284Y-92920719D02*
X105328665Y-92968339D01*
X105328665Y-92968339D02*
X105233427Y-93015958D01*
X105233427Y-93015958D02*
X104947713Y-93015958D01*
X104947713Y-93015958D02*
X104852475Y-92968339D01*
X104852475Y-92968339D02*
X104804856Y-92920719D01*
X104485304Y-90519870D02*
X104485304Y-90757965D01*
X104247209Y-90662727D02*
X104485304Y-90757965D01*
X104485304Y-90757965D02*
X104723399Y-90662727D01*
X104342447Y-90948441D02*
X104485304Y-90757965D01*
X104485304Y-90757965D02*
X104628161Y-90948441D01*
X105124250Y-89612119D02*
X105124250Y-89850214D01*
X104886155Y-89754976D02*
X105124250Y-89850214D01*
X105124250Y-89850214D02*
X105362345Y-89754976D01*
X104981393Y-90040690D02*
X105124250Y-89850214D01*
X105124250Y-89850214D02*
X105267107Y-90040690D01*
X168804419Y-89711233D02*
X168756800Y-89663614D01*
X168756800Y-89663614D02*
X168709180Y-89520757D01*
X168709180Y-89520757D02*
X168709180Y-89425519D01*
X168709180Y-89425519D02*
X168756800Y-89282662D01*
X168756800Y-89282662D02*
X168852038Y-89187424D01*
X168852038Y-89187424D02*
X168947276Y-89139805D01*
X168947276Y-89139805D02*
X169137752Y-89092186D01*
X169137752Y-89092186D02*
X169280609Y-89092186D01*
X169280609Y-89092186D02*
X169471085Y-89139805D01*
X169471085Y-89139805D02*
X169566323Y-89187424D01*
X169566323Y-89187424D02*
X169661561Y-89282662D01*
X169661561Y-89282662D02*
X169709180Y-89425519D01*
X169709180Y-89425519D02*
X169709180Y-89520757D01*
X169709180Y-89520757D02*
X169661561Y-89663614D01*
X169661561Y-89663614D02*
X169613942Y-89711233D01*
X169613942Y-90092186D02*
X169661561Y-90139805D01*
X169661561Y-90139805D02*
X169709180Y-90235043D01*
X169709180Y-90235043D02*
X169709180Y-90473138D01*
X169709180Y-90473138D02*
X169661561Y-90568376D01*
X169661561Y-90568376D02*
X169613942Y-90615995D01*
X169613942Y-90615995D02*
X169518704Y-90663614D01*
X169518704Y-90663614D02*
X169423466Y-90663614D01*
X169423466Y-90663614D02*
X169280609Y-90615995D01*
X169280609Y-90615995D02*
X168709180Y-90044567D01*
X168709180Y-90044567D02*
X168709180Y-90663614D01*
X121288475Y-92110921D02*
X121288475Y-91110921D01*
X121288475Y-91110921D02*
X121526570Y-91110921D01*
X121526570Y-91110921D02*
X121669427Y-91158540D01*
X121669427Y-91158540D02*
X121764665Y-91253778D01*
X121764665Y-91253778D02*
X121812284Y-91349016D01*
X121812284Y-91349016D02*
X121859903Y-91539492D01*
X121859903Y-91539492D02*
X121859903Y-91682349D01*
X121859903Y-91682349D02*
X121812284Y-91872825D01*
X121812284Y-91872825D02*
X121764665Y-91968063D01*
X121764665Y-91968063D02*
X121669427Y-92063302D01*
X121669427Y-92063302D02*
X121526570Y-92110921D01*
X121526570Y-92110921D02*
X121288475Y-92110921D01*
X122240856Y-91206159D02*
X122288475Y-91158540D01*
X122288475Y-91158540D02*
X122383713Y-91110921D01*
X122383713Y-91110921D02*
X122621808Y-91110921D01*
X122621808Y-91110921D02*
X122717046Y-91158540D01*
X122717046Y-91158540D02*
X122764665Y-91206159D01*
X122764665Y-91206159D02*
X122812284Y-91301397D01*
X122812284Y-91301397D02*
X122812284Y-91396635D01*
X122812284Y-91396635D02*
X122764665Y-91539492D01*
X122764665Y-91539492D02*
X122193237Y-92110921D01*
X122193237Y-92110921D02*
X122812284Y-92110921D01*
X120903999Y-92963080D02*
X120903999Y-92724985D01*
X121142094Y-92820223D02*
X120903999Y-92724985D01*
X120903999Y-92724985D02*
X120665904Y-92820223D01*
X121046856Y-92534509D02*
X120903999Y-92724985D01*
X120903999Y-92724985D02*
X120761142Y-92534509D01*
X120681749Y-93699680D02*
X120681749Y-93461585D01*
X120919844Y-93556823D02*
X120681749Y-93461585D01*
X120681749Y-93461585D02*
X120443654Y-93556823D01*
X120824606Y-93271109D02*
X120681749Y-93461585D01*
X120681749Y-93461585D02*
X120538892Y-93271109D01*
X104668088Y-90023783D02*
X104334755Y-89547592D01*
X104096660Y-90023783D02*
X104096660Y-89023783D01*
X104096660Y-89023783D02*
X104477612Y-89023783D01*
X104477612Y-89023783D02*
X104572850Y-89071402D01*
X104572850Y-89071402D02*
X104620469Y-89119021D01*
X104620469Y-89119021D02*
X104668088Y-89214259D01*
X104668088Y-89214259D02*
X104668088Y-89357116D01*
X104668088Y-89357116D02*
X104620469Y-89452354D01*
X104620469Y-89452354D02*
X104572850Y-89499973D01*
X104572850Y-89499973D02*
X104477612Y-89547592D01*
X104477612Y-89547592D02*
X104096660Y-89547592D01*
X105049041Y-89119021D02*
X105096660Y-89071402D01*
X105096660Y-89071402D02*
X105191898Y-89023783D01*
X105191898Y-89023783D02*
X105429993Y-89023783D01*
X105429993Y-89023783D02*
X105525231Y-89071402D01*
X105525231Y-89071402D02*
X105572850Y-89119021D01*
X105572850Y-89119021D02*
X105620469Y-89214259D01*
X105620469Y-89214259D02*
X105620469Y-89309497D01*
X105620469Y-89309497D02*
X105572850Y-89452354D01*
X105572850Y-89452354D02*
X105001422Y-90023783D01*
X105001422Y-90023783D02*
X105620469Y-90023783D01*
X173190819Y-107483233D02*
X173905104Y-107483233D01*
X173905104Y-107483233D02*
X174047961Y-107530852D01*
X174047961Y-107530852D02*
X174143200Y-107626090D01*
X174143200Y-107626090D02*
X174190819Y-107768947D01*
X174190819Y-107768947D02*
X174190819Y-107864185D01*
X173619390Y-106864185D02*
X173571771Y-106959423D01*
X173571771Y-106959423D02*
X173524152Y-107007042D01*
X173524152Y-107007042D02*
X173428914Y-107054661D01*
X173428914Y-107054661D02*
X173381295Y-107054661D01*
X173381295Y-107054661D02*
X173286057Y-107007042D01*
X173286057Y-107007042D02*
X173238438Y-106959423D01*
X173238438Y-106959423D02*
X173190819Y-106864185D01*
X173190819Y-106864185D02*
X173190819Y-106673709D01*
X173190819Y-106673709D02*
X173238438Y-106578471D01*
X173238438Y-106578471D02*
X173286057Y-106530852D01*
X173286057Y-106530852D02*
X173381295Y-106483233D01*
X173381295Y-106483233D02*
X173428914Y-106483233D01*
X173428914Y-106483233D02*
X173524152Y-106530852D01*
X173524152Y-106530852D02*
X173571771Y-106578471D01*
X173571771Y-106578471D02*
X173619390Y-106673709D01*
X173619390Y-106673709D02*
X173619390Y-106864185D01*
X173619390Y-106864185D02*
X173667009Y-106959423D01*
X173667009Y-106959423D02*
X173714628Y-107007042D01*
X173714628Y-107007042D02*
X173809866Y-107054661D01*
X173809866Y-107054661D02*
X174000342Y-107054661D01*
X174000342Y-107054661D02*
X174095580Y-107007042D01*
X174095580Y-107007042D02*
X174143200Y-106959423D01*
X174143200Y-106959423D02*
X174190819Y-106864185D01*
X174190819Y-106864185D02*
X174190819Y-106673709D01*
X174190819Y-106673709D02*
X174143200Y-106578471D01*
X174143200Y-106578471D02*
X174095580Y-106530852D01*
X174095580Y-106530852D02*
X174000342Y-106483233D01*
X174000342Y-106483233D02*
X173809866Y-106483233D01*
X173809866Y-106483233D02*
X173714628Y-106530852D01*
X173714628Y-106530852D02*
X173667009Y-106578471D01*
X173667009Y-106578471D02*
X173619390Y-106673709D01*
X144105333Y-92998719D02*
X143772000Y-92522528D01*
X143533905Y-92998719D02*
X143533905Y-91998719D01*
X143533905Y-91998719D02*
X143914857Y-91998719D01*
X143914857Y-91998719D02*
X144010095Y-92046338D01*
X144010095Y-92046338D02*
X144057714Y-92093957D01*
X144057714Y-92093957D02*
X144105333Y-92189195D01*
X144105333Y-92189195D02*
X144105333Y-92332052D01*
X144105333Y-92332052D02*
X144057714Y-92427290D01*
X144057714Y-92427290D02*
X144010095Y-92474909D01*
X144010095Y-92474909D02*
X143914857Y-92522528D01*
X143914857Y-92522528D02*
X143533905Y-92522528D01*
X144962476Y-91998719D02*
X144772000Y-91998719D01*
X144772000Y-91998719D02*
X144676762Y-92046338D01*
X144676762Y-92046338D02*
X144629143Y-92093957D01*
X144629143Y-92093957D02*
X144533905Y-92236814D01*
X144533905Y-92236814D02*
X144486286Y-92427290D01*
X144486286Y-92427290D02*
X144486286Y-92808242D01*
X144486286Y-92808242D02*
X144533905Y-92903480D01*
X144533905Y-92903480D02*
X144581524Y-92951100D01*
X144581524Y-92951100D02*
X144676762Y-92998719D01*
X144676762Y-92998719D02*
X144867238Y-92998719D01*
X144867238Y-92998719D02*
X144962476Y-92951100D01*
X144962476Y-92951100D02*
X145010095Y-92903480D01*
X145010095Y-92903480D02*
X145057714Y-92808242D01*
X145057714Y-92808242D02*
X145057714Y-92570147D01*
X145057714Y-92570147D02*
X145010095Y-92474909D01*
X145010095Y-92474909D02*
X144962476Y-92427290D01*
X144962476Y-92427290D02*
X144867238Y-92379671D01*
X144867238Y-92379671D02*
X144676762Y-92379671D01*
X144676762Y-92379671D02*
X144581524Y-92427290D01*
X144581524Y-92427290D02*
X144533905Y-92474909D01*
X144533905Y-92474909D02*
X144486286Y-92570147D01*
X135794761Y-89411957D02*
X135699523Y-89364338D01*
X135699523Y-89364338D02*
X135604285Y-89269100D01*
X135604285Y-89269100D02*
X135461428Y-89126242D01*
X135461428Y-89126242D02*
X135366190Y-89078623D01*
X135366190Y-89078623D02*
X135270952Y-89078623D01*
X135318571Y-89316719D02*
X135223333Y-89269100D01*
X135223333Y-89269100D02*
X135128095Y-89173861D01*
X135128095Y-89173861D02*
X135080476Y-88983385D01*
X135080476Y-88983385D02*
X135080476Y-88650052D01*
X135080476Y-88650052D02*
X135128095Y-88459576D01*
X135128095Y-88459576D02*
X135223333Y-88364338D01*
X135223333Y-88364338D02*
X135318571Y-88316719D01*
X135318571Y-88316719D02*
X135509047Y-88316719D01*
X135509047Y-88316719D02*
X135604285Y-88364338D01*
X135604285Y-88364338D02*
X135699523Y-88459576D01*
X135699523Y-88459576D02*
X135747142Y-88650052D01*
X135747142Y-88650052D02*
X135747142Y-88983385D01*
X135747142Y-88983385D02*
X135699523Y-89173861D01*
X135699523Y-89173861D02*
X135604285Y-89269100D01*
X135604285Y-89269100D02*
X135509047Y-89316719D01*
X135509047Y-89316719D02*
X135318571Y-89316719D01*
X136080476Y-88316719D02*
X136699523Y-88316719D01*
X136699523Y-88316719D02*
X136366190Y-88697671D01*
X136366190Y-88697671D02*
X136509047Y-88697671D01*
X136509047Y-88697671D02*
X136604285Y-88745290D01*
X136604285Y-88745290D02*
X136651904Y-88792909D01*
X136651904Y-88792909D02*
X136699523Y-88888147D01*
X136699523Y-88888147D02*
X136699523Y-89126242D01*
X136699523Y-89126242D02*
X136651904Y-89221480D01*
X136651904Y-89221480D02*
X136604285Y-89269100D01*
X136604285Y-89269100D02*
X136509047Y-89316719D01*
X136509047Y-89316719D02*
X136223333Y-89316719D01*
X136223333Y-89316719D02*
X136128095Y-89269100D01*
X136128095Y-89269100D02*
X136080476Y-89221480D01*
D12*
%TO.C,U1*%
X199059800Y-78638400D02*
X199059800Y-96418400D01*
X178104800Y-78638400D02*
X199059800Y-78638400D01*
X199059800Y-96418400D02*
X178104800Y-96418400D01*
X178104800Y-96418400D02*
X178104800Y-78638400D01*
D13*
X196365800Y-78028400D02*
G75*
G02*
X196165800Y-78028400I-100000J0D01*
G01*
X196165800Y-78028400D02*
G75*
G02*
X196365800Y-78028400I100000J0D01*
G01*
%TO.C,J5*%
D10*
X167640000Y-113805900D02*
X152400000Y-113805900D01*
X152400000Y-93235900D01*
X167640000Y-93235900D01*
X167640000Y-113805900D01*
D14*
%TO.C,R1*%
X107468936Y-86602900D02*
X107923064Y-86602900D01*
X107468936Y-88072900D02*
X107923064Y-88072900D01*
%TO.C,Q2*%
X112422000Y-89710900D02*
X112422000Y-91120900D01*
X110092000Y-89710900D02*
X110092000Y-91120900D01*
X112422000Y-91120900D02*
X111752000Y-91120900D01*
X110752000Y-91120900D02*
X110092000Y-91120900D01*
X112732000Y-89580900D02*
X112402000Y-89340900D01*
X112732000Y-89100900D01*
X112732000Y-89580900D01*
G36*
X112732000Y-89580900D02*
G01*
X112402000Y-89340900D01*
X112732000Y-89100900D01*
X112732000Y-89580900D01*
G37*
%TO.C,C3*%
X195441901Y-98976294D02*
X194919397Y-98976294D01*
X195441901Y-97506294D02*
X194919397Y-97506294D01*
D15*
%TO.C,D1*%
X140220700Y-92227400D02*
X140220700Y-91912440D01*
X140220700Y-90891360D02*
X140220700Y-90576400D01*
X140220700Y-90576400D02*
X138163300Y-90576400D01*
X138163300Y-92227400D02*
X140220700Y-92227400D01*
X138163300Y-91912440D02*
X138163300Y-92227400D01*
X138163300Y-90576400D02*
X138163300Y-90891360D01*
D14*
%TO.C,U2*%
X151300000Y-88631900D02*
X166200000Y-88631900D01*
X151300000Y-91631900D02*
X151300000Y-88631900D01*
X153670000Y-88631900D02*
X153670000Y-91631900D01*
X166200000Y-88631900D02*
X166200000Y-91631900D01*
X166200000Y-91631900D02*
X151300000Y-91631900D01*
%TO.C,R4*%
X120115064Y-89342900D02*
X119660936Y-89342900D01*
X120115064Y-87872900D02*
X119660936Y-87872900D01*
D15*
%TO.C,J1*%
X104541200Y-78020100D02*
X104541200Y-85868700D01*
X104541200Y-85868700D02*
X124785000Y-85868700D01*
X124785000Y-78020100D02*
X104541200Y-78020100D01*
X124785000Y-85868700D02*
X124785000Y-78020100D01*
D16*
X125801000Y-82236500D02*
G75*
G02*
X125039000Y-82236500I-381000J0D01*
G01*
X125039000Y-82236500D02*
G75*
G02*
X125801000Y-82236500I381000J0D01*
G01*
D14*
%TO.C,R3*%
X124687000Y-90920836D02*
X124687000Y-91374964D01*
X123217000Y-90920836D02*
X123217000Y-91374964D01*
D15*
%TO.C,J6*%
X128014100Y-78020100D02*
X128014100Y-85868700D01*
X128014100Y-85868700D02*
X148257900Y-85868700D01*
X148257900Y-78020100D02*
X128014100Y-78020100D01*
X148257900Y-85868700D02*
X148257900Y-78020100D01*
D16*
X149273900Y-82236500D02*
G75*
G02*
X148511900Y-82236500I-381000J0D01*
G01*
X148511900Y-82236500D02*
G75*
G02*
X149273900Y-82236500I381000J0D01*
G01*
D12*
%TO.C,J9*%
X181853835Y-113807255D02*
X181853835Y-112857255D01*
X182953835Y-113807255D02*
X181853835Y-113807255D01*
X187753835Y-113807255D02*
X186703835Y-113807255D01*
X187753835Y-113807255D02*
X187753835Y-109457255D01*
X181853835Y-110607255D02*
X181853835Y-110307255D01*
X181503835Y-110307255D02*
X181503835Y-104007255D01*
X181853835Y-110307255D02*
X181503835Y-110307255D01*
X187753835Y-107157255D02*
X187753835Y-101807255D01*
X187753835Y-101807255D02*
X183303835Y-101807255D01*
D13*
X178903835Y-111807255D02*
G75*
G02*
X178703835Y-111807255I-100000J0D01*
G01*
X178703835Y-111807255D02*
G75*
G02*
X178903835Y-111807255I100000J0D01*
G01*
D12*
%TO.C,J7*%
X192920546Y-113807255D02*
X192920546Y-112857255D01*
X194020546Y-113807255D02*
X192920546Y-113807255D01*
X198820546Y-113807255D02*
X197770546Y-113807255D01*
X198820546Y-113807255D02*
X198820546Y-109457255D01*
X192920546Y-110607255D02*
X192920546Y-110307255D01*
X192570546Y-110307255D02*
X192570546Y-104007255D01*
X192920546Y-110307255D02*
X192570546Y-110307255D01*
X198820546Y-107157255D02*
X198820546Y-101807255D01*
X198820546Y-101807255D02*
X194370546Y-101807255D01*
D13*
X189970546Y-111807255D02*
G75*
G02*
X189770546Y-111807255I-100000J0D01*
G01*
X189770546Y-111807255D02*
G75*
G02*
X189970546Y-111807255I100000J0D01*
G01*
%TO.C,J4*%
D10*
X151632000Y-113805900D02*
X136392000Y-113805900D01*
X136392000Y-93235900D01*
X151632000Y-93235900D01*
X151632000Y-113805900D01*
%TO.C,J2*%
X119628000Y-113805900D02*
X104388000Y-113805900D01*
X104388000Y-93235900D01*
X119628000Y-93235900D01*
X119628000Y-113805900D01*
%TO.C,J3*%
X135630000Y-113805900D02*
X120390000Y-113805900D01*
X120390000Y-93235900D01*
X135630000Y-93235900D01*
X135630000Y-113805900D01*
D14*
%TO.C,Q1*%
X116486000Y-89710900D02*
X116486000Y-91120900D01*
X114156000Y-89710900D02*
X114156000Y-91120900D01*
X116486000Y-91120900D02*
X115816000Y-91120900D01*
X114816000Y-91120900D02*
X114156000Y-91120900D01*
X116796000Y-89580900D02*
X116466000Y-89340900D01*
X116796000Y-89100900D01*
X116796000Y-89580900D01*
G36*
X116796000Y-89580900D02*
G01*
X116466000Y-89340900D01*
X116796000Y-89100900D01*
X116796000Y-89580900D01*
G37*
%TO.C,R5*%
X147093000Y-88834964D02*
X147093000Y-88380836D01*
X148563000Y-88834964D02*
X148563000Y-88380836D01*
%TO.C,R9*%
X182160936Y-98032900D02*
X182615064Y-98032900D01*
X182160936Y-99502900D02*
X182615064Y-99502900D01*
D15*
%TO.C,D3*%
X105651300Y-90830400D02*
X105651300Y-91145360D01*
X105651300Y-92166440D02*
X105651300Y-92481400D01*
X105651300Y-92481400D02*
X107708700Y-92481400D01*
X107708700Y-90830400D02*
X105651300Y-90830400D01*
X107708700Y-91145360D02*
X107708700Y-90830400D01*
X107708700Y-92481400D02*
X107708700Y-92166440D01*
%TO.C,C2*%
X174840900Y-86004400D02*
X174043340Y-86004400D01*
X170888660Y-86004400D02*
X170091100Y-86004400D01*
X170091100Y-86004400D02*
X170091100Y-93751400D01*
X174840900Y-93751400D02*
X174840900Y-86004400D01*
X174043340Y-93751400D02*
X174840900Y-93751400D01*
X170091100Y-93751400D02*
X170888660Y-93751400D01*
X172542200Y-84861400D02*
G75*
G02*
X172389800Y-84861400I-76200J0D01*
G01*
X172389800Y-84861400D02*
G75*
G02*
X172542200Y-84861400I76200J0D01*
G01*
%TO.C,D2*%
X120154700Y-92481400D02*
X120154700Y-92166440D01*
X120154700Y-91145360D02*
X120154700Y-90830400D01*
X120154700Y-90830400D02*
X118097300Y-90830400D01*
X118097300Y-92481400D02*
X120154700Y-92481400D01*
X118097300Y-92166440D02*
X118097300Y-92481400D01*
X118097300Y-90830400D02*
X118097300Y-91145360D01*
D14*
%TO.C,R2*%
X107484936Y-88888900D02*
X107939064Y-88888900D01*
X107484936Y-90358900D02*
X107939064Y-90358900D01*
D12*
%TO.C,J8*%
X170788823Y-113807255D02*
X170788823Y-112857255D01*
X171888823Y-113807255D02*
X170788823Y-113807255D01*
X176688823Y-113807255D02*
X175638823Y-113807255D01*
X176688823Y-113807255D02*
X176688823Y-109457255D01*
X170788823Y-110607255D02*
X170788823Y-110307255D01*
X170438823Y-110307255D02*
X170438823Y-104007255D01*
X170788823Y-110307255D02*
X170438823Y-110307255D01*
X176688823Y-107157255D02*
X176688823Y-101807255D01*
X176688823Y-101807255D02*
X172238823Y-101807255D01*
D13*
X167838823Y-111807255D02*
G75*
G02*
X167638823Y-111807255I-100000J0D01*
G01*
X167638823Y-111807255D02*
G75*
G02*
X167838823Y-111807255I100000J0D01*
G01*
D14*
%TO.C,R6*%
X144499064Y-91628900D02*
X144044936Y-91628900D01*
X144499064Y-90158900D02*
X144044936Y-90158900D01*
%TO.C,Q3*%
X139867000Y-90031900D02*
X138457000Y-90031900D01*
X139867000Y-87701900D02*
X138457000Y-87701900D01*
X138457000Y-90031900D02*
X138457000Y-89361900D01*
X138457000Y-88361900D02*
X138457000Y-87701900D01*
X140477000Y-90341900D02*
X139997000Y-90341900D01*
X140237000Y-90011900D01*
X140477000Y-90341900D01*
G36*
X140477000Y-90341900D02*
G01*
X139997000Y-90341900D01*
X140237000Y-90011900D01*
X140477000Y-90341900D01*
G37*
%TD*%
M02*
