M48
; DRILL file {KiCad 9.0.1} date 2025-04-18T12:39:15-0700
; FORMAT={-:-/ absolute / inch / decimal}
; #@! TF.CreationDate,2025-04-18T12:39:15-07:00
; #@! TF.GenerationSoftware,Kicad,Pcbnew,9.0.1
; #@! TF.FileFunction,Plated,1,2,PTH
FMAT,2
INCH
; #@! TA.AperFunction,Plated,PTH,ViaDrill
T1C0.0118
; #@! TA.AperFunction,Plated,PTH,ComponentDrill
T2C0.0315
; #@! TA.AperFunction,Plated,PTH,ComponentDrill
T3C0.0335
; #@! TA.AperFunction,Plated,PTH,ComponentDrill
T4C0.0350
; #@! TA.AperFunction,Plated,PTH,ComponentDrill
T5C0.0510
%
G90
G05
T1
X4.809Y-3.555
X5.684Y-3.491
X6.009Y-3.4185
X6.034Y-3.4485
X6.038Y-3.3949
X6.198Y-3.4485
X6.238Y-3.3949
X6.2639Y-3.4194
X6.49Y-3.9385
X6.6Y-3.8685
X6.75Y-4.2985
X7.4Y-3.5385
T2
X6.0Y-3.5485
X6.1Y-3.5485
X6.2Y-3.5485
X6.3Y-3.5485
X6.4Y-3.5485
X6.5Y-3.5485
T3
X7.122Y-3.146
X7.122Y-3.746
X7.222Y-3.146
X7.222Y-3.746
X7.322Y-3.146
X7.322Y-3.746
X7.422Y-3.146
X7.422Y-3.746
X7.522Y-3.146
X7.522Y-3.746
X7.622Y-3.146
X7.622Y-3.746
X7.722Y-3.146
X7.722Y-3.746
T4
X4.2848Y-3.7085
X4.3348Y-3.8085
X4.3848Y-3.7085
X4.4348Y-3.8085
X4.4848Y-3.7085
X4.5348Y-3.8085
X4.9148Y-3.7085
X4.9648Y-3.8085
X5.0148Y-3.7085
X5.0648Y-3.8085
X5.1148Y-3.7085
X5.1648Y-3.8085
X5.5448Y-3.7085
X5.5948Y-3.8085
X5.6448Y-3.7085
X5.6948Y-3.8085
X5.7448Y-3.7085
X5.7948Y-3.8085
X6.175Y-3.7085
X6.225Y-3.8085
X6.275Y-3.7085
X6.325Y-3.8085
X6.375Y-3.7085
X6.425Y-3.8085
T5
X4.219Y-3.2377
X4.4159Y-3.2377
X4.6127Y-3.2377
X4.8096Y-3.2377
X5.1431Y-3.2377
X5.34Y-3.2377
X5.5369Y-3.2377
X5.7337Y-3.2377
M30
